<svg width="724" height="580" fill="none" xmlns="http://www.w3.org/2000/svg"><g clip-path="url(#clip0)"><path d="M38 1L28 0l-4 3-6 4-3 4-1 3 2 4 4 8-9 11-1 1H9l-5-3-2-1-1 9-1 5 4 9 2 3 5 10 1 2 10 5v1l3 15 8-2 5-1 4 3 15 12 6-2 22-7-4 7-3 5 1 2 4 21v2l-4 9 5 20v1l-15 13-2 1-13 4-1-5-1-2-1-2-5-2-6-4v1l-2 5v1l-3 3v1h-4-5l-3 8-1 1-2 1-2 5-3 10 8 8 3 3 2 1h1l-1 1 14 10 2 2 6-1 4 3 2 3 12-1 1-1 13-8 5-4 3-4 8-11 3-3-1-1-20-18 18-11h2l13 3 3 1 2-5 4-11 5 7 3 3 19 14 6 5 5 2 36 12 3 1 7-3 6-2 6-9 7 1 3 1v1l11 19v2l-3 26-1 1-9 3-6 1-10 7c-2 1-3 3-5 3l-14 5-2 1-4 4-18 16-11 10-2 2-7 10-2 2v4l1 11 4 13h5l2 1 10 6 2 1 5 8 27 5 7 1 15 4 11 5 25 10 14 5 4 3 15 11 1 1 7 16 2 3 1 22-13 12-2 2-7 9 4 6 3 5 5-1 17-6 10-8 9-9 5-13 2-4v-3l-4-15 15-2 3-1 1-1 3-8 2-7v-4l-1-1-1-2-4-3-4-3-3 2-3 2-2 7-21-10 6-8h-1l-11-7-2-1-4 2-15 6-12 5-2 1-15-20-6-7 15-8 1-1-9-7-17-14 17-16 4-3 15-10 1 4 3-1 25-2 25 40 2 3 25 26 3 3 6 12 12 4 3 1 20 17 4 5 13 4 21 8 8 3 5-1 23-1h1l22 21 1 1 6-3 24-10 4-2 6-1 4 8c1 1 2 2 1 3l-2 29 5 3 16 13 3 2 5 2 1 1 6 19 5 1 6 27v1l-5 5-1 2-6 13-6 12-2 5v1l7 6 2 1 6 4 3 2 4-3 9-8 3-2 3-4 9-8 5-13 1-3v-15-8-2l-10-6 9-25 12-2v-1l-4-16v-2l-6 2h-2l-14-3-1-1-3-3-11-1-4-1-2-1-12-12-1-1-3-1-17-7-6-2-6-12-19-30-1-3-9-4-10-5-4-1-8-2-3 2-13 9-25-21 2-7-3-2-19-14-2-2-11-25-1-3-10-17-9-14-5-7-14-19-3-4-7-24-2-4-1-4a8348 8348 0 00-6-15l-3-2-9-9-4-4-1-3-1-4-7-6-7-6-7-2-4-3-20-15-2-2-7-9-2-2-3-1-20-8-1-1-15-22-4-7-9-13-2-2 18-5 5-7 11-14 3-3h3l25 7 2 1 6 9 1 1h8l18 7 4 3 11 9 9 5v1l3 11v23l-1 1h2l3-13 5-18 13 4 6 2 24 12 5 3 3-5 2-4v-5l-2-5-3-6-10 6-9-19-1-2 1-4h-1l-2 1-23-8-3-2-12-9-5-3h-14l-1 7-3 1v14l-19-7v-1l-3-23-1-7v-7l-1-2-1-3-6-2-5-2-16-3-8-1-8-1-4-1v1l1 5v1l-6 12-13 1-19 20-1-4-3-9-2-4-3-2-2-3-6 5-11 9h-1l-10 1h-2l-7-2-19-7-21 5-7 2-22 1h-3l-11-6-3-2-15-6v-1l-8-16-3-4-7-10-13-3-8-1zm6 1l-3 1-10-2 13 1zm-4 2l-6 1-5-4 11 3zm-8 2L22 7l6-6 4 5zm24-1L45 4l1-2 10 3zM45 2l-1 2h-2l3-2zm-2 2l-5 1 2-1h3zM25 4l-3 2-3 1 6-3zm33 2l5 10L46 5l12 1zM44 5l-3 7-2-2-4-4 9-1zm19 12l-18-2V5l18 12zM44 5l1 10-4-3 3-7zM34 7l6 5-25 1 6-5 1-1h12zm33 10l2 3 6 14 1 2-21-8 9-11-2-4-2-6 7 10zM20 8l-4 4 3-4h1zm25 7l-2 7-1-4-1-6 4 3zm-5-2L20 26l-5-12 25-1zm1 0l1 9v2l-2 3-3 2-2 1-14-4 20-13zm22 4l-11 7-6-8 17 1zm-12 7l-8 1v-2l2-7 6 8zm12-6l-8 10-3-3 11-7zm208 2h-2l-4-1 6 1zm-4 1l-2 3-1-5 3 2zm1 0l-3-1 3 1zm5 0h-3l3-1v1zm2 0l-1-1 1 1zm3 0h-3 3zm-7 1l4 1-7-2 3 1zm26 3l-11 2-1-1-3-4 15 3zm-16-4l-2 2-3-2h5zm-5 1l3 1-1 1-3-1-1-2 2 1zm-2 1l-3-2h3v2zm0 1h1l1 2-9 10-2-11 2-4 7 3zm11 2l-4-2v-2l4 4zm-4-4l-1 2v-1l1-1zm-2 2h1v1l-1-1zM43 25h-1l1-1v1zm235 0l-1 1-1-2 2 1zm5 1l-3-1v-1l3 2zm15-1l10 17-7 18-29-8 12-10 1-6 1-9 12-2zM50 25l-4 1-3-1h7zm230 0l-2 5-1-3 1-2h2zm29 7l1 6-2 4-9-17 10 7zM52 27h-3l2-2 1 2zm-2-2l-1 2-2-1 3-1zm235 2l-1 14-5-10 1-5 5 1zm-20-1l2 11h-9l7-11zM43 26v1l-1 1v-2h1zm266 3v2l-8-5 8 3zM45 26v1l-1-1h1zm-3 0l-1 2h-2l3-2zm12 2l-1-2 1 2zm-2-2l1 2-1-2zm-4 1l-1 1-2-1h3zm-14 3l-12 4-2-7 14 3zm244 1l-1 4-4 14-1-3-4-9 8-10 2 4zM20 27l1 7-10 4 9-11zm27 1l-3 1v-2h1l2 1zm4 0h1-5l2-1 2 1zm-8 0l1 1h-2l1-1zm-2 0l-1 1 1-1zm34 8L65 52h-5l-1-1-4-6 1-11-1-5 20 7zm-20-7v2l-1-2h1zm-3 0l-2 1-2-1h4zm-3 1l-4 2v-1l2-2 2 1zm-3-1l-2 1v-1h2zm-2 0v2h-1-1v-2h2zm-3 0v2h-1l-1-2h2zm12 0l2 4-2-1v-2-1zm-15 0v1h-2l2-1zm272 1l1 3-1-1v-2zM52 31l-1-1h1v1zm-13-1h-1 1zm-1 1v5l-15 9-1-10 13-5 3 1zm14 1v2l-6-1-1-1 5-1 2 1zm-12 0l1 2-3 2v-5l2 1zm244 10l-12 9 2-2 1-4 4-14 5 11zM44 32c0-1 0-1 0 0zm-3-1v2l-1-2h1zm2 1l-2 1 1-1h1zm1 0l-2 1 2-1zm266 3v-3 3zM55 34h-2v-2l2 2zm-11-2l1 1h-2l1-1zm268 2l-1 1-1-2 2 1zM45 34l2 5-5-5h3zm8 0l1 10-8-10h7zm1 11v1l-5-4-1-2-3-6 9 11zm1-11v0zm-1 0v9l-1-9h1zm-8 5l2 2 3 6-7 2h-2l-4-1 3-12v-2l5 5zm-6-4l-2 12v-3-8l2-1zm-19 0l2 11-13-3v-4l1-1 10-3zm291 0l-1 2 1-2zM9 39l-3 2-3-6 6 4zm-6-3l3 6-2 2-1-8zm73 0l2 6v2l-3 23-9 5v-3-4-5-3-1l10-19v-1zm235 1v8l-1-6 1-2zM79 37v4l-2-4h2zm-41 0l-1 11-13-2 14-9zm229 0l-2 11-10-6 3-4 9-1zM3 45l-2 2 1-10 1 8zm215-2l-10 8-2-2 9-12 3 6zm39-5l-2 4v2l-9-6h11zm16 11l-4 1-1-12 5 11zm-54-8l-1 1-2-4 3 3zM92 43l-2 6-3 6-7-17 12 5zm175-5l1 12-3-2 2-10zm-13 7l-4 23-6 2h-1l-17-11 19-21 9 7zm-41-7l-3 5-5 6-7 1 15-12zM80 38l7 17-3 1-5-14 1-4zm230 4l1 4-2-4 1-3v3zM9 40l1 3-2-1 1-2zm65 0l-2 3-6 13-1-3 9-13zM3 44v-4 4zm309-3v2l-1 4v-3l1-3zM8 41v1H7l1-1zm46 6h-3l-1-2-1-3 5 5zm166-5l3 9-4-8 1-1zm-1 0l-1 1 1-1zm45 6v3l-9-6v-3l9 6zM7 43v0zm160 6l-4 1-16-2 12-5 8 6zM10 43l1 15-5-3 1-8 1-4h2zm301 4l-1 1-8 11 6-16 3 4zm-93-3l-5 9-4-2 9-8v1zM6 43v3l-1 3-1-4 2-2zm160 2l12 4h-9-1l-8-6 6 2zm-71 3l-4-1 1-4 3 5zm5 2l-5-2-2-5 7 7zm-16 6l-8 2 3-15 5 13zM19 45l6 1 12 3-1 3-10 18-14-12-1-5-1-10 9 2zm293-1l3 27h-7l2-12 2-15zm-93 0l5 10-4 2-6-3 4-9h1zm-66 0l-8 3-4 1h-5l17-4zm1 1l-8 3h-2l2-1 8-2zm-49 6l-3-1-2-1-5-4 10 6zm157-1l6 5-17 15v-3l4-22 7 5zM4 45v4l-1 3v-5l1-2zm55 7l-5-1h-1l-2-3 4-1v-1l4 6zM3 46v6l-2-4 2-2zm3 1v7H5v-4l1-3zm305 0v0zM95 49l2 4-1-1-5-4 4 1zm1 4l-8 2 3-7 5 5zm215-5l-3 22-7-10 1-2 9-10zM51 48l1 3-8-2 7-1zm92 0l-1 1 1-1zm125 2l-4 1 1-3 3 2zm-111 0h-6l-3-1 9 1zm-12-1l-1 1h-3l1-1h3zm-9 0l-6 1 6-1zm-37 1l3 1-5 1-2-3 4 1zm-58-1l-4 1 1-1h3zm109 1h-5v-1l5 1zm-20-1l-4 1-7 1-7-1h11l7-1zm11 0l-1 1h-8l9-1zm132 1l-2 2-2-2h4zM44 50l7 1 4 1 6 3 5 17-4 3-13-6-1-2-10-16 4-1h2zm164 1l-7 6h-1l6-7 2 1zm-4-1l-9 5-3-1 5-3 1-1h6zm-25 0l-6 4-4-4h10zm4 2h-3l-6 2 5-4h1l3 2zm-11 2l-10-2v-2h6l4 4zm-12-4l-2 1-2-1h4zm2 0v2l-3-1 3-1zm106 1v1l-3-1h3zm-110 0l-11 4-4-3 1-1h14zm46 0l-5 6-4-2 9-4zm-8 0l-4 3-6-2 10-1zm-82 0h-6 6zm-6 0h-1 1zm162 1h-1v-1l1 1zm-148-1h-3 3zm91 2l-3 8-9-4 7-6 5 2zm-69-2l-1 1-2-1h3zm-5 0l-10 11-3-11h13zM48 68l-22 2 11-19 11 17zM4 51l1 3-2-1 1-2zm139 2l-3 4-1 1-9 4 11-11 2 2zm125-1v2l-3-2h3zm-106 0l1 11-1 3-14-10 10-4h4zm-37 0l3 10h-1l-7-3 5-7zm-1 0l-4 6-6-3 10-3zm-2 0l-8 3-5-3h13zm-12 0h-2 2zm-51 0l1 1-5-1h4zm48 0l-8 4-1-3 6-1h3zm85 2l-1 1-5-2-1-1 7 2zm78-2l-1 2v-2h1zm-86 0l6 3h-2l-7-3h3zm-11 2l-6 3v2l-4 5-1-12 11 2zM63 53h-3v-1l3 1zm-3 1l-4-2 4 2zm48 3l-6 2 4-4 2-3v5zm77-2h-5l1-2 4 2zm-5-2v2l-4-1 4-1zm-67 2l-4 2-1-4 5 2zm-48-2v3l-4-3h4zm81 2l-6 3 3-5 3 2zm-45 5l-3-1 1-3 7-3-5 7zm-3-5l-1-2 1 2zm122 2l-8 3-2 1 4-7 6 3zm-32-2h-2l-2-1 4 1zm-90 1l-4 1h-1l-5-1 8-2 2 2zm-35 0l-2-2 2 2zM5 54v2l-1-2h1zm169 1l-3 1 2-1h1zm6 0v1l-4-1h4zm44 0l1 4-4-2 3-2zm-31 0l-1 1-1-1h2zm-13 1l-1 6-11-5 7-2 5 1zM5 57v-2 2zm181-1l3 1-2 1-7-2v-1l6 1zm13 1l-1 2-5-3 1-1 5 2zM64 57h1v4l1 5v4l-5-15 3 2zm-53 1v7l-4-4-1-3v-3l5 3zm180-2h1-1zm0 1h-1l-3-1 4 1zm-72 2l-2 3-1 2-6 3-1-10 5-1 5 3zm32-1l11 8-25-3 3-4 1-1 6-2 4 2zm201-2l-10 5-2-5h12zM93 58l-5 1v-3l5 2zm-6-2l-2 4-1-3 3-1zm265 0l-4 9-4-1-2-3 10-5zm-159 1l4 2-1 1-3-2-1-1h1zm178 13l-12-4-1-1-5-8 18 13zm-14-5h-5l1-8 4 8zm-90-8h-1 1zm-80 2l-7 3v-5l7 2zm-89-2v2l-3-1 3-1zm-10 2l-2 1 1-3 1 2zm133-2l-8 6-2-2 8-4h2zm-30 0l3 3-4-3h1zM85 60v1l-3 1-5-3 7-2 1 3zm257 1l-4 1 1-5 3 4zm11-4l-1 8h-3l4-8zm-87 1l-2 2-7 9-5 7-1-4v-1l12-11 3-3v1zm-40 2l4 16-17-13 8-6 5 3zm-26-2l-2 1 1-2 1 1zm-92 0l1 9-5 3-5 4 1-5 2-9 6-2zm101 3a2228 2228 0 00-7 0l-3-2 1-1 9 3zm-15-1l-6-2h2l4 2zm-15 2l-6 7-7-2 2-9 11 4zm-82-3l-1 4-1 1-5 4-2-8 6-2 3 1zm70 0l-1 8-3-1v-2l4-5zm28 2l1 1 1 13-7-2h-2l-8-11 7-3 8 2zm-56-2l-2 4-7-1h2l7-3zm-13 4h-9l3-4 6 4zM21 70l-4 1-4-4-1-2-1-6 10 11zm80-10l-4 3 1-4 3 1zm-20 3l-3 2-1-6 4 4zm120-2h-4l1-1 3 1zM88 60l1 8-1-2-2-6h2zm152 8l2 2-11 3-4-13 13 8zM78 65l-3 1 1-6 2 5zm-53 5h-4l-1-1-7-9 12 10zm76-9l-2 13-2 1h-5l4-11 5-3zm-16 0l3 6-6-4 3-2zm259 3h-6v-1l4-2 2 3zm-143-3l5 6v1l-8-7h3zm9 1l-2 3 2-3zm-1 0l-2 5-5-6 7 1zm-3 6l-4 10-4-2-1-1-1-13 10 6zm6-5l-5 4 4-5 1 1zM10 65l2 1v4l-4-8 2 3zm220 8v3l-2-7-1-7 3 11zm-51-10l9 10-14-4 5-6zm-43 1l-1 3-4-2-2-2 7 1zm-8 0l2 2-12-2 9-1 1 1zm-41 3l2 2-8 6-3-10 4-2 5 4zm251-4l-1 1a1539 1539 0 001-1zM230 77v1l-1 3-6-7-10-10 17 13zm-17-13l15 17-5-3-13-8-3-2 6-4zm-75 0l24 3-8 12-3 1-16-13 2-3h1zm-9 3l-18 2 5-5 13 3zm208-3v2l-1-2h1zm7 1l2 4-3 5h-1l-1-2-3-5v-3l6 1zm-210 2l-3 1-1-4 4 3zm214-2l-1 3-2-3h3zM96 65l-4 10-2-5 1-2 5-3zm241 2l-1 2v-4l1 2zm-222-2l-5 4v-2l5-2zm237 0l-1 4-2 2c-1-1-2-1-2-3l1-3h4zm5 1l-5 3v-4l5 1zM80 75l-7 5 2-13 3-2 2 10zm278-9l8 3 5 1-20 6 6-9 1-1zm-1 0l-6 9 1-4v-1l5-4zm-21 0v6l-1 3v-2l1-7zM16 71h-3l-1-5 4 5zm149-2l-1 7-9 2 7-11 3 2zm-34-1h-2l2-1v1zm-1-1l-3 2-16 6-1-5 3-1 17-2zm20 13l-11 3-5-11v-1l1-4 15 13zm-16-13l-1 4-1-3 2-1zm-59 0l-2 13-11-5 4-2 3-2 6-4zm266 7l-4-1v-1l1-4 3 6zm-168-5l-1 2-6-3 7 1zm-63 0h-4a1196 1196 0 004 0zm97-1l1 1-1-1zm-36 3v1l-5-4 5 3zm78-2l-4 2-1-1 5-1zm-116 3l-1 4-3 8-12 1-2-3 13-12 3-2 2 4zm76-1l12 13-6 1-5-2-8-4 4-10 3 2zm41-2l1 2-2 1 1-3zm0 0l-2 4-2-1 4-3zM61 75l-15 9-1 1-3-1 7-15 12 6zm-13-6l-7 15-8-3-7-10 22-2zm300 3l-2 2h-2l3-5 1 3zm-178 0c-1 1-1 3-3 3l-2 1 1-7 4 3zm-43-2l-12 12-4-7 16-5zm-17-1l-4 4-1-3 5-1zm78 5l1 1-8-1h-3l-6-3 1-1 15 4zm-99-4l-7 12-1-7 8-5zm262 0v5l-2-3 2-2zm-241 0v5h-3l-1-2 4-3zm-18 6a1001 1001 0 01-9 6l6-12 3 6zm153-4l-4 3-6-1h-3l11-4 2 2zm-141-2l2 3-2 2h-3l3-5zm-78 1l6 10-3-1-1-2-6-7h4zm370 7l-7 9-1 1-15-1h-7l-1 1 7-17 24 7zm-25-7l-6 17-2 2-5 4-9-4v-1l2-12 1-1 19-5zM229 82l1 1-9 1-11-13 19 11zM21 71l1 5-5-5h4zm230 0l1 5-4-3 3-2zm-74 3l-4-1-2-1 1-1 5 3zM21 75l-8-3 4-1 4 4zm7 4l-6-3-1-5 7 8zm218-7l2 1-3 2h-3l4-3zm102 0l3 4-6-2 3-2zm-246 0l-2 3h-1v-1l3-2zm70 1l-3 1 2-1h1zm-34 10l-8 1 3-11 5 10zm204-7l-7 2 2-5 5 3zm0-2v1l-3-2 3 1zm-91 2l-6-1 3-1 3 2zm-57-1h-4l-1-1 5 1zm-88 0h-2l2-1v1zm134 0l-7 6-2-4v-3l9 1zm-60 0l12 6-12-5-6-2 6 1zm12 7l-6 4-11 8-9-11 6-9 20 8zm-20-8l-6 9-2-3 4-5 4-1zm171 0v1l-1-1h1zm-154 1l1 1 4 4-1 1-13-7 9 1zm159 1l-4-1h1l3 1zm-105 0l-9 5 2-2 5-4 2 1zm-46 0v5l-3-1-4-5 7 1zm-29-1l-4 4v-3l4-1zm-58 0l-1 4-2-4h3zm-3 0l1 5v1l-1 4-4 1h-1l-3-4-1-2 6-5h3zm-35 5l2 2 3 5-1 2-18 15-1-4-18-10 1-3 5-2 5-3 12-7 10 5zm42 2l-3 3-2-5 2-5 3 7zm-11-7l-5 5 1-2 1-2 3-1zm-3 1l-1 1v-1h1zm249 0l-4 1h-1l-1-1h6zm-98 0l-3 1-12 4-2 1 1-2 9-4h7zM98 76v2l-2 2-1-2 1-1 2-1zm-1 0l-3 2-1-2h4zm-17 0l2 6-8-2 6-4zm263 1l-6 1 6-2v1zM94 78l-6 4v6l-5-5 9-7 2 2zm257-2l-3 13-4-12 7-1zm-149 3l-2 4-1-1-2-6 5 3zm-38-3l-1 4-10 1 2-2 9-3zm184 13l-13-11 8-1 5 12zm50-11l-1 1v-1h1zM25 79l4 1-4 12-2-14 2 1zm208 2l-2 1v-4l2 3zm166-3l-1 3-1-2 2-1zm-169 4v-4 4zm-32 0l-1-4 1 4zM98 79v1h-1l1-1zm-4-1l2 2-2 1-4 1 4-4zm302 1v1l-3 4-1-1 4-4zm-182 7h-5-1l-7-3 1-4 12 7zm-60-7l-1 2-2-1 3-1zm243 1l1 2-4 17 2-18 1-1zm-246 0l1 2-2 6-10-4 11-4zm12 0l-2 6-7-4 9-2zM33 82l4 6-12 4 4-12 4 2zm133 1l-3 4-1-1 2-5 2 2zm30-1l-1-1 1 1zm-85 3h-4l2-4 2 4zm285-4l-2 21-5-14 7-7zM97 81l-3 5-2 1 4-6h1zm-15 2l-4 3-4-5 8 2zm115-1l-1-1 1 1zM95 81l-4 5-2-3 6-2zm99 1l-2 13-2 3-14-4 5-4 12-8h1zM41 84l-1 2-3 2-3-6 7 2zm157-2l1 2-1-2zm-37 5l-1 5-5-2-2-8 8 5zm-63-5v4h-1l1-4zm141 7l4 7-12-13 3-1 5 7zm-42-5v3l-5 7 2-12 3 2zm-44-2l2 8-5-2 3-6zm-56 0l-1 4h-1l2-4zm305 8l5 12h-3l-10 1 1-3 3-17 4 7zm-287-8l1 3h-4l3-3zm85 1v1l-1-1h1zm-99 3h-2l-1-3 3 3zm131-1l13 14-8 4-4-12-3-8 2 2zm5 19l-5 2-2-9-1-3-7-8 8-3 7 21zm-32-18l3 1-4 1-4-3v-2l5 3zM88 88l-1 5h-2l-2-10 5 5zm304-4h-1 1zm-218 9l-11-6 3-4 8 10zm52-9l-4 1 4-1zm-27 0l-1 2v-2h1zm-61 0l-11 9 3-9h8zm12 4l-4 10-1-2-6-12 11 4zm-68-4l2 8-2-1v-7zm0 0l-1 6-3-3 4-3zm56 0v20l-13-5 2-5 1-1 10-9zm-47 3l-1 1-1-4 2 3zm-47-2l-4 2 1-3 3 1zm85-1l-2 8-1 2-3 2-6-11 12-1zm14 11l2 4-2 6-4-1V85l4 10zm78-10l-4 2-2-1 6-1zM89 85l1 4-2-1 1-3zm114 3l-4 1 1-4 3 3zm-4-3l-1 3v-2l1-1zm-83 0l7 11-2 2-3-2-1-1-5-9 4-1zm112 8l-11-6 5-1 6 7zm-118-7l-4 2 1-2h3zm106 1l-9 2 2-2 5-1 2 1zm-102 4l2 4-7-4 2-5 3 5zm-7-5l-2 3-3-3h5zm3 0l-2 5-2-1 1-1 3-3zm-5 4l-2 1-4 1v-1-4l3-1 3 4zm-7-3l1 5-4 1 2-6h1zm65 0l-3 4 2-4h1zm-67 0l-1 6-2-3 2-3h1zm103 2h-1l1-2v2zM94 87l-1 2-1-2h2zm-14 3l1 1-1-1-2-3 2 3zm308-2v17l-15-4-3-2-4-12 22 1zm-160 6l-29 14V94l6-3 5-2 5-1 2-1 11 7zm-20-7l-2 3-2-2 4-1zm158 0l3 12-7-3 2-7 2-2zm-168 0l-1 3-5 7 1-3 5-7zM78 88l1 1-2-1h1zm97 6l-6 2-9-4 3-4 12 6zm-83-4l-1 1-1-1 1-2 1 2zm-53-2l-1 1v-1h1zm167 2l-7-1 5-1 2 2zM81 92l-11 6-11 5 18-15 4 4zm-43-3l-9 3a606 606 0 009-3zm116 1l1 1 1 4-6 6-2 2-2-4v-1l4-9 4 1zm-65 0l-1 1v-2l1 1zm300 0l5 13-6 2 1-16v1zm-25-1l-3 7-2-2 5-5zm-165 0v5l-7 4 6-8 1-1zm6 1l-6 4v-4h6zM90 90l-1 3h-1l2-3zm15 0l1 3v2l-3 6-3-3-1-4a348 348 0 006-4zm-12 0l1 3h-1l-1-1 1-2zm66 2l-3 3-1-4 4 1zm-51 0l-1 2-1-3 2 1zm-17 0v1l-1-2 1 1zm11-1l-3 2v-1l3-1zm-12 2h-1l1-2v2zm-8-1s-1 0 0 0zm-36 2l10 6 1 4-16-12 5 2zm70 2h1l2 3-10 4-2-8 1-3 8 4zm-24-4l1 1h-2l1-1zm7 0v2l-3 1-1-2 4-1zm-15 3l1 1-19 6-6 1 21-10 3 2zm81 2l-7 2 1-4 1-2 5 4zm-80-4v1l-2-1h2zm273 1v1l-3-2 3 1zm-190 2l-3 1-4-4 7 3zm-81-3l-1 2-1-2h2zm7 0v0zm-6 1v-1 1zm69 3v-1l2-2-2 3zm-67-3l-1 1v-1h1zm2 0s0 1 0 0zm-5 0v1h-1l1-1zm12 0v4l-2-2 2-2zm130 0l3 12-9 5s-1 0 0 0l10 4 1 1-35-8 30-14zm-53 5l-6-3 5-2 1 5zm-50-4l-1 4-2-2 3-2zm-32-1v3l-2 1-1-3 3-1zm105 1l-1 13-10-4a2207 2207 0 004-6l7-3zm-9 3l-3 3-10-6 13 3zm-3 4l-2 1-8-4h-1v-4l11 7zm174-6v1l-2-2 2 1zm-252 7l-3 1-2-3 3-6 2 8zm-14-7l-1 1v-2l1 1zm-4 2l-2-1 1-2 1 3zm-2-3l-1 2v-2h1zm272 3v8l-2-10 2 2zm8 2l-3 3-5-6 1-1 7 4zm-213-4l1 2-1 2-6 2 6-6zm-69 1l-1 4-6 5 6-10 1 1zm331-1l2 8-11-2 9-6zm-249 1l7 2 1 10-12-12h4zm-11-1l-1 3 1-3zm-37 2l-2 1-1-3 3 2zm71-1l-1 1 1-1zm-93 4h-2l-3-2v-1l2-1 3 4zm0-3v2l-2-3 2 1zm25 1l-2-1 1-1 1 2zm-36-1h-1 1zm89 11l-3 2-16-11 7-2 12 11zM91 99l-3 2-1-1 1-2 3 1zm275 4l-4 4-1-9 5 5zm-242-4v1l-2 1-2-1 2-2 2 1zm-31-1v1-1zm10 4l-1 1-2-2v-2l3 3zm54-3v1h-1l1-1zm-65 0l1 1-1-1zm54 0l1 5-4 1 3-6zm99 1l-4 16-4-12 8-4zm-60 3l-7 6-2-9 9 3zm-87-1h-2l-2-2h-1l5 2zm-7-2l1 3-3-2 2-1zm173 27l-22-10 4-17 18 27zm-126-23v9l-11-8-2-5 13 4zm-12 0l-4-3 3-1 1 4zm31-4l4 11h-10l5-10 1-1zm-36 1l-10 6-1-4 8-3h1l2 1zm-28 0l-1 1v-2l1 1zm329 5l-1-1-1-5 2 6zm-53-6l-1 5-2-2 3-3zm-179 0l-2 4h-1l3-4zm-20 9l4 3-13-1-3-11 12 9zm-15-8l-4 9-3-6 2-1 5-2zm-60 1l-3 1 1-2 2 1zm-9-1v0zm39 4h1l4 15-3 2-2 1h-13l-5-4-1-2v-8-1h5l4-3 6-3 4 3zm-33-1l-4-1v-1l4 2zm-6-2l-1 1-3 2 4-3zm101 0l-1 1 1-1zm-81 2h-2l-1-1v-1l3 2zm-7-2l1 3-3-2 2-1zm321 1v0zm-1 7l-1 10-16-8 6-9 11 7zm-13-7l-4 2-7-2h11zm-319 0h-1 1zm14 2l-1-2c1 0 2 1 1 2zm-2 0l-6-1 3-1 3 2zm321 1l-1 3-10-6 11 3zm-13-3l-5 8v-5l1-1 4-2zm13 2v1l-8-3 8 2zm-234-2l-1 1 1-1zm-77 0l1 4-3-3 2-1zm259 2l-6 2 4-4 2 2zm-281-1l1 7-2-8 1 1zm313 1h-4l-2-1 6 1zm-5 0h-6l5-1 1 1zm-209-1l-5 8-3-3 8-5zm-82 0l-1 1-1-1h2zm-16 0l5 12-4-3v-1l-2-8h1zm-3 0v7l-6-3 6-4zm63 0l-4 4-1-2 5-2zm-56 0l1 10-4-10h3zm145 0l4 13-7-2-2-8 5-3zm-49 0l-4 5 3-5h1zm-79 2l-4-2h1l3 2zm88 2l-14 4 5-8 9 4zm-104-3l7 1 1 1-1 4-7-6zm55 0l3 6-6 1-1-3 4-4zm-6 1l1 2v1l-5 4 1-9 3 2zm-43 5l-1 6-4-1v-3l-2-9 7 7zm6-6l4 2h1l-4 1h-1l-2-3h2zm-17 7l-3-1 1-6 2 7zm309-5l3 4-5-3-6-3h6l2 2zm-295-2l2 2-2-1v-1zm300 0l-1 6-5-6h6zm-216 1l-3 6h-2l5-6zm-59 0l11 8-7 5-4-13zm241 0l-6 23v-5-16l6-2zm53 1l1 2-1 2-1-1v-4l1 1zm-317 1l1 1 1 8-3-2-1-7-1-2 3 2zm318-1v0zm-190 0l1 7-10-3 9-4zm191 3v-2 2zm-320 4l-3-3 1-3 2 6zm-18-3l-1 3-4-5 5 2zm149 6v1l-3 43h-4l-21-10-1-1-2-5-3-5-1 1v-32l35 8zm-36-8v32h-2l-2-3-12-24 1-2 15-3zm-54 0l1 3-6 2 5-5zm34 3h-3l2-2 1 2zm-94 5v2l-1 10-4-20 5 8zm338-7l1 2-2-1 1-1zm-1 1l-3 8a877 877 0 003-8zm-337 4v2l-3-7 3 5zm96-3h-1l-1-1 2 1zm-19 0l3 8-1 1-13 5-5-13 5-2h2l9 1zm262 0l-4 7 2-8 2 1zm-250 0l-9 8-2-8h11zm-85 1l1 7-4-5v-3l3 1zm15 2v1l1 4-6-2 2-6 3 3zm79-2h-1 1zm-3 0l1 2-4-2h3zm-4 0l4 2 1 1-15 4a3137 3137 0 0010-7zm6 0v1l-1 1-1-2h2zm-31 13l-15 10-4-16 7-5 2-1 5-1 5 13zm-56-10l-4 4-1-6 5 2zm88-1l13 26-28 3-3-24 5-1 9-2 3-1 1-1zm58 2l2 1 16 22-1 2-22-25-1-2 6 2zm-151 3l-1 3-3-5v-2l4 4zm16-3l1 1v3l-1-1-1-4 1 1zm-7 1l-1 3-6-1h-1l4-3 4 1zm140 3l19 22-25 17 2-43 4 4zm26 6l-6 13-16-22 22 9zm-160-6l1 1-8-1 1-3 6 3zm6 2l-3-2-1-2 4 4zm-22 1l-4 7 1-12 3 5zm42-4l5 16 1 3 5 13-17-4 3-24v-1l3-3zm34 1l2 22-8-8-8-8 14-6zm-67 1l-3 10-3-11 6 1zm-7-1l3 10-5-7 2-3zm16 0v1h-1v-1h1zm3 2h-2v-1l2 1zm-4 0l2 7 4 9v11l-8 4-9-20v-2l3-10 8 1zm1 0l1 4-1-4zm5 1v11l-4-6v-6l4 1zm15-1l-2 25-4-1-8-11v-12l14-1zm-33 10l-8-2 3-7 5 9zm64 1l9 10-17 3 1-20 7 7zm-7-7l-1 20-14-10 15-10zm136 9h-3l-2 1-20 9-1-4v-3l5-11 21 8zm-193-2h1l8 20-17 9-6-21 2-3 3-7 9 2zm18 2v1l-2-4 2 3zm148 5v-1l3-7-3 8zm29-4l1 4-5-4h4zm-5 0l7 16-29-7 22-9zm-164 10h-3l-4-8v-2l7 10zm30 0l-1 6-6-1v-1l-6-13 13 9zm140-6l1 2 3 9-8-14 4 3zm3 1l4 4-5-4-2-3 3 3zm-180-2l3 7-1-1-2-4v-2zm182 14l-3-1-6-13 9 14zm-35-13l-1 1v-1h1zm-61 0l-2 1v-1h2zm2 0l4 9-5-2v-5l1-2zm-1 0v0zm-4 0l1 1-8 3h-2l-16-1 8-1 17-2zm2 3l-1-2 2-1c1 2 0 2-1 3zm-85-2l2 5 1 2-3 1v-8zm147 0l2 4-3-3 1-1zm-1 0v0zm33 1l6 12-2-1-1-1-4-11 1 1zm-95 0l1 2-3 3-1 1-5-4 8-2zm62 1l-3 5 2-6 1 1zm34 0l6 5 2 8-2-2-1-2-5-9zm-35-1l-3 6-1 1-14 8-2 1-5 1 11-7 14-10zm-58 0v4l-2-2 2-2zm61 3l-5 3 3-5 2 2zm-73-1l-1 6-18 5-1-12 20 1zm-20 11l-2 1-3-1h-3l-6-5-4-4 17-3 1 12zm31-8l-3 1 2-4 1 3zm-5 1l-6 2 1-5 5 3zm68-2l10 25-20-16 3-4 6-6 1 1zm30 7l7 16-36-23 29 7zm-173-7l2 1h-3l-1-1h2zm180 24l-11 14-15-11-1-3-9-24 36 24zm-40-23l-4 3 1-1 3-2zm-100 7l-10-2 1-5 9 7zm-36-7v3l-1-3h1zm2 1l-1 1v-2l1 1zm-8 0v-1 1zm83-1l5 8-10-6 5-2zm-72 1l15 3 3 8-21-12 3 1zm-7-1l3 5-5-4 2-1zm84 3l1 1 3 7-3-2-5-8 4 2zm-59 10l1 2v4h-9l-12-12-1-3v-3l21 12zm-23-9l-3-1-2-2 5 3zm-6-3l2 3-6-2 4-1zm191 11l-6-3-2-7 8 10zm-103-3l2 3-21 2 9-12 10 7zm-11-7l-8 12 2-11 6-1zm-75 3l2 2-13 2 5-7 6 3zm194 6l6 5-8-3-2-2-8-8 12 8zm-59-9l-1 3-4 3-1 1-8 2 14-9zm-130 1v0zm-12 0l-4 6h-3l-1-3 8-3zm114 10l-16-1-1-2-3-7 20 10zm-39-9l-2 10-16 2v-7l18-5zm-64 1l1 1-4-2 3 1zm25 1l-1 7-1-2-3-6 5 1zm-25 0l-1 1-1-1h2zm172 0l3 13-6-13h3zm-136 2l1 1 3 3-2 3-10-1-3-1 1-7 10 2zm-33 0l2 6-4-5 1-3 1 2zm127-2l-1 2h-2l3-2zm46 2l4 9 1 3-2 4-2-2-1-1-3-14 3 1zm-194 1l-14 8-5-2 4-2 14-6 1 2zm19-2l-1 1 1-1zm-2 1l-12 7-3-4 1-2 12-2 2 1zm15 11h-4l-6-11 10 11zm164-10l3 8-5-9 2 1zm-49-1l1 23-14-13 10-9 3-1zm-87 1l-1 2-4-3 5 1zm-42 1l-6 15-7-10 12-7 1 2zm149 15l-18 6-2-22 20 16zm-103-9l-4-3v-4h3l1 7zm79-7l-10 9-4-4 4-2 2-1 8-2zm-120 5l1 3-6-8 5 5zm179-3l2 2 7 8-11-2-3-10 5 2zm-174 8l-2-1-2-3-1-2-1-3 6 9zm-26-9l-1 1v-1h1zm58 0v2l-1-1 1-1zm-59 1l-6 9v1l-8-4 13-7 1 1zm103 1h-1l-1-2 2 2zm-103 0l3 3-8 5 5-8zm131 0l-3 2-1-1 4-1zm-72 1v3l-3-1 2-3 1 1zm61 0h2l4 2-1 1-9 17-2-3-11-17 1-1 16 1zm-17-1v1l-1-1h1zm-1 1l-18 20-4-18 22-3v1zm112 5l6 4-7-1h-2l-7-8 10 5zm-88-5v1l-3-1h3zm-64 3h-3v-3l3 3zm-19-2h-1v-1l1 1zm84 0v0zm-12 19l-6 5h-1l-24-4 19-20 12 19zm-69-17l5 3h-9l-1-5 3 1 2 1zm86 2l-7 7 1-8 2-2 4 3zm-77-2l-2 3-8-4 10 1zm24-1l4 18-20-17 16-1zm-94 3l-7 3 2-6 5 3zm74-2l-1 18-5-14v-1l2-3h4zm-48 9l-16-4 9-5 7 9zm51-9l2 1 19 17 3 5 6 12h-1l-33-15 1-20h3zm-83 0l-1 6-9 4-5 3 15-13zm44 0l3 3h-2l-1-3zm102 2v6l-1 1-6 6v-1l7-12zm-132 3l-2 1-14 3 1-3h1l6-4 8 3zm230 1h-2l-4-3 6 3zm-76 9l-24 10 2-16 1-1 6-5 15 12zM42 169l-3 3 1-5 2 2zm116-2l5 16-16-7v-9h11zm-12 0l1 8-4-2-6-6h9zm-4 6l-8-4-2-2h5l5 6zm-10-5l-1-1 1 1zm-85 2l-3-1-2-1 5 2zm267-1l2 1 5 5-8-3-8-4 9 1zm5 6l3 2 8 8-7-3-21-10 2-4 15 7zm6-5l-4 6-5-7 9 1zm-282 0v1l-4 5h-1l5-6zm99 4l1 1 2 2-10-6-1-1 8 4zm187-4l2 3-4-2 2-1zm-232 0l-17 11 2-7 9-3 6-1zm-47 3h-2l-3-3 5 3zm32-3l-1 3-8 3 9-6zm244 1l4 9-8-4 4-5zm-25 1l-9 16-4-3 10-14 3 1zm-260-1l-3 5 1-3 2-2zm6 3h-1l-2-3 3 3zm287 1l-2-2-2-2 4 4zm-3-2l1 2 2 5-7-9 4 2zm-288-2l1 3-4 2 3-5zm290 8l3 4-5-2-1-3-3-6 6 7zm-2 7l2 2 1 2v3l-19 10-19-9-1-2-3-4 9-16 30 14zm9-7l-4-3-4-4 8 7zm-290-6v1h-1l1-1zm-5 1v-1 1zm100 3l2 2 5 5-3-2-11-9 7 4zm-94-4v3l-1-1 1-2zm220 1l8 22 2 6-3 17v1l-15 3-12-20-1-2 3-21v-1l18-5zm16 11l-3 4-2 7-1 5-9-27 15 11zm-58-11l-1 15-10-2 3-5 1-2 7-6zm-181 0l1 1v2h-1l-2-3h2zm-10 0l-1 2h-1l2-2zm43 0l-2 7-9-4 5-1 6-2zm254 2l3 3 6 7 1 6-2-1-1-1-4-6-3-3-3-7 3 2zm-188 0v1l-3-2 3 1zm-100 1l-1 1-1-3 2 2zm-3-2l1 3h-1l-5-1 2-1 3-1zm8 1l-1 1-1-1h2zm-2 0v1h-1l1-1zm113 8l-8 3-7-9-1-2 16 8zm-126-7l-1-1 1 1zm15 0l-1 1v-1h1zm-14 0v1l-1-1h1zm292 4l1 1 2 5-4-3-6-7 7 4zm14 1v3l-7-8 7 5zm-293-4l-2 3v-1-1-2h1l1 1zm-7 1l-4 1-2-2 1-1 5 2zm-6-1l-1 1-1-2 2 1zm11 0l-1 1v-1h1zm-12 1l-2 3-1-1 1-4h1l1 2zm-3-2v4l-3-3 3-1zm18 1l1 3-1-2v-1zm-18 4l-7-4h4l3 4zm44-1l-12 1-1-1 2-2 2-1 9 3zm-11-3l-3 2-2 2h-6l11-4zm-19 1h-2v-1h1l1 1zm-14 3l-2 1-9 3 3-8 8 4zm6-2l-2 1-1-2h1l2 1zm5-1l1 4h-2l-3-3 3-1h1zm17 0l-8 3v-1l8-2zm-11 0l1 2-2 1 1-3zm0 0l-1 2-1 1 2-3zm-3 1l-1 1-1-2 2 1zm204 0l-2 22-22-13 24-9zm-214 1l-3 1 2-2 1 1zm10 1v-2 2zm-8-2l4 3h-5l-1-2 2-1zm7 1v0zm289 3l1 1-2 3-2-1-2-6 5 3zm-257-2l-8 11-6-11h14zm-40 1l-3-1 2-1 1 2zm14-1l-4 1 4-1zm167 0l-3 5h-3l6-5zm-7 5l-16 12-8-17 24 5zm-133-5l19 17-12-1-7-16zm-15 1l5 11-1 2-4-4-1-10 1 1zm-1-1v10l-4-4v-1l2-3 2-2zm-2 0l-4 4-3-3 7-1zm17 0v15l5 17v1l-3 3h-1l-4-14-5-10 8-12zm7 16l-7-1 1-14 6 15zm-28-11h-1l-2-2-1-2 4 4zm-5-4l-4 3v-3h4zm-14 0v1l-3-1h3zm-5 0l2 7a2752 2752 0 01-13-4l11-3zm19 0l1 5-1-1-4-1 4-3zm-10 1l-4-1 4 1zm-4 0l1 2v1l-5-4 4 1zm124 0l26 12 4 2-3-1-29-8-5-2 7-3zm-124 4l-1 2h-1l-3-6 5 4zm9-4v0zm-1 0v2l-2-2h2zm-3 0l2 1-3-1h1zm4 1h-1v-1l1 1zm-7 0v1l-1-2 1 1zm304 2v-2 2zm-305 0l-1 1-3-3 4 2zm5-1l2 1-5 1-1-2 1-1 3 1zm293 0l2 4-1-2-2-3 1 1zm-278-1l-1 2 1-2zm-3 3l-1 1-2-1v-3l3 3zm234 0l-2 3-5-2 3-4 4 3zm-244-2h-2 2zm292 4l-3-2 1-2 2 4zm-317-3c-1 0 0-1 0 0zm320 4l-2-1-1-3 3 4zm-290-4l-3 1v-1h3zm294 1l1 4h-2v-5l1 1zm-129 0l-5 8-1 1-13 2 15-12h1l3 1zm-158 0h-1l1-1v1zm274-1l1 1-1-1zm-293 0v0zm-18 1l-3 8-2 5 1 1h-3l5-15 2 1zm32 1v1l-3-2h2l1 1zm-5-1h-1 1zm-1 0v1l-4 1 3-2h1zm-6 0v2l-1-1v-1h1zm-5 2v2l-2 4-1 5-14 1-2-1 4-13 15 2zm298-2v1l-1-1h1zm-271 5v1l-6-4 1-2 5 5zm-18-5l-3 2-1-2h4zm305 6l-4-1-1-5 5 6zm-293-5h-1v-1l1 1zm-7 0l3 1v4l-2 2h-1l-1-7h1zm288 1l-2 1-2-2 4 1zm-283-1v1l-2-2 2 1zm-16 0v1h-1l1-1zm255 5l-5-2 2-3 3 5zm-246-5l1 4-1-4zm6 1l-1-1 1 1zm-7-1l2 6v1h-8l1-5h1l4-2zm-6 1h-2v-1l2 1zm15 0l-1 1v-1h1zm232 2l-2 4-3-6 5 2zm-39 10l-10 9-12-21 22 12zm86-10h-1v-2l1 2zm-50 4l-4 7v-2l2-11 2 6zm-248-5l-1-1 1 1zm23 2l-4-2 1-1 3 3zm-6-2l-1 2v-3l1 1zm-16 0v2l-1-1 1-1zm303 4l-4-3 1-1 3 4zm-300-4l-3 2 1-2h2zm297 0l-1 1-1-1h2zm-283 0l-2 3 2-3zm287 2l1 1 1 2 1 2-2-2-3-5 2 2zm2-1v1l-2-1h2zm-7 0h-1 1zm-43 2l1 1 1 2-6-4-2-1 6 2zm-99 6l2 1-27-9 25 8zm-134-6l2 1-2 1-5-4 5 2zm-21-2l-2 4v-2l2-2zm296 1l-2 3v-3l1-1 1 1zm-276 3h-6l2-4 4 4zm286-3l1 2-2-1-1-2 2 1zm-305 0v0zm-4-1v2l-2 1 2-3zm304 4l1 2 2 5-7-10 4 3zm-46 1l2 1 4 5h-13l-2-7 2-3 7 4zm-229-2l-2-1v-1l2 2zm285 0l1 3-5-3v-2l4 2zm-18-2v4l-8 11-10-5h1l17-10zm11 2l-1-2 1 2zm1 9l-8 7-4-1 1-13 2-4 9 11zM41 193v3h-1l1-3zm14 1l-1 2 1-2zm293 2l1 5-3-5v-2l2 2zm-310-2v2h-2l2-2zm33 1l4 8-5-3-1-3 1-2h1zm244 8l-2 1h-4l-1-1-9-5-2-3 18 8zm-247-6c-2 0-2-1-3-2l3 2zm-29-2v1h-1l1-1zm316 4l-2-1v-2l2 3zm-291-3v1l-1-1h1zm296 6l-3-1-1-2-2-3 6 6zm-8-4l1 1 4 16-2-3-3-4-4-12 4 2zm-3 2l-3-2v-1l3 3zm-63-3l3 6h-7l3-5 1-1zm-234 0l-1 1v-1h1zm-3 0l-7 3v-3h7zm-8 0v2l-1-2h1zm-2 0l-1 2v-2h1zm-1 0l-1 3-2-3h3zm307 2l1 3v1l-2-6 1 2zm-276-2v1l-2-1h2zm-1 2v2l-2-4 2 2zm-4-2l1 3-3-3h2zm-3 0l4 4 1 2 2 9-14-8v-4l7-3zm-1 0l-6 2v-2h6zm-7 1l1-1-1 1zm-3-1l-1 3-2 3-5-2 8-4zm-9 3l-4 1 2-4 2 3zm27 1v3l-2-3-1-4 3 4zm-17-3l-1 1 1-2v1zm158 0l-10 4-1-2 11-2zm-123 0l3 6-9-6h6zm-50 3h-1v-3l1 3zm298-3v12l-7-2 7-10zm-245 7l-4 8-5-15 9 7zm-35-7v1l-2 1 2-2zm254 6l-6-1-3-5 9 6zm-209-4l-10 4-2-5 12 1zm-48-1l-1 2 1-2zm305 2l4 7-3 7-3-16 2 2zm-7 1l-1 1-2-4 3 3zm-279-1l1 4-2-3v-3l1 2zm-19-1v0zm24 4l-2 3-3-7 5 4zm-21-4v3l-1-1-1-1 2-1zm45 1l-10 10 1-6 9-4zm262 3l-1 3-4-6 5 3zm-13-1l-1 1-1-3 2 2zm-296-2v1l-1-1h1zm-6 2l-4 4v-6l4 2zm-5 1v3l-2 2v-2l2-6v3zm-1-3l-3 2v-1l3-1zm-4 0h-1 1zm14 0l-1 2 1-2zm-16 0l-1 1-10 1-3-1 14-1zm34 3v8l-2-10 2 2zm-16-1l2 5-3-3v-3l1 1zm-16-1l-1 2v-2h1zm-2 0l-1 4-2 2-7-4 10-2zm-13 1l2 1 1 3-3-2-2-3 2 1zm329-1l1 5-2-4 1-1zm-252 0l-10 15v-5l1-1 9-9zm-78 2l-4-2h2l2 2zm243 19l-3 1-2-1-18-12 10-9 13 21zM72 208l-3-4v-1l3 5zm-24-5v1l-1-1h1zm-11-1v2l-1 1 1-3zm2 1l-1 1 1-1zm1 0l-1 4-1-1 2-3zm-1 0l-1 2 1-2zm250 0l1 3-7-3h6zm-5 2l9 10 2 5h-17l4-17 2 2zm64-2l4 6 2 6h-1l-6-11 1-1zm-24 4l-5-1-2-1-3-1 1-1 9 4zm-288-4l-1 3 1-3zm266 1l4 6-2 1-13-5-1-3 12 1zm-248 0v3l-1-4 1 1zm-4 1l-1-1 1 1zm0 1v4l-9 5 1-6v-2l5-3 3 2zm-30-1l2 3-5-4 3 1zm269 1l1 1 3 7-4-4-6-6 6 2zm24-2l-2 1-1-1h3zm-2 1l-4 4-4-5h5l3 1zm-274-1v1l-2 2v-1l2-2zm280 2l-3-1v-1l3 2zm-249 7l-2 8-3 1h-2l-10-3v-8l4-2-1-5 14 9zm-37-4l-2 1-3-2-1-1-1-3 7 5zm331-4l2 7-3-4 1-3zm-16 0l6 10-13-4 7-6zm-33 0h-1 1zm-237 0l3 11-5-7 2-4zm-4 3l-3 4v-7l3 3zm10-3l3 8v1l-2-4-1-5zm-30 2l-1-2 1 2zm-15-2v2l-2 4-1-1 1-2 2-3zm275 1s0-1 0 0zm-1 0l1 1-4 4-1-1 4-4zm7 1l2 1 3 1-8 3-2-4v-2l5 1zm-5-1v1-1zm-239 0v2h-1l1-2zm-39 0l-1 1 1-1zm19 3l-3 1v-4l3 3zm-29 2l-3-5 3 5zm279 1l-7 6-3-3-3-8 13 5zm-266-5v3l-2 1h-1l3-4zm-4 0v2l-1 1-1-1 2-2zm-9 2l2 3-4-5 2 2zm64-2l-1 4-2 3v-2l3-5zm236 1l-2 1-3-2 5 1zm43 11l-3-5-1-3-1-4 5 12zm-56-11v1l-1 4h-1l2-5zm0-1l-3 6-1-1 4-5zm-271 1v7l-2-6 2-1zm-9 0l-1 1 1-1zm302 2v4l-7-3v-3l7 2zm29 2l1 3 1 5-7-4 2-8 3 4zm-37-2l-2-1 2-1v2zm-254-2v2l-2 4-1-1 2-3 1-2zm-43 2l-2 2-1-4 3 2zm286 2l-3 1 1-4 2 3zm-236 5l-7-3 1-5 6 8zm-48-8v2l-1-1 1-1zm295 2v3l-10-1h-1l8-4 3 2zm-287-1l1 4-3-2 2-2zm-5 0h-1 1zm-1 0l-2 1 1-1h1zm324 6l-3-1-1-5 4 6zm-49-4h-1l-2-1 2-1 1 2zm-274-1v2l-2-1 1-2 1 1zm304 0l-4 3v-4l4 1zm-300-1l-1 2h-1l2-2zm-8 1v1h-3l2-1h1zm20 8l3 5-3 1-8-8-1-2 3-1 6-3v8zm283-5h-6v-3l6 3zm19 1l3 5-1 4-5 10-15-19 4-4 14 4zm-321-3h-1 1zm-5 1l-1-2 1 2zm227 8l6 3-3 1 8 4 2 1-10 3-5 2-15 3 4-26 13 9zm54-8l-2 3h-1l-5 3h-1l7-7 2 1zm-235-1v2h-1l1-2zm-35 1v1l-2-2 2 1zm-4 0h-2v-1l2 1zm275 0v-1 1zm-220-1l-1 5-1-3 2-2zm-53 0l1 2-4-1h2l1-1zm280 1h-1 1zm-6 0l-3 3 2-3h1zm-269 2l-2-2 2 2zm271-1h-2 2zm-273 0h-1v-1l1 1zm32 0l-1 3v-3h1zm256 0l1 20-11-20h10zm-11 0l11 21-15-8-2-2 2-11h4zm-247 0v5l-1 2v-1l1-6zm-35 0l-4 1 1-1h3zm301 1l15 20-1 2-10 12-2 3-1 4-1 4-4 1-3-25v-6-16l7 1zm-23-1l-2 9a791 791 0 012-9zm-225 3l-1-2 1 2zm-15-2l-1 6-1 1v-2l2-6v1zm-35 0l1 1 6 10-14-11h7zm4 0l1 1-1-1zm0 1l1 2 3 7-7-10h1l2 1zm269-1l-1 10-4-2 4-6 1-2zm-230 3l-8 3 1-6 7 3zm275-2v2l-1-3 1 1zm-267 2h-5l2-2 3 2zm281 3l-2-1-1-4 3 5zm-61-4l-3 6-3-1 4-4 3-2-1 1zm50 0a2324 2324 0 003 12l-4-7-2-6 3 1zm-60 2l-1 1-2-4 3 3zm9-3l-3 3 3-3zm60 4l1 6-1 1-1 4-2-1-5-13 8 3zm-62-3l-3 5-3-3 6-2zm-254 8l-5 2-3-9 8 7zm31-7l-12 11 1-1 1-5v-1l8-4h2zm5 0l-10 7-4 3h-1l2-2 9-8h4zm214 4l-4-2h2l2 2zm-239 0l-3 1-5-3 8 2zm-4 1l-4 1-2-4 6 3zm239-2l4 2-9 4-4 1-20 1-3-5 13-3h4l12-1 3 1zm73 1l-2 3-1-4 3 1zm-12 1l3 6-5 9 1-17 1 2zm-289-2v1l-2 1 2-2zm-2 0l-1 2-3-1 4-1zm289 1l-1 17-2 4-2-7 1-3 4-11zm-285 0l-1 4v-3l1-1zm-6 1l-2 3-4-3h6zm236 0l-1 4-3 1h-6l10-5zm-232 0l1 5h-1l-2-4 2-1zm233 5l-2-1 2-4v5zm68-5l9 27-5-6-3-9-1-4v-8zm0 0l-1 8v-4-1l1-3zm-66 1v1l-1-1h1zm-237 2l1 2-1 1-4-3 3-2 1 2zm-5 0l-5 5-2-6 3-1 4 2zm247-1l-1 1-3-2 4 1zm-5 0l-1 1v-2l1 1zm-40-1l3 4-6-4h3zm44 2h-1l-2-1 3 1zm-41 3l-9-4h2l7 4zm40-3l-1 1c-1-1-2-1-1-2l2 1zm-251 4l-4-5h2l2 5zm247-3v-1 1zm2 0l-1 1v-2l1 1zm4 0v1l-1-2 1 1zm-2 0l2 2v2l-1-1-2-3h1zm-241 2l-8 2 5-4 3 2zm245-1l4 4-4-3-1-2 1 1zm57-1l1 5-3-1 2-4zm-61 3a107 107 0 00-3-2l1-1 2 3zm-5-2l-13 3 1-2 6-1h6zm15 2l11 6-11 25-1 2-3 3-9-5 5-12 4-8 4-7-2-2-3-4 5 2zm-14-1l6 17v1l-6 14-12-6-2-1-5-11v-2l5-6v-4l14-2zm-233-1l-1 2v-1l1-1zm216 1l-7 1-1 3h-1l-6-2-3-2h18zm-218 0c1 0 1 1 0 0zm242 2v-2 2zm-5 0l1 6-3-8 2 2zm-16-2v2l-5 1h-2l7-3zm-2 0l-6 2-2-1 8-1zm20 1l1 1 2 2-6-4 3 1zm-239 0l-7 1 6-2 1 1zm247 3l-4-2-1-2 5 4zm48-3l2 4 1 2-7 6 2-12h2zm-54 4v9l-4-13 4 4zm-40-3l4 4-17-1 2-1 9-3 2 1zm97 0l-1 2-1-2h2zm-57 0v1l-1-1h1zm-33 2v1l-2 1-4-4 6 2zm5-1l-1-1 1 1zm30 2l-1-3 1 3zm58-2l-3 3-1-1 1-2h3zm-80 0l-1 3-4-2 5-1zm-9 0s-1 0 0 0zm-1 0s0 1 0 0zm81 0l-3 10-1 4v-6l1-3 3-5zm-44 2l-5 1v-3l5 2zm-33-1h-2v-1l2 1zm-2 0h-1v-1l1 1zm-2 0h1-1zm80 7v3l-3 3 4-13-1 7zm-72-5l-4-1-1-1h1l4 2zm-9-2l-1 1 1-1zm3 0l1 1h-2l1-1zm92 10l-3-3-1-2 1-4 3 9zm-4-10v5l-2-2 2-3zm-89 2l-2-1h2v1zm31 0l-1 8v-9l1 1zm-33-1l-1 1-4 3 1-3 3-1h1zm39 0l-7 12 1-11 6-1zm-44 1l-8 7-3 3-1 2-6-12h18zm-19 0l-12 11-15-2 9-5 4-1 14-3zm113 0v0zm-106 12l-18-1 2-2 9-9 7 12zm18-12c0 1 0 1 0 0zm9 1l-5 5v-6l5 1zm-6-1v4l-1-3 1-1zm-9 0v3l-6 3 6-6zm80 8l-3 7h-3l4-14 2 7zm-3-7l-3 14h-2l-7 2 12-16zm-69 1l-1-1 1 1zm0 1c-1-1-2-1-1-2l1 2zm-2-2l-2 1 2-1zm87 0l-1 2-6 9v-4l4-4 3-3zm-87 1l3 3a141 141 0 01-4-3h1zm49 0l2 24-9 3-4-1 5-11 6-15zm-52 0l-3 2 3-2zm92 3l-1 10-8-2 8-11 1 3zm1-1l-2-1 2 1zm-92-1l4 5-9 18-2-3v-1l3-17 4-2zm5 3l-1 1-3-4 4 3zm-9-2l-1 1-2 1 3-2zm100 6l2 5-5-9-1-2 4 6zm-101-5l-3 17-6-12 2-1 7-4zm-38 0l-7 3-1 1-3-1 11-3zm121 0v7l-1-3v-1l1-3zm21 11l-8-1 1-9 7 10zm-93-7l-1-1v-1l1 2zm1 2l2 9-14 6 9-18 3 3zm75-2l-1 4-3 2 1-3 3-3zm-134 0l-5 3 2-3h3zm128 0l1 3v2h-4l3-5zm-111 2l-13 12-2 1h-15l7-11 6-3 2-1 15 2zm-21-2l-2 3-9 4 6-3 5-4zm158 7h-3l-2-5 5 5zm-110 7l-1 6-7-17 2-1 6 12zm17-10v4l-2-6 2 2zm-26-1l-6 7-11-8 17 1zm-6 8l-7 7-4-15 11 8zm-7 7l-18-3 13-13 5 16zm14-15l7 17-13-9 6-8zm94 1v1h-1l1-1zm-136 0l-7 10v1h-9l4-5 1-1 11-5zm148 2l-1 11-7-12 8 1zm-2 11l-12-3 5-9 7 12zm-7-12l-4 7-2 2 1-3 2-4 3-2zm-3 0l-3 3-3 2 4-4 2-1zm-3 1l-4 4 2-4h2zm-64 4l-1 1-1-5 2 4zm61-4l-1 3-2 3 1-6h2zm27 2l-10 9 1-11 9 2zm-29-1l-1 5-5 2-4-6 10-1zm32 0l2 7-4-6 2-1zm-25 0l-2 6h-2l3-4 1-2zm-65 3h-1v-2l1 2zm98 7l13 18-7-4-1-1-9-13-2-3-1-6 7 9zm-11-9l7 17v1l-15 15-2 1-20 3h-1l-8-13 14-15 2-3 9 3 4 1 10-9v-1zm-24 1l-3 3h-2l5-3zm-15 0l3 5-4 1 1-6zm-131 1l-3 5h-12l15-5zm175 5l2 8-5-13 3 5zm-85 4l-6-5-1-3 7 8zm7-1l-1 3h-4l-8-10 13 7zm-35 2l-20-2 6-7 14 9zm20-9l1 3-2-2 1-1zm-2 1l-3 1 3-1zm61 0l1 2-3 5 1-5 1-2zm2 1v1l-2-2 2 1zm-60 1l1 1 4 13-3 4-17-9-2-5 15-6 2 2zm57-1l-2 7-3-6 5-1zm6 1l-2 2-1-2 1-1 2 1zm-12 0l4 6-10 8-1-1 3-11 4-2zm10 3l-5 3 3-5 2 2zm-79 0l2 6-4-3 1-5 1 2zm-43-2l-10 15-6-15h16zm19 4l-11 14-7-18 18 4zm-39 1l-10 11-3-6 8-10h9l-4 5zm88 0l1 1-3 6-4-12 6 5zm-67-5l6 18-17-2 11-16zm-27 0l-7 10-4-9 11-1zm15 16h-18l13-16 5 16zm-27-15l4 10-21 6 13-13 4-3zm145 0l-2 10-2-3v-5l4-2zm57 14l-8-4-2-10 10 14zm-79-8h-1l-10-1 2-3 9 4zm17-4l1 5-6-1-3-1 8-3zm19 0l-8 7 3-4 2-1 3-2zm-99 1l18 2h1l5 3 7 21-16 11h-2a13235 13235 0 00-18-4l-9-18v-1l11-14h3zm-55 6l-1 1-2-7 3 6zm125-4h-2l-1-1 3 1zm-3 1l-2 1-1-1 2-2 1 2zm1 0h-1v-2l1 2zm12 2l-9 2-2-4 2-1 9 3zm-28-2l-2 3-2-4 4 1zm44 0l-4 4-5 5 2-3 3-3 4-3zm-34 1l-2 1-9 2v-1l1-3 10 1zm-12 2l-1 4-3 2 2-9 2 3zm20 1l-3-2v-2h1l2 4zm22-4l-7 8-1-2 8-6zm-25 2l-2-1h2v1zm-20-1l-2 8-1-3 1-2 2-3zm45 0l-2 4-5 3 2-1 5-6zm-29 0h-1 1zm2 0l1 4-11 3h-1l5-4h1l5-3zm2 1v3l-2-4 2 1zm-26 9l-4 8-1 1-4 2-8-20 17 9zm40-9l-2 6-7-3v-1l9-2zm-21 1l-2 1-5 2-1-1 8-2zm10 1l-3 1v-2l3 1zm13 2l-1 2-1-5 2 3zm-2 2l-1 1h-1l2-6v5zm-31-4l1 1-2 1 1-2zm-105 0l3 5v2l-4-6 1-1zm189 1l10 14v1l-7 22-5-2-14-20 16-15zm-63 0l5 7-6 5-2-7v-4l3-1zm71 4l2 2 2 3-2 5-4-7-5-7 7 4zm-85-4l-3 3-1-1 4-2zm-113 0l-4 30-9 1-9 7 1-4-4-4-4-4-3 2v-2l10-20 1-1 21-5zm108 2l-4 1 3-3 1 2zm26 2v2l-2 1-4-7 6 4zm-131 2l-1 6-3 17-3 1 4-30 3 6zm137-5l-1 1v-1h1zm-17 4l1 9-3 2-10-12 11-3 1 4zm22-4l-3 4v-1l3-3zm-45 0l1 4 1 1-1 1-3-1 2-5zm41 2l-2 3-1-3 2-1 1 1zm-31 0l-2 1h-4 1l4-2 1 1zm28 1v1l-2-1h2zm-2 0l-2 1 1-1h1zm-15 12l-3 2-1-1-8-13h1l11 12zm-80-9l-8 10-3 5-6-18 17 3zm-17-3l5 18-24-17 19-1zm117 0l1 1-1 2-2-1 2-2zm-32 2l7 10-13-10 1-1 4-1 1 2zm28-1v2l-3 2h-1l1-2 2-2h1zm-107 17l-2 7-13-2-11-20v-2l26 17zm176-13h-3-1l-3-4 7 4zm-103-4v1-1zm47 13l-10 1-1-11 2-1 1-1 8 12zm-12-12v0zm-14 0l2 6-2 1v-7zm-21 0l-1 2-1-1 1-1h1zm-3 2l-3 3-4 3 4-8 3 2zm-123-2l-9 20-6-7 15-13zm163 1h-2l1-1 1 1zm-7 0v0zm-20 8l-11-7 1-1 10 8zm-62 10l-21-3 12-15 9 18zm-47-18l11 20-8 10-8-8 3-15 2-7zm134 1l-3 2h-1l1-1 3-1zm-6 0l1 1-1 1-5 3v-1l5-4zm-30 0l-3 2 2-2h1zm13 8l2 2-27 3 7-9 3-2 2-1 13 7zm23-7l1 9-5-7 4-2zm69 0l1 6-5-6h4zm3 15l2 6-4-6-7-10 1-4 8 14zm-76-14l-1 1v-1h1zm79 10l-3-3-1-1-1-5 5 9zm-5-4l1 1 1 5-7-11 5 5zm-74-5l5 7v2l-8 6-1-5v-1l2-8 2-1zm-2 0l-1 1-4 2 5-3zm0 1l-3 8-2-6 5-2zm-6 1h1l-2 2-1-1 2-1zm-30 0l-6 6 3-4 3-2zm28 1v1l-3 1 3-2zm5 6l-1 4-3-3v-5l2-2 2 6zm82 10l1 1-4 4-3 3-11-1 7-22 10 15zm-38-15l-14 12-2-1-6-8 22-3zm-81 0l-3 6-1-3 4-3zm96 20l-18-5 4-14 14 19zm-14-19l-5 14-10-3 15-11zm-50 0v4l-2-3 2-1zm88 4l4 4-3 4-2-3-1-3-1-5 3 3zm-88 0l1 4-6-5 2-2 3 3zm32 7h-1l-14-7 10-2 5 9zm-31-3v7l-7-12 7 5zm21 4l-12 2h-1l-1-3 8-7 6 8zm-178-1l-11 6 5-13 6 7zm180-3l7 3-8 1-6-8 7 4zm-19-3l2 6h-1l-2-2 1-4zm-1 4l-1 1-2-2v-2l3 3zm-168-3l-5 11-3-1 8-10zm91 3l-7 17-7-10-9-2 2-7 21 2zm165-1l1 3 1 8-2-1-1-3-1-2 2-5zm-89 2l-1 4-1-5 2 1zm-170 6l-1 1 3-8-2 7zm173-4l-2-2v-1l2 3zm-67 0l6 2a4250 4250 0 01-24 14l6-17 1-1 11 2zm154-2l8 13-6-3v-1l-2-9zm-4 3l-1 2-1-5 2 3zm-84-1l-3 3 1-4 2 1zm-158-1l3 12-3 3-3-14 3-1zm160 0l1 2-1-1v-1zm-104 3l-1 5-2-1-3 1-5-8 11 3zm-59-3v1l-7 3-4 2 11-6zm189 1l-7 1h-3l1-1 7-1 2 1zm-136 8l-10 5-4-3 8-11 6 9zm148-5l-3 8-8-11h1l10 3zm-191 3l-2 2-4-8 6 6zm179-6l6 21-14-18-1-2 9-1zm-10 1l-7 1 6-1h1zm-15 2h-6l4-3 2 3zm-164-3l2 15-2-1-12-7 1-1 11-6zm8 9l-2 1-2-9 4 8zm182-8l8 11a1099 1099 0 01-3 8l-3-10-2-9zm-11 0l14 19 7 10 9 13-3 10-3-1-2-1-25-18-1-2-10-28 14-2zm69 4l-3-2v-2l3 4zm-217-3l5 11-3 3-5-11v-1l3-2zm-1 0l-2 2v-2h2zm38 2l-6 6-4-2 2-6 8 2zm-40-2l-1 2-7-1 8-1zm192 6l7 11-22 2-6-9 3-9 18 5zm-182 1l-2 4-4-10 6 6zm136 22l-16-27 7-1 9 28zm-74-28l-6 6-10 10h-1l-5-1-1-1 23-14zm-73 2l-4 20-1-4-3-18 8 2zm221 1l3 5-13-1 6-6 4 2zm-229-2l4 22-16-10 4-4 8-8zm50 0l3 12-9-5 6-7zm-82 2v5l-2 6-1-12 3 1zm-1-1l1 1h-1v-1zm46 13l-8 7 4-20 4 13zm43-3v2l-3-1-3-10 6 9zm-87-9v1l-1-1h1zm28 0a319 319 0 01-6 5l6-5zm234 2l1 2-2-3 1 1zm-192 0l-1 3-1-4 2 1zm-2 3l-2-2 1-2 1 4zm-68-4c-1 0 0 0 0 0zm92 0l-4 9v-1l4-8zm-25 0l-1 1h-1l2-1zm-45 0l-1 2h-1l2-2zm-23 2v-2 2zm5 0l9 7-5 1-3 1-4-8-1-3 4 2zm17 2v-1l1-2-1 3zm216-2l12 1-9 9-7-11 4 1zm32 3l-5-1-1-3 6 4zm-195-1l-4 4-1-3 1-4 4 3zm-9-2l-4 4v1l-6-1 10-5v1zm-61 9l-4 1-1-8 1-2 4 9zm64-6v3l-7-1 5-5 2 3zm-48-3l1 1-2 3-1-2 2-2zm25 7l-1 1-2-7 3 6zm23-6v0zm-14 3v1l-2 7-4-8 3-3 3 3zm200-2l9 1 3 3 11 19 5 7-3 9-1 2-5 6-35-3-9-1 2-5 9-28 1-2 8-9 5 1zm-233 0zm63 6l-5-1-8-1 4-4 9 6zm-62-5h-2l1-1 1 1zm-4-1v2l-3 2 1-2 2-2zm252 2l1 2 10 22-6-8-11-17 6 1zm-271-1v7l7 4v4l-2 1-7-9 2-7zm218 9l-9 1 3-9 6 8zm-149-8v0zm-47 0l-3 3 1-2 2-1zm28 2l3 7-2 4-2 8-23 4-5 1-12-7h-1l-1-5 3-3 4-4 1-1 3 1 13 12 13-9 4-3-2-3 3-3 1 1zm20-1v1h-1l1-1zm-9 1l-7 8 2-9 5 1zm7 1l-9 5-4 2 7-8 6 1zm-49-1v1h-2l2-1zm69 2l1-1-1 1zm-18 0l2 7h-12l9-8 1 1zm1 0v-1 1zm12 1l3 1h-2l-7 3-4-4-1-2 11 2zm-64-1l-1 1-1-1h2zm48 0l-8 7h-4l12-7zm-12 0l-1 6-1-1 2-5zm-19 9l-5 5-12-12 1-2 16 9zm-18-7l-2-2 2 2zm-3-2zm70 1l-3-1 3 1zm-39-1l1 2-1-1v-1zm-31 1l-2 1h-5l7-1zm76 0h-2 2zm-18 2l1 3-2 1v-6l1 2zm-25 0l-10 5 7-7 3 2zm-31-1h-3l1-1 2 1zm-10 0h-1 1zm-1 1l1 2-6-3h5v1zm86 1l-3-2h2l1 2zm-4-2v0zm-1 0v3l-1-3h1zm-10 3l-2 1h-1l-1-4 4 3zm-56-1l-2-1-1-1 3 2zm219-2l-14 12-7-10 21-2zm-144 0l-3 2-1-2h4zm-83 0l-3 5-2-3-1-2h6zm73 0l1 4v4l-1 1-8-6 8-3zm149 18l-5 16-3-20-1-2 14-11-5 17zm-138-17l2 5-5-3 3-2zm-5 1l-3 4-1-2 1-4 3 2zm6-1l21 18-9-6-11-7-1-5zm-2 0l-2 2-1-1 3-1zm-9 4v-4 4zm-82 5l-2 2-4-11 6 9zm213-8l7 10-15-9 8-1zm-209 3l-2-1v-2l2 3zm85-2l-1 1v-1h1zm5 4l3 9-11-2-1-1 2-7 2-3 5 4zm-14 2l-10-3v-2l3-1 7 6zm-41-6l-11 7 3-2 2-2 6-3zm182 9l-1 2-3 9-13-19 17 8zm-173-7l-1 3-1 3 2-7v1zm39-1l-3 4v-1l3-3zm-83 1l-2 2v-3l2 1zm65 0l1 1-2-1h1zm14 2v-2 2zm-13-1v1l3 7 1 2-3 14-6 4-2 1-13-2-1-23 5-4 1-1h11l4 1zm-16-1l-5 5v-5h5zm33 1l-2 6-1-3 1-2 2-1zm-38 0v4l-4 4 4-8zm31 4l-5 5h-1l-3-8 9 3zm36 11l-18-5-3-9 21 14zm-33-14v0zm0 1v1h-1l1-1zm-81 0v4l-2-2 2-2zm79 1v0zm2 0v2l-1-1 1-1zm-1 2l-1 3h-1l-5 1 5-4 1-1 1 1zm-80 2l-4-1 2-2 2 3zm81-2h1-1zm-34 0l1 21-6-17 5-4zm35 2l-3 1 2-3 1 2zm141 21l-5-6-2-4 3-11 4 21zm-139-20l16 15v2l1 21-32-13v-4l1-5 4-6 8-10h2zm-2 0l-10 13 7-12v-1h3zm13 3l5 12-12-12-4-3 11 3zm-17-2l-8 13 1-5 1-7 6-1zm-36 0l6 18-29-4-5-8 28-6zm144 3l22 15 1 9-7-7-18-19 2 2zm-71 3l-15 8-4-12 19 4zm168 10l4 6-11-8v-7l7 9zm16 8h-8l-13-16 21 16zm-23-14l-1 3-1 3 2-6zm-58 3l5 7h-1l-9-1 3-10 2 4zm72 11h-1l-2-2-7-10 10 12zm-5-2l3 2h-10l-2-9 9 7zm-9-6l1 9h-6l2-7 2-3 1 1zm-156 26l-18-5-2-22 20 27zm-51-26l-1 8-5-4 6-4zm204 2l-2 7-4-1 6-6zm-61 1l-1 3-2-3h3zm-150 1l2 1 3 3-17-5 12 1zm160 1l-8 4-2-3 1-3 9 2zm-11 1l-1 2-1-4 2 2zm19 0l-8 11h-1l-7-8 7-4h2l7 1zm-20 2v3l-1-6 1 3zm56 1l-6 7-1 2-3 7-12-9-12-10 34 3zm-10 17l-7 17-18-13v-2-22l25 20zm-26-20l1 23-9-11 8-12zm-16 3l-3 2v-2-2l3 2zm85 0l-5 2-2-2h7zm-8 0l2 2-3-2h1zm-3 0l3 3-13-2v-1h10zm-17 0l-2 6v1l-9 1 7-8h4zm29 0l-2 6-3-2 5-4zm-7 3h-2l-2-3 4 3zm-16-3v1l-3-1h3zm0 1l1 5-6-6 5 1zm0 5l-8 1 2-7 6 6zm21-5l-4 2 4-2zm-77 8l-5 7-5-14 3-1 7 8zm-10-7h-1v-1l1 1zm80 2l-12 2-1-5 13 3zm-77 8l-1-3-3-6 1-1 3 10zm79-9c1 0 0 1 0 0zm1 1l-2 3v-3h2zm-140 0l-2 11-9-4 11-7zm143 2l-3 12-1-7-1-4 3-3 2 2zm-130 5l-6 6-6-13 12 7zm125-4l-1 1-4 6-6-6-2-2 12-2 1 3zm-132 11l-7-3 1-11 6 14zm-8-13l-8 5-2 1-8 1 18-7zm127 2l2 14-2-1-11-7 1-6 9-1 1 1zm43 20l-6 16-1 1-18 8-3-32v-3l4-10 24 20zm-35-13l-4 6h-1l-3-13 8 7zm-18-7l-2 6-7-4 9-2zm23 1l1 10-5-4 4-6zm-25 6l-2 9-2-2-3-12 7 5zm-8-5l3 12-5-5 2-7zm-29 11l-14-4 5-7 9 11zm-87-9l5 13-13-10 8-3zm9 4l-1 11-2-2-6-13 9 4zm-13-3l-5 1-1-1h6zm-7 2l-4 1 4-2v1zm1-1s0 1 0 0c-1 0 0 0 0 0zm-13 4l-2 2-13-6 15 4zm158 4l-13 2 2-9 11 7zm-146-7l-2 1-8 3 4-2 6-2zm161 5l-9 1 4-6 5 5zm-145 6l1 2-11 6-5-18 1-1 14 11zm17-11l-4 5v-1l4-4zm-33 1l5 18-15-15 10-3zm27 4l-8 7 2-10 6 3zm-36-2l-2 1v-1h2zm139 5l1 3-2 4v1l-11 4 6-17 6 5zm82-2l-10 3 5-6 5 3zm-223-2l-1 1 1-1zm228 1h-2l-4-1 6 1zm-3 1h-1l-4-2 5 2zm-12 3l-2 1-8 2 14-8-4 5zm-173-4l-1-1 1 1zm30 0l4 4-6-1 2-3zm-57 11l-4-2-11-9h3l12 11zm57-11l-2 3h-3l5-3zm-30 0l-9 13-1-2v-3l1-1a1980 1980 0 009-7zm188 0v1h-1l1-1zm-52 33l-5 3h-2l-12-9-11-7 3-3 11-12 2-3 10-2 4 33zm54-31l-2-1 1-1 1 2zm-168 8l-2 5-5 15-26-9 2-7 1-2 8-11 22 9zm179-4l-9-3-2-2 11 5zm-13-4l-1 1-3-1 2-1 2 1zm-156-1v0zm1 1l3 3-2-1-1-2zm158 1l4 4-4-1-4-2 1-2 3 1zm-5 1l-5 7-12-2 3-4 12-3 2 2zm-64-2l-1 1v-1h1zm-2 0v1l-1-1h1zm0 2l-16 5-1-3 1-2 13-2 3 2zm-17 0v1l-1-2 1 1zm103 5l-9-1-1-1-4-4 14 6zm-179-5h-1 1zm-1 2l-2 5-2-1 2-6 2 2zm165 1l-5-1 1-2 4 3zm-157-2l1 1-3 2-5-3 1-1 6 1zm-7 0l-1 1-1-2 2 1zm93-1l-14 15-2-9 16-6zm-83 1l-1 1-1-1h2zm-5 3l-3 1-2-3v-1l5 3zm139-3l-3 4-5-1 8-3zm-84 10l2 1 4 5-9-7-9-8 12 9zm-50-9l-1 1v-1h1zm0 0v0zm1 1c1 0 1 0 0 0zm-2 1h-3l2-2 1 2zm-10-1l3 2-5 2 2-4zm165 0l3 2 5 3-2-1-10-4h4zm-202 1l-1-1 1 1zm212 6l-13-2-2-5 15 7zm-14-2l-4-1 2-4 2 5zm-84-5v3l-2 1 2-4zm93 1h1l3 4-7-4h3zm-157 2l-1-1v-2l1 3zm-2-2c0 1 0-1 0 0zm171 1l-6 5-5-6 11 1zm-172-1v2l-2-1 2-1zm-3 0l-3 1 2-1h1zm-43 0l-1 2v-2h1zm178 1l-5 6-1-7 6 1zm-131-1v3l-1-1 1-2zm147 1l-1 2h-1l2-2zm-149 1l-2 5-4-5 4-1 2 1zm-46 0v3l-11 1 10-5 1 1zm192 1l-4 5-3 12-1 4 2 5 7 16-7-7-9-9-1-2-2-19 5-7 13 2zm-19 5l-6 7 5-14 1 7zm46-6l6 15-10-10 4-5zm-175 5h-2l-6-3 4-2 4 5zm6-4h-1v-1l1 1zm67 8l-8-2 3-6 2-1 3 9zm-69-8v2l-3 2 2-5 1 1zm-11-1l-2 1 2-1zm-2 2l-3 1 1-3 2 2zm203 28l-9-10-3-3-1-3-5-13 18 29zm-23-26h-1l3-3-2 3zm-21-3l-3 5h-2l4-5h1zm5 1l1 3-8 1 2-4h5zm-88-1l-3 6-8-2 11-4zm-62 1v0zm-13 0l6 3-9-2 3-1zm-35 0v0zm49 0v1-1zm163 2l-12 1-2-3 14 2zm-163-1l-1 2 1-2zm-49 1l-1 4 1-4zm47 0l1 4-3-1-1-1v-1l3-1zm-7 1l3 1-6 4-6-6 9 1zm-41-1v7l-11-6 11-1zm38 7l-11 9 5-16 6 7zm176-6l-10 6-3-5 13-1zm2 2l7 7 2 3 2 4 3 11-5-9-10-16-1-2 2 2zm-217 5l-2 10-3-4-6-13 11 7zm215-6l17 28-35 8-1-1 10-25 2-3 7-7zm-1 0l-7 8h-1l-1-3 9-5zm-105 2l-3 5-5-7 8 2zm93-2l2 5-2 1-10-4 1-1 9-1zm-10 1h-2 2zm-147 2l1 8-6-6 5-5v3zm129-2l3 19-10-11 7-8zm18 1l-2 3v-4l2 1zm-143 1l-3 8v-10l3 2zm140-1l1 2v2l-4 8 3-12zm-72 2l-10 3 2-5 8 2zm84 3l-10 5-1-6 2-4 9 5zm-82-2l21 14-4-1-29-11 10-3 2 1zm-73 7l-18 2 11-9 7 7zm158-6l2 2-4-1 2-1zm-177 9v1l4 13-3 2-10-2-1-1-2-16-17 5 3-11 26 9zm163-9l1 7-5 3 4-10zm15 3l-13 5-1-1 11-6 3 2zm-29 12l-24-1 15-11 9 12zm30-12l-10 25-2-3-2-17 14-5zm-41 1l-14 10h-3v-2l2-1 15-7zm75 16l-7 2-6-16 13 14zm-223 4l-14 7-4 3-1-15v-8l16-5 3 18zm174-17v1l-3 1 3-2zm0 1l2 16-8-14 6-2zm-43 4v2h-5l5-2zm0 3v1l-4-1h4zm21 0l-20 1 2-1h18zm-19 0l-2 1v-1h2zm43 10l1 4-3-7-3-6 5 9zm37-2l-30 13-3-5 25-6 8-2zm-203 3l-6 4-3-6 9 2zm-10-2l4 6-5 3h-1l-11-2 13-7zm14 0l-1 2h-2l3-2zm0 1l1 1h-1v-1zm-1 1l-2 2-6 3-1-1 7-4h2zm1 1h-1 1zm164 2v1l-1-3 1 2zm-164-2l-1 2v-1l1-1zm215 4l-1-1-1-2 2 3zm-216-3l-2 2-4 5-2-4 8-3zm1 0l-4 11 2-8 2-3zm165 2l-1 1 1-1zm-175 1l-4 2 4-3v1zm178 4l-4-4h1l3 4zm-186-2l2 1h-3l-9 1 1-4 9 2zm15-2l-3 12v-4-3-1l3-4zm-6 0l2 4-8-1 6-3zm-19 0v4h-3l3-4zm245 3l1 2-3-4 2 2zm18 6l6 3-14 8-10-19 18 8zm-12 13l-10 7v-6l2-22 8 21zm-230-17l-4 3-5-5h1l8 2zm233 15l-3 2-7-19 10 17zm-243-16l-4 12-6 5-2-7v-2l1-8h11zm5 4l-8 7 3-11 5 4zm-20-4l-2 3-8 12-4-2 14-13zm3 0l-1 8-1-8h2zm-3 1l2 8-1 11-10-5 8-13 1-1zm25 0v8l-4-5 4-3zm0 8l-18 16 3-8 2-5 9-7 4 4zm248-1l3 20-15-9 12-11zm15 14l-12 6-2-20 14 14zm-17-13l-10 10-2-3 12-7zm-267 8l-3 3 2-10 1 7zm3 8l-2-8 6-4-4 12zm-17-10l-2 4-2 2v-8l4 2zm-6 6l-5 1 6-8-1 7zm2 0h-1v-6l1 6zm14-1l-13 1 4-5 9 4zm260-1l-1 1-4-2 3-2 2 3zm-255-1l2 8-10-2 8-6zm251 3l-10 3 9-6 1 3zm2-1l-2 1-1-2 3 1zm3 0l7 4-8-4h1zm0 1l13 7-5-1h-10l-2-6 2-1 2 1zm-261 0l-6 2-5-1h-3l5-1h9zm-1 0l-2 2h-2l4-2zm260 5l-13-1 10-4 3 5zm43 0l-4 7-5 6-4-17 13 4zm-14-4l5 17-16-11 11-6zm-304 0v5l-5-5h5zm319 2l-1 1-10-3 11 2zm-310 0l-7 3v-5l7 2zm-7-2v5h-2l1-5h1zm10 2l-10 9v-6l7-3h3zm-13 3l1 1 1 4-5-8 3 3zm23-1l-19 6 9-8 10 2zm301 1l-2-1-1-1 3 2zm-4-1v-1-1 2zm1 0v-1 1zm-45 1l7 15-21-16 14 1zm44-1v2l-4 5 3-7h1zm1 0v0zm4 2l10 8-4 1h-1l-8-10 3 1zm5 9l-8 3-1-12 1-1 8 10zm-37-8l-10 13-7-15 17 2zm-290-2l-1 5-1-4 2-1zm336 4l-1 3-2 2-10-8 13 3zm-18-3l1 12h-4l-6-1 3-5 6-6zm-12 11l-25 3 9-13 16 10zm36-10l-4 3-1-1 5-2zm1 1l5 16-7-10 2-6zm0 0l-3 6-2-3 5-3zm-6 3l-2 1 1-3 1 2zm1 0l2 3-1 4-5-4 1-1 3-2zm-4 3h-1 1zm-1 0v2l-2 4-3-3 5-3zm-2 1l-3 1 3-1zm-21 0l-2 2h-1l3-2zm37 9l-8-6 1-3 7 9zm-8-6l-2 4h-2l-1-5v-2l5 3zm-11-1l-5 2h-4v-1l8-2 1 1zm7 5l-3-1 1-4 2 5zm-7-5l3 4-8-2 5-2zm-20 0l-1 1 1-1zm-1 0l-1 4-16 3-3-1-6-2 26-4zm8 2l-6 1-1-1v-1l7 1zm4-1v1l-1-1h1zm-13 2l1-2c1 1 0 1-1 2zm41 5l-9-3 1-3 8 6zm-28-6v2h-10l2-1 4-1h4zm3 1h-1l-2 1v-2l3 1zm-14-1v2h-2l2-2zm23 2l-2 3-9-3 3-1 8 1zm4 1l1 4-7-2 2-3 4 1zm-16 0l3 11-2 2-3 5-8-18h10zm-10 0l7 18-15 3 5-21h3zm19 2l-6 9-3-11 9 2zm-23-2l-5 19v2l-5-8-7-11 17-2zm32 1l-1 3-1-4 2 1zm10 2l-11 1 2-3 9 2zm-11 2l-8 22-1 2-5-18 7-8 7 2zm-37 16l-4 1-6-18 10 17zm23-9l5 17v2l-3 2h-1l-6-15 5-6zm-5 7l6 15-12 10-10-21 13-4h3zm-8 1l-9 2 1-1 8-1zm-10 1l1 1h-3l2-1zm1 2l10 21-4 5-6-24v-2zm36 14l-4 5-3 4-3-5v-1l1-9 9 6zm-9-6l-1 8-3-5 4-3zm-4 3l3 6-1 8-6 1-8-5 12-10zm13 3l1 23-8-13 7-10zm-8 10l-3 1 1-7 2 6zm-10 2l-6 1-1-5 7 4zm-8-4l1 5-5 1v-1l4-5zm20 21l-10 6-5-7 5-6 7-10 1-1 2 18zm-3-18l-2 3v-3h2zm-2 0l-1 4-4-3 5-1zm12 13l-7 5-1-18 8 13zm-13-9l-9 12-1-3-2-11 7-1 5 3zm-11 9l-7-10 5-1 2 11zm-7-10h-1l-2 3 3-3zm0 1l2 11-8-5 6-6zm4 5l3 5 1 4-5-3-2-10 3 4zm-2 6l1 3-7 1-2-9 8 5zm-9 3v2l-9 10 9-19v7zm2 1h-1v-7l1 7zm35-5l-5 13-1-9 6-4zm-21 3l-1 1v-2l1 1zm-2 1h-3l-1-2 4 2zm7 7l-8 4-1-5v-1l4-6 5 8zm10-6v9l-9-3 9-6zm-16 0l-4 4v-4h4zm-5 0l1 5-2 3-3 4-3-12h7zm-7 0l2 9-4-9h2zm-2 1l4 11-15 1 11-12zm10 4l1 5-2 2-10 10-1 2v-1l4-6 3-4 2-3 3-5zm19 4l-9 1 1-4 8 3zm-9-3v4h-7l7-4zm10 4l-11 11 1-11h10zm-10 0l-2 11-5-9-1-1 8-1zm-2 12l-21 3 15-14 6 11zm-15-9l-12 6-2-6h14zm1 0l-8 12-3-1-2-5 13-6zm-14 6l-5 2 4-7 1 5zm2 5l-6-2 5-3 1 5zm25-2l-14 12-6-9 20-3zm-26 2h1l1 3-6-4 4 1zm5 1l-2 3v-1l-1-3 3 1zm6 8l-7-5 2-2 5 7zm-7-4h-1 1z" fill="url(#paint0_linear)"/><path d="M131 17c-1-1-2 1-1 2h2l-1-2z" fill="url(#paint1_linear)" stroke="url(#paint2_linear)" stroke-width=".1" stroke-miterlimit="10.4"/><path d="M189 19c-1-1-2 0-2 1 0 2 2 2 3 1l-1-2z" fill="url(#paint3_linear)" stroke="url(#paint4_linear)" stroke-width=".1" stroke-miterlimit="10.4"/><path d="M111 23c-1 0-2 1-1 2l2 1c1-1 0-2-1-3z" fill="url(#paint5_linear)" stroke="url(#paint6_linear)" stroke-width=".1" stroke-miterlimit="10.4"/><path d="M98 26l-2 1c0 2 1 2 2 1v-2z" fill="url(#paint7_linear)" stroke="url(#paint8_linear)" stroke-width=".1" stroke-miterlimit="10.4"/><path d="M303 28h-2l2 2v-2z" fill="url(#paint9_linear)" stroke="url(#paint10_linear)" stroke-width=".1" stroke-miterlimit="10.4"/><path d="M268 34s-2 1-1 2h2l-1-2z" fill="url(#paint11_linear)" stroke="url(#paint12_linear)" stroke-width=".1" stroke-miterlimit="10.4"/><path d="M204 38c1-1 0-2-1-2l-2 2 1 1-2 12-1 1c-1 1 1 2 2 2v-3l3-6h2c1-1 0-3-2-2v2l-3 6 2-12 1-1z" fill="url(#paint13_linear)" stroke="url(#paint14_linear)" stroke-width=".1" stroke-miterlimit="10.4"/><path d="M166 37l-2 1 2 2v-3z" fill="url(#paint15_linear)" stroke="url(#paint16_linear)" stroke-width=".1" stroke-miterlimit="10.4"/><path d="M333 43l-2 1v1a593 593 0 00-6 3l7-3h1v-2z" fill="url(#paint17_linear)" stroke="url(#paint18_linear)" stroke-width=".1" stroke-miterlimit="10.4"/><path d="M279 49c-1-1-2 0-2 1s2 2 3 1l-1-2z" fill="url(#paint19_linear)" stroke="url(#paint20_linear)" stroke-width=".1" stroke-miterlimit="10.4"/><path d="M162 55c-1-1-2 0-2 1l2 1v-2z" fill="url(#paint21_linear)" stroke="url(#paint22_linear)" stroke-width=".1" stroke-miterlimit="10.4"/><path d="M300 56l-1-1-1 1v1l1 1 1-2z" fill="url(#paint23_linear)" stroke="url(#paint24_linear)" stroke-width=".1" stroke-miterlimit="10.4"/><path d="M114 61c-1 0-2 0-2 2l-16 3-4 1c-1-1-2-2-3-1l2 2 1-1 20-4 1 1c1 0 2-2 1-3z" fill="url(#paint25_linear)" stroke="url(#paint26_linear)" stroke-width=".1" stroke-miterlimit="10.4"/><path d="M253 68l-2-1v2l-1 1c0 1 1 2 2 1v-2l1-1z" fill="url(#paint27_linear)" stroke="url(#paint28_linear)" stroke-width=".1" stroke-miterlimit="10.4"/><path d="M390 69l-1-2-1 1v2h1l1-1z" fill="url(#paint29_linear)" stroke="url(#paint30_linear)" stroke-width=".1" stroke-miterlimit="10.4"/><path d="M293 69l-2-1v2l2-1z" fill="url(#paint31_linear)" stroke="url(#paint32_linear)" stroke-width=".1" stroke-miterlimit="10.4"/><path d="M474 74l-1-1h-1l-1 1 1 1 2-1z" fill="url(#paint33_linear)" stroke="url(#paint34_linear)" stroke-width=".1" stroke-miterlimit="10.4"/><path d="M443 76l-1-2-2 2 1 1h1l1-1z" fill="url(#paint35_linear)" stroke="url(#paint36_linear)" stroke-width=".1" stroke-miterlimit="10.4"/><path d="M234 76c-1-1-3 0-3 1l2 2 1 2v3h2l14 13v2h3l-1-2h-1l-17-19v-2zm2 6l-1-1-1-2 2 3zm1 0h0l10 11-6-5-5-4v-2h1z" fill="url(#paint37_linear)" stroke="url(#paint38_linear)" stroke-width=".1" stroke-miterlimit="10.4"/><path d="M283 79h-2l1 1-3 20-1 1 2 1a4738 4738 0 0112 9l-1-1-1 1-10-9-1-2 1-5a6472 6472 0 013-16z" fill="url(#paint39_linear)" stroke="url(#paint40_linear)" stroke-width=".1" stroke-miterlimit="10.4"/><path d="M324 79l-1 1c0 1 1 2 2 1l-1-2z" fill="url(#paint41_linear)" stroke="url(#paint42_linear)" stroke-width=".1" stroke-miterlimit="10.4"/><path d="M401 83h-2l1 1s0 0 0 0l1-1z" fill="url(#paint43_linear)" stroke="url(#paint44_linear)" stroke-width=".1" stroke-miterlimit="10.4"/><path d="M165 85h-2v2h1l10 22v2h2v-2l1 1 5 16-1 1h-8l-1-2-2 2-19 2h-2c-1 1 0 2 1 2l1-1 19-3 2 1 1-1 8 1 1 1 2-1-2-2-5-17 1-1c0-1-2-2-3-1v2l-1-1-10-21 1-2z" fill="url(#paint45_linear)" stroke="url(#paint46_linear)" stroke-width=".1" stroke-miterlimit="10.4"/><path d="M149 86c-1-1-2 0-2 1s1 2 2 1v-2z" fill="url(#paint47_linear)" stroke="url(#paint48_linear)" stroke-width=".1" stroke-miterlimit="10.4"/><path d="M454 87l-1 1 2 1c1-1 0-2-1-2z" fill="url(#paint49_linear)" stroke="url(#paint50_linear)" stroke-width=".1" stroke-miterlimit="10.4"/><path d="M216 89l-2-1v3l-8 16h-1v2h2l12 10 1 2 2-1c0-1-1-2-2-1h-1l-12-10-1-2 8-16 2-2z" fill="url(#paint51_linear)" stroke="url(#paint52_linear)" stroke-width=".1" stroke-miterlimit="10.4"/><path d="M261 89c-1-1-2 0-2 1s1 2 2 1v-2z" fill="url(#paint53_linear)" stroke="url(#paint54_linear)" stroke-width=".1" stroke-miterlimit="10.4"/><path d="M114 89h-2l2 2v-2z" fill="url(#paint55_linear)" stroke="url(#paint56_linear)" stroke-width=".1" stroke-miterlimit="10.4"/><path d="M110 91c-1-1-2 0-2 1s1 2 2 1v-2z" fill="url(#paint57_linear)" stroke="url(#paint58_linear)" stroke-width=".1" stroke-miterlimit="10.4"/><path d="M240 98l-1 1 1 1v-2z" fill="url(#paint59_linear)" stroke="url(#paint60_linear)" stroke-width=".1" stroke-miterlimit="10.4"/><path d="M312 103c-1-1-2 0-2 1l2 1v-2z" fill="url(#paint61_linear)" stroke="url(#paint62_linear)" stroke-width=".1" stroke-miterlimit="10.4"/><path d="M500 119c-1 0-2 1-1 2h2l-1-2z" fill="url(#paint63_linear)" stroke="url(#paint64_linear)" stroke-width=".1" stroke-miterlimit="10.4"/><path d="M433 121l-1-1-1 1 1 1 1-1z" fill="url(#paint65_linear)" stroke="url(#paint66_linear)" stroke-width=".1" stroke-miterlimit="10.4"/><path d="M299 126c0-1-1-2-2-1v1l-21 10h-3v2l-18 22h-2c0 1 0 3 2 3l1-3 18-22 2-1v-1l21-9h1l1-1z" fill="url(#paint67_linear)" stroke="url(#paint68_linear)" stroke-width=".1" stroke-miterlimit="10.4"/><path d="M224 129c1-1 1-2-1-2l-1 2-21 10h-2v2l2-2 14-6 7-4h2z" fill="url(#paint69_linear)" stroke="url(#paint70_linear)" stroke-width=".1" stroke-miterlimit="10.4"/><path d="M322 130h-2v2l2-1v-1z" fill="url(#paint71_linear)" stroke="url(#paint72_linear)" stroke-width=".1" stroke-miterlimit="10.4"/><path d="M345 143c-1-1-2 0-2 1l2 1v-2z" fill="url(#paint73_linear)" stroke="url(#paint74_linear)" stroke-width=".1" stroke-miterlimit="10.4"/><path d="M235 149c-1-1-2 0-2 1l2 1v-2z" fill="url(#paint75_linear)" stroke="url(#paint76_linear)" stroke-width=".1" stroke-miterlimit="10.4"/><path d="M99 154h-2v2h2l5 6-15 7-1-1-2 1 1 1-1 14-1 1 1 2a504 504 0 01-3 12l-2 25-1 1 1 2 2-2-1-1 1-25 2-1-1-1 2-10 1-2-1-1 2-13 1-2 15-6 6 8v2c1 1 2 0 2-1l-1-1a325 325 0 01-3-11l-1 1-3 1-5-6v-2zm9 8l2 9-6-8 3-2 1 1z" fill="url(#paint77_linear)" stroke="url(#paint78_linear)" stroke-width=".1" stroke-miterlimit="10.4"/><path d="M291 160c0-1-2 0-1 1l2 1-1-2z" fill="url(#paint79_linear)" stroke="url(#paint80_linear)" stroke-width=".1" stroke-miterlimit="10.4"/><path d="M357 164c-1-1-2 0-2 2h3l-1-2z" fill="url(#paint81_linear)" stroke="url(#paint82_linear)" stroke-width=".1" stroke-miterlimit="10.4"/><path d="M115 168c1-1 0-2-1-2l-2 2 1 1-2 14-1 1 1 1-7 25-2 1c0 2 1 3 2 2v-2l2-7 5-18 2-2-1-1 2-14 1-1z" fill="url(#paint83_linear)" stroke="url(#paint84_linear)" stroke-width=".1" stroke-miterlimit="10.4"/><path d="M364 178c0-1-2 0-1 1 0 1 1 2 2 1l-1-2z" fill="url(#paint85_linear)" stroke="url(#paint86_linear)" stroke-width=".1" stroke-miterlimit="10.4"/><path d="M148 190c1-1 0-3-2-3v3l-1 4-2 2v1l-1 1v2l2-1 2-1a512 512 0 019 1l6 22-1 2 1 1h2l8 2 1 2 2-2-1-1 2-14 1-1-1-2-1 1-17-11-1-2h-2l-6-6zm6 6v1l-8 1c1-1 0-3-2-3a1136 1136 0 004-5l6 6zm20 13l1 2a903 903 0 01-4 15l-8-3-2-2-5-22v-1l18 11z" fill="url(#paint87_linear)" stroke="url(#paint88_linear)" stroke-width=".1" stroke-miterlimit="10.4"/><path d="M195 192c-1 0-2 1-1 2h2l-1-2z" fill="url(#paint89_linear)" stroke="url(#paint90_linear)" stroke-width=".1" stroke-miterlimit="10.4"/><path d="M317 195l-3-1v3l2-1 11 5 1 2c1 1 2-1 2-2h-2-1l-9-5c-1 0-2 0-1-1z" fill="url(#paint91_linear)" stroke="url(#paint92_linear)" stroke-width=".1" stroke-miterlimit="10.4"/><path d="M357 205c-1-1-2 0-2 1l1 1 8 24-1 1 1 1c1 0 2-1 1-2h-1l-8-24 1-2z" fill="url(#paint93_linear)" stroke="url(#paint94_linear)" stroke-width=".1" stroke-miterlimit="10.4"/><path d="M432 209c-1-1-2 0-2 1 1 2 2 2 3 1l-1-2z" fill="url(#paint95_linear)" stroke="url(#paint96_linear)" stroke-width=".1" stroke-miterlimit="10.4"/><path d="M97 211l-1-2c-2 0-2 2-2 3l3-1 18 8 1 1c1 1 2-1 2-1l-2-1h-1l-18-7z" fill="url(#paint97_linear)" stroke="url(#paint98_linear)" stroke-width=".1" stroke-miterlimit="10.4"/><path d="M405 214l-2 1 1 2 2-2-1-1z" fill="url(#paint99_linear)" stroke="url(#paint100_linear)" stroke-width=".1" stroke-miterlimit="10.4"/><path d="M365 217h-2v2h2l18 16 1 1c-1 1 0 1 1 1h1l20 14v2l2-1c0-1 0-2-1-1h-1l-20-15-1-2h-1l-19-16v-1z" fill="url(#paint101_linear)" stroke="url(#paint102_linear)" stroke-width=".1" stroke-miterlimit="10.4"/><path d="M82 242l-1-2-1 2h2l14 7 1 2c1 1 2 0 2-1 0-2-2-2-2-1l-15-7z" fill="url(#paint103_linear)" stroke="url(#paint104_linear)" stroke-width=".1" stroke-miterlimit="10.4"/><path d="M369 247l-2-2v3h1l9 18v1 1l-4 25h-2l1 2c1 1 2 0 2-1l-1-1a4666 4666 0 014-28l-8-17v-1z" fill="url(#paint105_linear)" stroke="url(#paint106_linear)" stroke-width=".1" stroke-miterlimit="10.4"/><path d="M174 253l-2 2h2v-2z" fill="url(#paint107_linear)" stroke="url(#paint108_linear)" stroke-width=".1" stroke-miterlimit="10.4"/><path d="M443 257l-1-1-2 1 2 2 1-2z" fill="url(#paint109_linear)" stroke="url(#paint110_linear)" stroke-width=".1" stroke-miterlimit="10.4"/><path d="M337 259l-1-1c-2 0-2 2-1 2 1 1 2 0 2-1z" fill="url(#paint111_linear)" stroke="url(#paint112_linear)" stroke-width=".1" stroke-miterlimit="10.4"/><path d="M188 259l-2 2c-1 1 1 2 2 1v-3z" fill="url(#paint113_linear)" stroke="url(#paint114_linear)" stroke-width=".1" stroke-miterlimit="10.4"/><path d="M328 261l-2-1v2c1 1 2 0 2-1z" fill="url(#paint115_linear)" stroke="url(#paint116_linear)" stroke-width=".1" stroke-miterlimit="10.4"/><path d="M368 260l-1 2 2 1c1-1 0-2-1-3z" fill="url(#paint117_linear)" stroke="url(#paint118_linear)" stroke-width=".1" stroke-miterlimit="10.4"/><path d="M406 271c-1-1-3 0-2 1 0 1 1 2 2 1v-2z" fill="url(#paint119_linear)" stroke="url(#paint120_linear)" stroke-width=".1" stroke-miterlimit="10.4"/><path d="M444 290l-2 2h3l-1-2z" fill="url(#paint121_linear)" stroke="url(#paint122_linear)" stroke-width=".1" stroke-miterlimit="10.4"/><path d="M292 292c-1 0-2 1-1 2h2l17 17v2l-21 14h-2l-1 1 1 1-1 11-2 1 2 1v-2l1-11h2v-2l21-14h2v-2h-2l-17-17-1-2z" fill="url(#paint123_linear)" stroke="url(#paint124_linear)" stroke-width=".1" stroke-miterlimit="10.4"/><path d="M404 294h-2l1 2 2-1-1-1z" fill="url(#paint125_linear)" stroke="url(#paint126_linear)" stroke-width=".1" stroke-miterlimit="10.4"/><path d="M227 295l-2-2v3l2-1z" fill="url(#paint127_linear)" stroke="url(#paint128_linear)" stroke-width=".1" stroke-miterlimit="10.4"/><path d="M317 306l-1-1-1 1 1 1 1-1s0 0 0 0z" fill="url(#paint129_linear)" stroke="url(#paint130_linear)" stroke-width=".1" stroke-miterlimit="10.4"/><path d="M412 306l-2 2 3 1c1-1 0-2-1-3z" fill="url(#paint131_linear)" stroke="url(#paint132_linear)" stroke-width=".1" stroke-miterlimit="10.4"/><path d="M472 311l-2 1c0 1 1 2 2 1v-2z" fill="url(#paint133_linear)" stroke="url(#paint134_linear)" stroke-width=".1" stroke-miterlimit="10.4"/><path d="M237 320c-2 0-3 2-2 2h2v-2z" fill="url(#paint135_linear)" stroke="url(#paint136_linear)" stroke-width=".1" stroke-miterlimit="10.4"/><path d="M457 330l-2 1c-1 1 0 2 1 2s2-1 1-2v-1z" fill="url(#paint137_linear)" stroke="url(#paint138_linear)" stroke-width=".1" stroke-miterlimit="10.4"/><path d="M227 332l-1-1-1 2h2l18 3 1 2 1-2-1-1-1 1-18-4z" fill="url(#paint139_linear)" stroke="url(#paint140_linear)" stroke-width=".1" stroke-miterlimit="10.4"/><path d="M306 333l-1 1c0 1 1 2 2 1s0-2-1-2z" fill="url(#paint141_linear)" stroke="url(#paint142_linear)" stroke-width=".1" stroke-miterlimit="10.4"/><path d="M261 333l-2 2h2v-2z" fill="url(#paint143_linear)" stroke="url(#paint144_linear)" stroke-width=".1" stroke-miterlimit="10.4"/><path d="M426 343c-1-1-2 0-2 1s2 2 3 1l-1-2z" fill="url(#paint145_linear)" stroke="url(#paint146_linear)" stroke-width=".1" stroke-miterlimit="10.4"/><path d="M430 343l-2 2h2v-2z" fill="url(#paint147_linear)" stroke="url(#paint148_linear)" stroke-width=".1" stroke-miterlimit="10.4"/><path d="M554 344c-1-1-2 0-2 1l2 1v-2z" fill="url(#paint149_linear)" stroke="url(#paint150_linear)" stroke-width=".1" stroke-miterlimit="10.4"/><path d="M519 345l-2 2c0 1 1 2 2 1v-3z" fill="url(#paint151_linear)" stroke="url(#paint152_linear)" stroke-width=".1" stroke-miterlimit="10.4"/><path d="M312 350v-2c-1-1-2 0-2 1l2 1 5 17-1 2h2l-1-2-5-16v-1z" fill="url(#paint153_linear)" stroke="url(#paint154_linear)" stroke-width=".1" stroke-miterlimit="10.4"/><path d="M297 363c-1-1-2 0-1 1l2 1-1-2z" fill="url(#paint155_linear)" stroke="url(#paint156_linear)" stroke-width=".1" stroke-miterlimit="10.4"/><path d="M259 384l-2 2h2v-2z" fill="url(#paint157_linear)" stroke="url(#paint158_linear)" stroke-width=".1" stroke-miterlimit="10.4"/><path d="M579 385l-2 2h3l-1-2z" fill="url(#paint159_linear)" stroke="url(#paint160_linear)" stroke-width=".1" stroke-miterlimit="10.4"/><path d="M520 386c-1-1-2 1-2 2h3c1-1 0-2-1-2z" fill="url(#paint161_linear)" stroke="url(#paint162_linear)" stroke-width=".1" stroke-miterlimit="10.4"/><path d="M390 395l-1-1-2 1 2 2 1-1 14 2 1 1c1 1 2 0 2-1l-2-1-1 1-9-2-5-1z" fill="url(#paint163_linear)" stroke="url(#paint164_linear)" stroke-width=".1" stroke-miterlimit="10.4"/><path d="M452 402l-1-1h-1v1l1 1v17l-2 2 3 1-1-3v-8-9l1-1z" fill="url(#paint165_linear)" stroke="url(#paint166_linear)" stroke-width=".1" stroke-miterlimit="10.4"/><path d="M589 406c1-1-1-2-2-1v2l-5 10-1 1c-1 2 1 2 2 2v-3a329 329 0 016-11z" fill="url(#paint167_linear)" stroke="url(#paint168_linear)" stroke-width=".1" stroke-miterlimit="10.4"/><path d="M385 409c-1-1-2 0-2 1l1 1 1-2z" fill="url(#paint169_linear)" stroke="url(#paint170_linear)" stroke-width=".1" stroke-miterlimit="10.4"/><path d="M448 421c-1-1-2 0-2 1s1 2 2 1v-2z" fill="url(#paint171_linear)" stroke="url(#paint172_linear)" stroke-width=".1" stroke-miterlimit="10.4"/><path d="M379 421l-2 1c0 1 2 2 3 1l-1-2z" fill="url(#paint173_linear)" stroke="url(#paint174_linear)" stroke-width=".1" stroke-miterlimit="10.4"/><path d="M614 428c-1-1-2 0-2 1s1 2 2 1l1-1 21 2 1 2 2-1-2-2-1 1-21-2-1-1z" fill="url(#paint175_linear)" stroke="url(#paint176_linear)" stroke-width=".1" stroke-miterlimit="10.4"/><path d="M427 435l-1-2-1 1v1h2z" fill="url(#paint177_linear)" stroke="url(#paint178_linear)" stroke-width=".1" stroke-miterlimit="10.4"/><path d="M385 461h-2v2l2-1 9 4 1 1 2-1c0-1-1-2-2-1h-1l-9-3v-1z" fill="url(#paint179_linear)" stroke="url(#paint180_linear)" stroke-width=".1" stroke-miterlimit="10.4"/><path d="M648 474l-1-1-2 1 2 2 1-1 22 3c0 1 2 2 3 1s0-2-1-2l-1 1-20-3-3-1z" fill="url(#paint181_linear)" stroke="url(#paint182_linear)" stroke-width=".1" stroke-miterlimit="10.4"/><path d="M367 482c-1-1-2 0-2 1s1 2 2 1v-2z" fill="url(#paint183_linear)" stroke="url(#paint184_linear)" stroke-width=".1" stroke-miterlimit="10.4"/><path d="M723 490c1-1 0-2-1-2l-1 3-7 7h-2v2c1 1 2 0 2-1v-1l7-7 2-1z" fill="url(#paint185_linear)" stroke="url(#paint186_linear)" stroke-width=".1" stroke-miterlimit="10.4"/><path d="M644 509l-2 1 2 2v-3z" fill="url(#paint187_linear)" stroke="url(#paint188_linear)" stroke-width=".1" stroke-miterlimit="10.4"/><path d="M674 510h-2l-1 1-18 1-3 1-1-1-2 1c0 1 1 2 2 1l9 10 1 2h2l14 8v2c1 0 3-1 2-2l-1-1-1-17 1-1c1-1-1-2-1-2v-1l-1-2zm-2 2l2 2v1l-13 9h-1-1l-9-10v-1l22-2v1zm3 4v8l-1-8h1zm-1 0l2 17h-2l-13-7v-1l13-9z" fill="url(#paint189_linear)" stroke="url(#paint190_linear)" stroke-width=".1" stroke-miterlimit="10.4"/><path d="M669 568h-3v1l-8 2h-1c-1-1-2 0-2 1s1 2 2 1l1-1 8-3 1 1 2-2z" fill="url(#paint191_linear)" stroke="url(#paint192_linear)" stroke-width=".1" stroke-miterlimit="10.4"/></g><defs><linearGradient id="paint0_linear" x1="318.7" y1=".1" x2="318.7" y2="579.7" gradientUnits="userSpaceOnUse"><stop stop-color="#A4FFFF"/><stop offset="1" stop-color="#ABB7E3" stop-opacity="0"/></linearGradient><linearGradient id="paint1_linear" x1="130.7" y1="16.7" x2="130.7" y2="19.3" gradientUnits="userSpaceOnUse"><stop stop-color="#A4FFFF"/><stop offset="1" stop-color="#ABB7E3" stop-opacity="0"/></linearGradient><linearGradient id="paint2_linear" x1="130.7" y1="16.7" x2="130.7" y2="19.3" gradientUnits="userSpaceOnUse"><stop stop-color="#A4FFFF"/><stop offset="1" stop-color="#ABB7E3" stop-opacity="0"/></linearGradient><linearGradient id="paint3_linear" x1="188.6" y1="18.8" x2="188.6" y2="21.4" gradientUnits="userSpaceOnUse"><stop stop-color="#A4FFFF"/><stop offset="1" stop-color="#ABB7E3" stop-opacity="0"/></linearGradient><linearGradient id="paint4_linear" x1="188.6" y1="18.8" x2="188.6" y2="21.4" gradientUnits="userSpaceOnUse"><stop stop-color="#A4FFFF"/><stop offset="1" stop-color="#ABB7E3" stop-opacity="0"/></linearGradient><linearGradient id="paint5_linear" x1="110.9" y1="23.4" x2="110.9" y2="26" gradientUnits="userSpaceOnUse"><stop stop-color="#A4FFFF"/><stop offset="1" stop-color="#ABB7E3" stop-opacity="0"/></linearGradient><linearGradient id="paint6_linear" x1="110.9" y1="23.4" x2="110.9" y2="26" gradientUnits="userSpaceOnUse"><stop stop-color="#A4FFFF"/><stop offset="1" stop-color="#ABB7E3" stop-opacity="0"/></linearGradient><linearGradient id="paint7_linear" x1="97.1" y1="26" x2="97.1" y2="28.7" gradientUnits="userSpaceOnUse"><stop stop-color="#A4FFFF"/><stop offset="1" stop-color="#ABB7E3" stop-opacity="0"/></linearGradient><linearGradient id="paint8_linear" x1="97.1" y1="26" x2="97.1" y2="28.7" gradientUnits="userSpaceOnUse"><stop stop-color="#A4FFFF"/><stop offset="1" stop-color="#ABB7E3" stop-opacity="0"/></linearGradient><linearGradient id="paint9_linear" x1="302.4" y1="27.4" x2="302.4" y2="29.9" gradientUnits="userSpaceOnUse"><stop stop-color="#A4FFFF"/><stop offset="1" stop-color="#ABB7E3" stop-opacity="0"/></linearGradient><linearGradient id="paint10_linear" x1="302.4" y1="27.4" x2="302.4" y2="29.9" gradientUnits="userSpaceOnUse"><stop stop-color="#A4FFFF"/><stop offset="1" stop-color="#ABB7E3" stop-opacity="0"/></linearGradient><linearGradient id="paint11_linear" x1="267.8" y1="34.1" x2="267.8" y2="36.6" gradientUnits="userSpaceOnUse"><stop stop-color="#A4FFFF"/><stop offset="1" stop-color="#ABB7E3" stop-opacity="0"/></linearGradient><linearGradient id="paint12_linear" x1="267.8" y1="34.1" x2="267.8" y2="36.6" gradientUnits="userSpaceOnUse"><stop stop-color="#A4FFFF"/><stop offset="1" stop-color="#ABB7E3" stop-opacity="0"/></linearGradient><linearGradient id="paint13_linear" x1="202.4" y1="36.2" x2="202.4" y2="53.9" gradientUnits="userSpaceOnUse"><stop stop-color="#A4FFFF"/><stop offset="1" stop-color="#ABB7E3" stop-opacity="0"/></linearGradient><linearGradient id="paint14_linear" x1="202.4" y1="36.2" x2="202.4" y2="53.9" gradientUnits="userSpaceOnUse"><stop stop-color="#A4FFFF"/><stop offset="1" stop-color="#ABB7E3" stop-opacity="0"/></linearGradient><linearGradient id="paint15_linear" x1="165.1" y1="36.9" x2="165.1" y2="39.7" gradientUnits="userSpaceOnUse"><stop stop-color="#A4FFFF"/><stop offset="1" stop-color="#ABB7E3" stop-opacity="0"/></linearGradient><linearGradient id="paint16_linear" x1="165.1" y1="36.9" x2="165.1" y2="39.7" gradientUnits="userSpaceOnUse"><stop stop-color="#A4FFFF"/><stop offset="1" stop-color="#ABB7E3" stop-opacity="0"/></linearGradient><linearGradient id="paint17_linear" x1="328.5" y1="43" x2="328.5" y2="49.8" gradientUnits="userSpaceOnUse"><stop stop-color="#A4FFFF"/><stop offset="1" stop-color="#ABB7E3" stop-opacity="0"/></linearGradient><linearGradient id="paint18_linear" x1="328.5" y1="43" x2="328.5" y2="49.8" gradientUnits="userSpaceOnUse"><stop stop-color="#A4FFFF"/><stop offset="1" stop-color="#ABB7E3" stop-opacity="0"/></linearGradient><linearGradient id="paint19_linear" x1="278.7" y1="48.7" x2="278.7" y2="51.7" gradientUnits="userSpaceOnUse"><stop stop-color="#A4FFFF"/><stop offset="1" stop-color="#ABB7E3" stop-opacity="0"/></linearGradient><linearGradient id="paint20_linear" x1="278.7" y1="48.7" x2="278.7" y2="51.7" gradientUnits="userSpaceOnUse"><stop stop-color="#A4FFFF"/><stop offset="1" stop-color="#ABB7E3" stop-opacity="0"/></linearGradient><linearGradient id="paint21_linear" x1="161.2" y1="54.5" x2="161.2" y2="57.1" gradientUnits="userSpaceOnUse"><stop stop-color="#A4FFFF"/><stop offset="1" stop-color="#ABB7E3" stop-opacity="0"/></linearGradient><linearGradient id="paint22_linear" x1="161.2" y1="54.5" x2="161.2" y2="57.1" gradientUnits="userSpaceOnUse"><stop stop-color="#A4FFFF"/><stop offset="1" stop-color="#ABB7E3" stop-opacity="0"/></linearGradient><linearGradient id="paint23_linear" x1="298.9" y1="55.1" x2="298.9" y2="57.5" gradientUnits="userSpaceOnUse"><stop stop-color="#A4FFFF"/><stop offset="1" stop-color="#ABB7E3" stop-opacity="0"/></linearGradient><linearGradient id="paint24_linear" x1="298.9" y1="55.1" x2="298.9" y2="57.5" gradientUnits="userSpaceOnUse"><stop stop-color="#A4FFFF"/><stop offset="1" stop-color="#ABB7E3" stop-opacity="0"/></linearGradient><linearGradient id="paint25_linear" x1="101.9" y1="61.2" x2="101.9" y2="68.4" gradientUnits="userSpaceOnUse"><stop stop-color="#A4FFFF"/><stop offset="1" stop-color="#ABB7E3" stop-opacity="0"/></linearGradient><linearGradient id="paint26_linear" x1="101.9" y1="61.2" x2="101.9" y2="68.4" gradientUnits="userSpaceOnUse"><stop stop-color="#A4FFFF"/><stop offset="1" stop-color="#ABB7E3" stop-opacity="0"/></linearGradient><linearGradient id="paint27_linear" x1="251.4" y1="67" x2="251.4" y2="71.6" gradientUnits="userSpaceOnUse"><stop stop-color="#A4FFFF"/><stop offset="1" stop-color="#ABB7E3" stop-opacity="0"/></linearGradient><linearGradient id="paint28_linear" x1="251.4" y1="67" x2="251.4" y2="71.6" gradientUnits="userSpaceOnUse"><stop stop-color="#A4FFFF"/><stop offset="1" stop-color="#ABB7E3" stop-opacity="0"/></linearGradient><linearGradient id="paint29_linear" x1="388.8" y1="67.4" x2="388.8" y2="69.7" gradientUnits="userSpaceOnUse"><stop stop-color="#A4FFFF"/><stop offset="1" stop-color="#ABB7E3" stop-opacity="0"/></linearGradient><linearGradient id="paint30_linear" x1="388.8" y1="67.4" x2="388.8" y2="69.7" gradientUnits="userSpaceOnUse"><stop stop-color="#A4FFFF"/><stop offset="1" stop-color="#ABB7E3" stop-opacity="0"/></linearGradient><linearGradient id="paint31_linear" x1="291.3" y1="67.8" x2="291.3" y2="70.1" gradientUnits="userSpaceOnUse"><stop stop-color="#A4FFFF"/><stop offset="1" stop-color="#ABB7E3" stop-opacity="0"/></linearGradient><linearGradient id="paint32_linear" x1="291.3" y1="67.8" x2="291.3" y2="70.1" gradientUnits="userSpaceOnUse"><stop stop-color="#A4FFFF"/><stop offset="1" stop-color="#ABB7E3" stop-opacity="0"/></linearGradient><linearGradient id="paint33_linear" x1="472.6" y1="72.6" x2="472.6" y2="75" gradientUnits="userSpaceOnUse"><stop stop-color="#A4FFFF"/><stop offset="1" stop-color="#ABB7E3" stop-opacity="0"/></linearGradient><linearGradient id="paint34_linear" x1="472.6" y1="72.6" x2="472.6" y2="75" gradientUnits="userSpaceOnUse"><stop stop-color="#A4FFFF"/><stop offset="1" stop-color="#ABB7E3" stop-opacity="0"/></linearGradient><linearGradient id="paint35_linear" x1="441.5" y1="74.3" x2="441.5" y2="76.7" gradientUnits="userSpaceOnUse"><stop stop-color="#A4FFFF"/><stop offset="1" stop-color="#ABB7E3" stop-opacity="0"/></linearGradient><linearGradient id="paint36_linear" x1="441.5" y1="74.3" x2="441.5" y2="76.7" gradientUnits="userSpaceOnUse"><stop stop-color="#A4FFFF"/><stop offset="1" stop-color="#ABB7E3" stop-opacity="0"/></linearGradient><linearGradient id="paint37_linear" x1="242.2" y1="75.8" x2="242.2" y2="99.5" gradientUnits="userSpaceOnUse"><stop stop-color="#A4FFFF"/><stop offset="1" stop-color="#ABB7E3" stop-opacity="0"/></linearGradient><linearGradient id="paint38_linear" x1="242.2" y1="75.8" x2="242.2" y2="99.5" gradientUnits="userSpaceOnUse"><stop stop-color="#A4FFFF"/><stop offset="1" stop-color="#ABB7E3" stop-opacity="0"/></linearGradient><linearGradient id="paint39_linear" x1="285" y1="77.9" x2="285" y2="112.7" gradientUnits="userSpaceOnUse"><stop stop-color="#A4FFFF"/><stop offset="1" stop-color="#ABB7E3" stop-opacity="0"/></linearGradient><linearGradient id="paint40_linear" x1="285" y1="77.9" x2="285" y2="112.7" gradientUnits="userSpaceOnUse"><stop stop-color="#A4FFFF"/><stop offset="1" stop-color="#ABB7E3" stop-opacity="0"/></linearGradient><linearGradient id="paint41_linear" x1="323.8" y1="79" x2="323.8" y2="81.5" gradientUnits="userSpaceOnUse"><stop stop-color="#A4FFFF"/><stop offset="1" stop-color="#ABB7E3" stop-opacity="0"/></linearGradient><linearGradient id="paint42_linear" x1="323.8" y1="79" x2="323.8" y2="81.5" gradientUnits="userSpaceOnUse"><stop stop-color="#A4FFFF"/><stop offset="1" stop-color="#ABB7E3" stop-opacity="0"/></linearGradient><linearGradient id="paint43_linear" x1="400.1" y1="81.9" x2="400.1" y2="84.2" gradientUnits="userSpaceOnUse"><stop stop-color="#A4FFFF"/><stop offset="1" stop-color="#ABB7E3" stop-opacity="0"/></linearGradient><linearGradient id="paint44_linear" x1="400.1" y1="81.9" x2="400.1" y2="84.2" gradientUnits="userSpaceOnUse"><stop stop-color="#A4FFFF"/><stop offset="1" stop-color="#ABB7E3" stop-opacity="0"/></linearGradient><linearGradient id="paint45_linear" x1="166.3" y1="84.3" x2="166.3" y2="131" gradientUnits="userSpaceOnUse"><stop stop-color="#A4FFFF"/><stop offset="1" stop-color="#ABB7E3" stop-opacity="0"/></linearGradient><linearGradient id="paint46_linear" x1="166.3" y1="84.3" x2="166.3" y2="131" gradientUnits="userSpaceOnUse"><stop stop-color="#A4FFFF"/><stop offset="1" stop-color="#ABB7E3" stop-opacity="0"/></linearGradient><linearGradient id="paint47_linear" x1="148.2" y1="85.7" x2="148.2" y2="88.4" gradientUnits="userSpaceOnUse"><stop stop-color="#A4FFFF"/><stop offset="1" stop-color="#ABB7E3" stop-opacity="0"/></linearGradient><linearGradient id="paint48_linear" x1="148.2" y1="85.7" x2="148.2" y2="88.4" gradientUnits="userSpaceOnUse"><stop stop-color="#A4FFFF"/><stop offset="1" stop-color="#ABB7E3" stop-opacity="0"/></linearGradient><linearGradient id="paint49_linear" x1="454" y1="86.5" x2="454" y2="88.9" gradientUnits="userSpaceOnUse"><stop stop-color="#A4FFFF"/><stop offset="1" stop-color="#ABB7E3" stop-opacity="0"/></linearGradient><linearGradient id="paint50_linear" x1="454" y1="86.5" x2="454" y2="88.9" gradientUnits="userSpaceOnUse"><stop stop-color="#A4FFFF"/><stop offset="1" stop-color="#ABB7E3" stop-opacity="0"/></linearGradient><linearGradient id="paint51_linear" x1="213" y1="88.2" x2="213" y2="121" gradientUnits="userSpaceOnUse"><stop stop-color="#A4FFFF"/><stop offset="1" stop-color="#ABB7E3" stop-opacity="0"/></linearGradient><linearGradient id="paint52_linear" x1="213" y1="88.2" x2="213" y2="121" gradientUnits="userSpaceOnUse"><stop stop-color="#A4FFFF"/><stop offset="1" stop-color="#ABB7E3" stop-opacity="0"/></linearGradient><linearGradient id="paint53_linear" x1="260.3" y1="88.6" x2="260.3" y2="91.3" gradientUnits="userSpaceOnUse"><stop stop-color="#A4FFFF"/><stop offset="1" stop-color="#ABB7E3" stop-opacity="0"/></linearGradient><linearGradient id="paint54_linear" x1="260.3" y1="88.6" x2="260.3" y2="91.3" gradientUnits="userSpaceOnUse"><stop stop-color="#A4FFFF"/><stop offset="1" stop-color="#ABB7E3" stop-opacity="0"/></linearGradient><linearGradient id="paint55_linear" x1="113.2" y1="88.4" x2="113.2" y2="91.1" gradientUnits="userSpaceOnUse"><stop stop-color="#A4FFFF"/><stop offset="1" stop-color="#ABB7E3" stop-opacity="0"/></linearGradient><linearGradient id="paint56_linear" x1="113.2" y1="88.4" x2="113.2" y2="91.1" gradientUnits="userSpaceOnUse"><stop stop-color="#A4FFFF"/><stop offset="1" stop-color="#ABB7E3" stop-opacity="0"/></linearGradient><linearGradient id="paint57_linear" x1="109.4" y1="90.6" x2="109.4" y2="93.5" gradientUnits="userSpaceOnUse"><stop stop-color="#A4FFFF"/><stop offset="1" stop-color="#ABB7E3" stop-opacity="0"/></linearGradient><linearGradient id="paint58_linear" x1="109.4" y1="90.6" x2="109.4" y2="93.5" gradientUnits="userSpaceOnUse"><stop stop-color="#A4FFFF"/><stop offset="1" stop-color="#ABB7E3" stop-opacity="0"/></linearGradient><linearGradient id="paint59_linear" x1="239.8" y1="97.8" x2="239.8" y2="100.1" gradientUnits="userSpaceOnUse"><stop stop-color="#A4FFFF"/><stop offset="1" stop-color="#ABB7E3" stop-opacity="0"/></linearGradient><linearGradient id="paint60_linear" x1="239.8" y1="97.8" x2="239.8" y2="100.1" gradientUnits="userSpaceOnUse"><stop stop-color="#A4FFFF"/><stop offset="1" stop-color="#ABB7E3" stop-opacity="0"/></linearGradient><linearGradient id="paint61_linear" x1="311.2" y1="102.3" x2="311.2" y2="104.9" gradientUnits="userSpaceOnUse"><stop stop-color="#A4FFFF"/><stop offset="1" stop-color="#ABB7E3" stop-opacity="0"/></linearGradient><linearGradient id="paint62_linear" x1="311.2" y1="102.3" x2="311.2" y2="104.9" gradientUnits="userSpaceOnUse"><stop stop-color="#A4FFFF"/><stop offset="1" stop-color="#ABB7E3" stop-opacity="0"/></linearGradient><linearGradient id="paint63_linear" x1="499.7" y1="119.1" x2="499.7" y2="121.5" gradientUnits="userSpaceOnUse"><stop stop-color="#A4FFFF"/><stop offset="1" stop-color="#ABB7E3" stop-opacity="0"/></linearGradient><linearGradient id="paint64_linear" x1="499.7" y1="119.1" x2="499.7" y2="121.5" gradientUnits="userSpaceOnUse"><stop stop-color="#A4FFFF"/><stop offset="1" stop-color="#ABB7E3" stop-opacity="0"/></linearGradient><linearGradient id="paint65_linear" x1="431.9" y1="120.1" x2="431.9" y2="122.5" gradientUnits="userSpaceOnUse"><stop stop-color="#A4FFFF"/><stop offset="1" stop-color="#ABB7E3" stop-opacity="0"/></linearGradient><linearGradient id="paint66_linear" x1="431.9" y1="120.1" x2="431.9" y2="122.5" gradientUnits="userSpaceOnUse"><stop stop-color="#A4FFFF"/><stop offset="1" stop-color="#ABB7E3" stop-opacity="0"/></linearGradient><linearGradient id="paint67_linear" x1="276.3" y1="124.3" x2="276.3" y2="162.7" gradientUnits="userSpaceOnUse"><stop stop-color="#A4FFFF"/><stop offset="1" stop-color="#ABB7E3" stop-opacity="0"/></linearGradient><linearGradient id="paint68_linear" x1="276.3" y1="124.3" x2="276.3" y2="162.7" gradientUnits="userSpaceOnUse"><stop stop-color="#A4FFFF"/><stop offset="1" stop-color="#ABB7E3" stop-opacity="0"/></linearGradient><linearGradient id="paint69_linear" x1="211.5" y1="126.7" x2="211.5" y2="141.3" gradientUnits="userSpaceOnUse"><stop stop-color="#A4FFFF"/><stop offset="1" stop-color="#ABB7E3" stop-opacity="0"/></linearGradient><linearGradient id="paint70_linear" x1="211.5" y1="126.7" x2="211.5" y2="141.3" gradientUnits="userSpaceOnUse"><stop stop-color="#A4FFFF"/><stop offset="1" stop-color="#ABB7E3" stop-opacity="0"/></linearGradient><linearGradient id="paint71_linear" x1="320.6" y1="129.6" x2="320.6" y2="132.1" gradientUnits="userSpaceOnUse"><stop stop-color="#A4FFFF"/><stop offset="1" stop-color="#ABB7E3" stop-opacity="0"/></linearGradient><linearGradient id="paint72_linear" x1="320.6" y1="129.6" x2="320.6" y2="132.1" gradientUnits="userSpaceOnUse"><stop stop-color="#A4FFFF"/><stop offset="1" stop-color="#ABB7E3" stop-opacity="0"/></linearGradient><linearGradient id="paint73_linear" x1="344.2" y1="142.5" x2="344.2" y2="145" gradientUnits="userSpaceOnUse"><stop stop-color="#A4FFFF"/><stop offset="1" stop-color="#ABB7E3" stop-opacity="0"/></linearGradient><linearGradient id="paint74_linear" x1="344.2" y1="142.5" x2="344.2" y2="145" gradientUnits="userSpaceOnUse"><stop stop-color="#A4FFFF"/><stop offset="1" stop-color="#ABB7E3" stop-opacity="0"/></linearGradient><linearGradient id="paint75_linear" x1="234.2" y1="148.5" x2="234.2" y2="150.9" gradientUnits="userSpaceOnUse"><stop stop-color="#A4FFFF"/><stop offset="1" stop-color="#ABB7E3" stop-opacity="0"/></linearGradient><linearGradient id="paint76_linear" x1="234.2" y1="148.5" x2="234.2" y2="150.9" gradientUnits="userSpaceOnUse"><stop stop-color="#A4FFFF"/><stop offset="1" stop-color="#ABB7E3" stop-opacity="0"/></linearGradient><linearGradient id="paint77_linear" x1="96.3" y1="153.2" x2="96.3" y2="226.6" gradientUnits="userSpaceOnUse"><stop stop-color="#A4FFFF"/><stop offset="1" stop-color="#ABB7E3" stop-opacity="0"/></linearGradient><linearGradient id="paint78_linear" x1="96.3" y1="153.2" x2="96.3" y2="226.6" gradientUnits="userSpaceOnUse"><stop stop-color="#A4FFFF"/><stop offset="1" stop-color="#ABB7E3" stop-opacity="0"/></linearGradient><linearGradient id="paint79_linear" x1="290.8" y1="159.6" x2="290.8" y2="162.1" gradientUnits="userSpaceOnUse"><stop stop-color="#A4FFFF"/><stop offset="1" stop-color="#ABB7E3" stop-opacity="0"/></linearGradient><linearGradient id="paint80_linear" x1="290.8" y1="159.6" x2="290.8" y2="162.1" gradientUnits="userSpaceOnUse"><stop stop-color="#A4FFFF"/><stop offset="1" stop-color="#ABB7E3" stop-opacity="0"/></linearGradient><linearGradient id="paint81_linear" x1="356.4" y1="163.5" x2="356.4" y2="166.4" gradientUnits="userSpaceOnUse"><stop stop-color="#A4FFFF"/><stop offset="1" stop-color="#ABB7E3" stop-opacity="0"/></linearGradient><linearGradient id="paint82_linear" x1="356.4" y1="163.5" x2="356.4" y2="166.4" gradientUnits="userSpaceOnUse"><stop stop-color="#A4FFFF"/><stop offset="1" stop-color="#ABB7E3" stop-opacity="0"/></linearGradient><linearGradient id="paint83_linear" x1="108.6" y1="166" x2="108.6" y2="213.1" gradientUnits="userSpaceOnUse"><stop stop-color="#A4FFFF"/><stop offset="1" stop-color="#ABB7E3" stop-opacity="0"/></linearGradient><linearGradient id="paint84_linear" x1="108.6" y1="166" x2="108.6" y2="213.1" gradientUnits="userSpaceOnUse"><stop stop-color="#A4FFFF"/><stop offset="1" stop-color="#ABB7E3" stop-opacity="0"/></linearGradient><linearGradient id="paint85_linear" x1="363.8" y1="177.6" x2="363.8" y2="180.3" gradientUnits="userSpaceOnUse"><stop stop-color="#A4FFFF"/><stop offset="1" stop-color="#ABB7E3" stop-opacity="0"/></linearGradient><linearGradient id="paint86_linear" x1="363.8" y1="177.6" x2="363.8" y2="180.3" gradientUnits="userSpaceOnUse"><stop stop-color="#A4FFFF"/><stop offset="1" stop-color="#ABB7E3" stop-opacity="0"/></linearGradient><linearGradient id="paint87_linear" x1="159" y1="187.4" x2="159" y2="227.8" gradientUnits="userSpaceOnUse"><stop stop-color="#A4FFFF"/><stop offset="1" stop-color="#ABB7E3" stop-opacity="0"/></linearGradient><linearGradient id="paint88_linear" x1="159" y1="187.4" x2="159" y2="227.8" gradientUnits="userSpaceOnUse"><stop stop-color="#A4FFFF"/><stop offset="1" stop-color="#ABB7E3" stop-opacity="0"/></linearGradient><linearGradient id="paint89_linear" x1="194.9" y1="192" x2="194.9" y2="194.6" gradientUnits="userSpaceOnUse"><stop stop-color="#A4FFFF"/><stop offset="1" stop-color="#ABB7E3" stop-opacity="0"/></linearGradient><linearGradient id="paint90_linear" x1="194.9" y1="192" x2="194.9" y2="194.6" gradientUnits="userSpaceOnUse"><stop stop-color="#A4FFFF"/><stop offset="1" stop-color="#ABB7E3" stop-opacity="0"/></linearGradient><linearGradient id="paint91_linear" x1="321.7" y1="194.1" x2="321.7" y2="203.3" gradientUnits="userSpaceOnUse"><stop stop-color="#A4FFFF"/><stop offset="1" stop-color="#ABB7E3" stop-opacity="0"/></linearGradient><linearGradient id="paint92_linear" x1="321.7" y1="194.1" x2="321.7" y2="203.3" gradientUnits="userSpaceOnUse"><stop stop-color="#A4FFFF"/><stop offset="1" stop-color="#ABB7E3" stop-opacity="0"/></linearGradient><linearGradient id="paint93_linear" x1="360" y1="204.3" x2="360" y2="233.1" gradientUnits="userSpaceOnUse"><stop stop-color="#A4FFFF"/><stop offset="1" stop-color="#ABB7E3" stop-opacity="0"/></linearGradient><linearGradient id="paint94_linear" x1="360" y1="204.3" x2="360" y2="233.1" gradientUnits="userSpaceOnUse"><stop stop-color="#A4FFFF"/><stop offset="1" stop-color="#ABB7E3" stop-opacity="0"/></linearGradient><linearGradient id="paint95_linear" x1="431.7" y1="208.7" x2="431.7" y2="211.5" gradientUnits="userSpaceOnUse"><stop stop-color="#A4FFFF"/><stop offset="1" stop-color="#ABB7E3" stop-opacity="0"/></linearGradient><linearGradient id="paint96_linear" x1="431.7" y1="208.7" x2="431.7" y2="211.5" gradientUnits="userSpaceOnUse"><stop stop-color="#A4FFFF"/><stop offset="1" stop-color="#ABB7E3" stop-opacity="0"/></linearGradient><linearGradient id="paint97_linear" x1="105.9" y1="209.4" x2="105.9" y2="220.4" gradientUnits="userSpaceOnUse"><stop stop-color="#A4FFFF"/><stop offset="1" stop-color="#ABB7E3" stop-opacity="0"/></linearGradient><linearGradient id="paint98_linear" x1="105.9" y1="209.4" x2="105.9" y2="220.4" gradientUnits="userSpaceOnUse"><stop stop-color="#A4FFFF"/><stop offset="1" stop-color="#ABB7E3" stop-opacity="0"/></linearGradient><linearGradient id="paint99_linear" x1="404.4" y1="214.2" x2="404.4" y2="216.8" gradientUnits="userSpaceOnUse"><stop stop-color="#A4FFFF"/><stop offset="1" stop-color="#ABB7E3" stop-opacity="0"/></linearGradient><linearGradient id="paint100_linear" x1="404.4" y1="214.2" x2="404.4" y2="216.8" gradientUnits="userSpaceOnUse"><stop stop-color="#A4FFFF"/><stop offset="1" stop-color="#ABB7E3" stop-opacity="0"/></linearGradient><linearGradient id="paint101_linear" x1="385.3" y1="216.2" x2="385.3" y2="253.2" gradientUnits="userSpaceOnUse"><stop stop-color="#A4FFFF"/><stop offset="1" stop-color="#ABB7E3" stop-opacity="0"/></linearGradient><linearGradient id="paint102_linear" x1="385.3" y1="216.2" x2="385.3" y2="253.2" gradientUnits="userSpaceOnUse"><stop stop-color="#A4FFFF"/><stop offset="1" stop-color="#ABB7E3" stop-opacity="0"/></linearGradient><linearGradient id="paint103_linear" x1="89.2" y1="240.3" x2="89.2" y2="251.2" gradientUnits="userSpaceOnUse"><stop stop-color="#A4FFFF"/><stop offset="1" stop-color="#ABB7E3" stop-opacity="0"/></linearGradient><linearGradient id="paint104_linear" x1="89.2" y1="240.3" x2="89.2" y2="251.2" gradientUnits="userSpaceOnUse"><stop stop-color="#A4FFFF"/><stop offset="1" stop-color="#ABB7E3" stop-opacity="0"/></linearGradient><linearGradient id="paint105_linear" x1="372.8" y1="245.3" x2="372.8" y2="295.5" gradientUnits="userSpaceOnUse"><stop stop-color="#A4FFFF"/><stop offset="1" stop-color="#ABB7E3" stop-opacity="0"/></linearGradient><linearGradient id="paint106_linear" x1="372.8" y1="245.3" x2="372.8" y2="295.5" gradientUnits="userSpaceOnUse"><stop stop-color="#A4FFFF"/><stop offset="1" stop-color="#ABB7E3" stop-opacity="0"/></linearGradient><linearGradient id="paint107_linear" x1="173.2" y1="253" x2="173.2" y2="255.8" gradientUnits="userSpaceOnUse"><stop stop-color="#A4FFFF"/><stop offset="1" stop-color="#ABB7E3" stop-opacity="0"/></linearGradient><linearGradient id="paint108_linear" x1="173.2" y1="253" x2="173.2" y2="255.8" gradientUnits="userSpaceOnUse"><stop stop-color="#A4FFFF"/><stop offset="1" stop-color="#ABB7E3" stop-opacity="0"/></linearGradient><linearGradient id="paint109_linear" x1="441.6" y1="256.1" x2="441.6" y2="258.8" gradientUnits="userSpaceOnUse"><stop stop-color="#A4FFFF"/><stop offset="1" stop-color="#ABB7E3" stop-opacity="0"/></linearGradient><linearGradient id="paint110_linear" x1="441.6" y1="256.1" x2="441.6" y2="258.8" gradientUnits="userSpaceOnUse"><stop stop-color="#A4FFFF"/><stop offset="1" stop-color="#ABB7E3" stop-opacity="0"/></linearGradient><linearGradient id="paint111_linear" x1="335.7" y1="258" x2="335.7" y2="260.7" gradientUnits="userSpaceOnUse"><stop stop-color="#A4FFFF"/><stop offset="1" stop-color="#ABB7E3" stop-opacity="0"/></linearGradient><linearGradient id="paint112_linear" x1="335.7" y1="258" x2="335.7" y2="260.7" gradientUnits="userSpaceOnUse"><stop stop-color="#A4FFFF"/><stop offset="1" stop-color="#ABB7E3" stop-opacity="0"/></linearGradient><linearGradient id="paint113_linear" x1="187" y1="259.2" x2="187" y2="262.1" gradientUnits="userSpaceOnUse"><stop stop-color="#A4FFFF"/><stop offset="1" stop-color="#ABB7E3" stop-opacity="0"/></linearGradient><linearGradient id="paint114_linear" x1="187" y1="259.2" x2="187" y2="262.1" gradientUnits="userSpaceOnUse"><stop stop-color="#A4FFFF"/><stop offset="1" stop-color="#ABB7E3" stop-opacity="0"/></linearGradient><linearGradient id="paint115_linear" x1="326.4" y1="259.8" x2="326.4" y2="262.3" gradientUnits="userSpaceOnUse"><stop stop-color="#A4FFFF"/><stop offset="1" stop-color="#ABB7E3" stop-opacity="0"/></linearGradient><linearGradient id="paint116_linear" x1="326.4" y1="259.8" x2="326.4" y2="262.3" gradientUnits="userSpaceOnUse"><stop stop-color="#A4FFFF"/><stop offset="1" stop-color="#ABB7E3" stop-opacity="0"/></linearGradient><linearGradient id="paint117_linear" x1="368" y1="260.3" x2="368" y2="262.9" gradientUnits="userSpaceOnUse"><stop stop-color="#A4FFFF"/><stop offset="1" stop-color="#ABB7E3" stop-opacity="0"/></linearGradient><linearGradient id="paint118_linear" x1="368" y1="260.3" x2="368" y2="262.9" gradientUnits="userSpaceOnUse"><stop stop-color="#A4FFFF"/><stop offset="1" stop-color="#ABB7E3" stop-opacity="0"/></linearGradient><linearGradient id="paint119_linear" x1="405.1" y1="270.5" x2="405.1" y2="273.5" gradientUnits="userSpaceOnUse"><stop stop-color="#A4FFFF"/><stop offset="1" stop-color="#ABB7E3" stop-opacity="0"/></linearGradient><linearGradient id="paint120_linear" x1="405.1" y1="270.5" x2="405.1" y2="273.5" gradientUnits="userSpaceOnUse"><stop stop-color="#A4FFFF"/><stop offset="1" stop-color="#ABB7E3" stop-opacity="0"/></linearGradient><linearGradient id="paint121_linear" x1="443.8" y1="290" x2="443.8" y2="293" gradientUnits="userSpaceOnUse"><stop stop-color="#A4FFFF"/><stop offset="1" stop-color="#ABB7E3" stop-opacity="0"/></linearGradient><linearGradient id="paint122_linear" x1="443.8" y1="290" x2="443.8" y2="293" gradientUnits="userSpaceOnUse"><stop stop-color="#A4FFFF"/><stop offset="1" stop-color="#ABB7E3" stop-opacity="0"/></linearGradient><linearGradient id="paint123_linear" x1="298.3" y1="292" x2="298.3" y2="342.6" gradientUnits="userSpaceOnUse"><stop stop-color="#A4FFFF"/><stop offset="1" stop-color="#ABB7E3" stop-opacity="0"/></linearGradient><linearGradient id="paint124_linear" x1="298.3" y1="292" x2="298.3" y2="342.6" gradientUnits="userSpaceOnUse"><stop stop-color="#A4FFFF"/><stop offset="1" stop-color="#ABB7E3" stop-opacity="0"/></linearGradient><linearGradient id="paint125_linear" x1="403.7" y1="293.4" x2="403.7" y2="295.9" gradientUnits="userSpaceOnUse"><stop stop-color="#A4FFFF"/><stop offset="1" stop-color="#ABB7E3" stop-opacity="0"/></linearGradient><linearGradient id="paint126_linear" x1="403.7" y1="293.4" x2="403.7" y2="295.9" gradientUnits="userSpaceOnUse"><stop stop-color="#A4FFFF"/><stop offset="1" stop-color="#ABB7E3" stop-opacity="0"/></linearGradient><linearGradient id="paint127_linear" x1="225.6" y1="293.4" x2="225.6" y2="296.1" gradientUnits="userSpaceOnUse"><stop stop-color="#A4FFFF"/><stop offset="1" stop-color="#ABB7E3" stop-opacity="0"/></linearGradient><linearGradient id="paint128_linear" x1="225.6" y1="293.4" x2="225.6" y2="296.1" gradientUnits="userSpaceOnUse"><stop stop-color="#A4FFFF"/><stop offset="1" stop-color="#ABB7E3" stop-opacity="0"/></linearGradient><linearGradient id="paint129_linear" x1="315.9" y1="304.6" x2="315.9" y2="307.1" gradientUnits="userSpaceOnUse"><stop stop-color="#A4FFFF"/><stop offset="1" stop-color="#ABB7E3" stop-opacity="0"/></linearGradient><linearGradient id="paint130_linear" x1="315.9" y1="304.6" x2="315.9" y2="307.1" gradientUnits="userSpaceOnUse"><stop stop-color="#A4FFFF"/><stop offset="1" stop-color="#ABB7E3" stop-opacity="0"/></linearGradient><linearGradient id="paint131_linear" x1="411.8" y1="306.3" x2="411.8" y2="309" gradientUnits="userSpaceOnUse"><stop stop-color="#A4FFFF"/><stop offset="1" stop-color="#ABB7E3" stop-opacity="0"/></linearGradient><linearGradient id="paint132_linear" x1="411.8" y1="306.3" x2="411.8" y2="309" gradientUnits="userSpaceOnUse"><stop stop-color="#A4FFFF"/><stop offset="1" stop-color="#ABB7E3" stop-opacity="0"/></linearGradient><linearGradient id="paint133_linear" x1="471.1" y1="311" x2="471.1" y2="313.7" gradientUnits="userSpaceOnUse"><stop stop-color="#A4FFFF"/><stop offset="1" stop-color="#ABB7E3" stop-opacity="0"/></linearGradient><linearGradient id="paint134_linear" x1="471.1" y1="311" x2="471.1" y2="313.7" gradientUnits="userSpaceOnUse"><stop stop-color="#A4FFFF"/><stop offset="1" stop-color="#ABB7E3" stop-opacity="0"/></linearGradient><linearGradient id="paint135_linear" x1="236.2" y1="320.4" x2="236.2" y2="322.8" gradientUnits="userSpaceOnUse"><stop stop-color="#A4FFFF"/><stop offset="1" stop-color="#ABB7E3" stop-opacity="0"/></linearGradient><linearGradient id="paint136_linear" x1="236.2" y1="320.4" x2="236.2" y2="322.8" gradientUnits="userSpaceOnUse"><stop stop-color="#A4FFFF"/><stop offset="1" stop-color="#ABB7E3" stop-opacity="0"/></linearGradient><linearGradient id="paint137_linear" x1="456" y1="329.8" x2="456" y2="332.9" gradientUnits="userSpaceOnUse"><stop stop-color="#A4FFFF"/><stop offset="1" stop-color="#ABB7E3" stop-opacity="0"/></linearGradient><linearGradient id="paint138_linear" x1="456" y1="329.8" x2="456" y2="332.9" gradientUnits="userSpaceOnUse"><stop stop-color="#A4FFFF"/><stop offset="1" stop-color="#ABB7E3" stop-opacity="0"/></linearGradient><linearGradient id="paint139_linear" x1="236.1" y1="331.1" x2="236.1" y2="337.6" gradientUnits="userSpaceOnUse"><stop stop-color="#A4FFFF"/><stop offset="1" stop-color="#ABB7E3" stop-opacity="0"/></linearGradient><linearGradient id="paint140_linear" x1="236.1" y1="331.1" x2="236.1" y2="337.6" gradientUnits="userSpaceOnUse"><stop stop-color="#A4FFFF"/><stop offset="1" stop-color="#ABB7E3" stop-opacity="0"/></linearGradient><linearGradient id="paint141_linear" x1="306" y1="332.5" x2="306" y2="335.3" gradientUnits="userSpaceOnUse"><stop stop-color="#A4FFFF"/><stop offset="1" stop-color="#ABB7E3" stop-opacity="0"/></linearGradient><linearGradient id="paint142_linear" x1="306" y1="332.5" x2="306" y2="335.3" gradientUnits="userSpaceOnUse"><stop stop-color="#A4FFFF"/><stop offset="1" stop-color="#ABB7E3" stop-opacity="0"/></linearGradient><linearGradient id="paint143_linear" x1="260.3" y1="333.2" x2="260.3" y2="335.6" gradientUnits="userSpaceOnUse"><stop stop-color="#A4FFFF"/><stop offset="1" stop-color="#ABB7E3" stop-opacity="0"/></linearGradient><linearGradient id="paint144_linear" x1="260.3" y1="333.2" x2="260.3" y2="335.6" gradientUnits="userSpaceOnUse"><stop stop-color="#A4FFFF"/><stop offset="1" stop-color="#ABB7E3" stop-opacity="0"/></linearGradient><linearGradient id="paint145_linear" x1="425.6" y1="342.4" x2="425.6" y2="345.3" gradientUnits="userSpaceOnUse"><stop stop-color="#A4FFFF"/><stop offset="1" stop-color="#ABB7E3" stop-opacity="0"/></linearGradient><linearGradient id="paint146_linear" x1="425.6" y1="342.4" x2="425.6" y2="345.3" gradientUnits="userSpaceOnUse"><stop stop-color="#A4FFFF"/><stop offset="1" stop-color="#ABB7E3" stop-opacity="0"/></linearGradient><linearGradient id="paint147_linear" x1="429.3" y1="343" x2="429.3" y2="345.7" gradientUnits="userSpaceOnUse"><stop stop-color="#A4FFFF"/><stop offset="1" stop-color="#ABB7E3" stop-opacity="0"/></linearGradient><linearGradient id="paint148_linear" x1="429.3" y1="343" x2="429.3" y2="345.7" gradientUnits="userSpaceOnUse"><stop stop-color="#A4FFFF"/><stop offset="1" stop-color="#ABB7E3" stop-opacity="0"/></linearGradient><linearGradient id="paint149_linear" x1="553.2" y1="343.5" x2="553.2" y2="346.2" gradientUnits="userSpaceOnUse"><stop stop-color="#A4FFFF"/><stop offset="1" stop-color="#ABB7E3" stop-opacity="0"/></linearGradient><linearGradient id="paint150_linear" x1="553.2" y1="343.5" x2="553.2" y2="346.2" gradientUnits="userSpaceOnUse"><stop stop-color="#A4FFFF"/><stop offset="1" stop-color="#ABB7E3" stop-opacity="0"/></linearGradient><linearGradient id="paint151_linear" x1="518.1" y1="345.4" x2="518.1" y2="348.1" gradientUnits="userSpaceOnUse"><stop stop-color="#A4FFFF"/><stop offset="1" stop-color="#ABB7E3" stop-opacity="0"/></linearGradient><linearGradient id="paint152_linear" x1="518.1" y1="345.4" x2="518.1" y2="348.1" gradientUnits="userSpaceOnUse"><stop stop-color="#A4FFFF"/><stop offset="1" stop-color="#ABB7E3" stop-opacity="0"/></linearGradient><linearGradient id="paint153_linear" x1="314.4" y1="347.5" x2="314.4" y2="369.9" gradientUnits="userSpaceOnUse"><stop stop-color="#A4FFFF"/><stop offset="1" stop-color="#ABB7E3" stop-opacity="0"/></linearGradient><linearGradient id="paint154_linear" x1="314.4" y1="347.5" x2="314.4" y2="369.9" gradientUnits="userSpaceOnUse"><stop stop-color="#A4FFFF"/><stop offset="1" stop-color="#ABB7E3" stop-opacity="0"/></linearGradient><linearGradient id="paint155_linear" x1="296.8" y1="362.5" x2="296.8" y2="365" gradientUnits="userSpaceOnUse"><stop stop-color="#A4FFFF"/><stop offset="1" stop-color="#ABB7E3" stop-opacity="0"/></linearGradient><linearGradient id="paint156_linear" x1="296.8" y1="362.5" x2="296.8" y2="365" gradientUnits="userSpaceOnUse"><stop stop-color="#A4FFFF"/><stop offset="1" stop-color="#ABB7E3" stop-opacity="0"/></linearGradient><linearGradient id="paint157_linear" x1="258.5" y1="384" x2="258.5" y2="386.6" gradientUnits="userSpaceOnUse"><stop stop-color="#A4FFFF"/><stop offset="1" stop-color="#ABB7E3" stop-opacity="0"/></linearGradient><linearGradient id="paint158_linear" x1="258.5" y1="384" x2="258.5" y2="386.6" gradientUnits="userSpaceOnUse"><stop stop-color="#A4FFFF"/><stop offset="1" stop-color="#ABB7E3" stop-opacity="0"/></linearGradient><linearGradient id="paint159_linear" x1="578.4" y1="385.4" x2="578.4" y2="388.1" gradientUnits="userSpaceOnUse"><stop stop-color="#A4FFFF"/><stop offset="1" stop-color="#ABB7E3" stop-opacity="0"/></linearGradient><linearGradient id="paint160_linear" x1="578.4" y1="385.4" x2="578.4" y2="388.1" gradientUnits="userSpaceOnUse"><stop stop-color="#A4FFFF"/><stop offset="1" stop-color="#ABB7E3" stop-opacity="0"/></linearGradient><linearGradient id="paint161_linear" x1="519.8" y1="385.7" x2="519.8" y2="388.6" gradientUnits="userSpaceOnUse"><stop stop-color="#A4FFFF"/><stop offset="1" stop-color="#ABB7E3" stop-opacity="0"/></linearGradient><linearGradient id="paint162_linear" x1="519.8" y1="385.7" x2="519.8" y2="388.6" gradientUnits="userSpaceOnUse"><stop stop-color="#A4FFFF"/><stop offset="1" stop-color="#ABB7E3" stop-opacity="0"/></linearGradient><linearGradient id="paint163_linear" x1="396.9" y1="394" x2="396.9" y2="399.4" gradientUnits="userSpaceOnUse"><stop stop-color="#A4FFFF"/><stop offset="1" stop-color="#ABB7E3" stop-opacity="0"/></linearGradient><linearGradient id="paint164_linear" x1="396.9" y1="394" x2="396.9" y2="399.4" gradientUnits="userSpaceOnUse"><stop stop-color="#A4FFFF"/><stop offset="1" stop-color="#ABB7E3" stop-opacity="0"/></linearGradient><linearGradient id="paint165_linear" x1="450.7" y1="400.6" x2="450.7" y2="423.1" gradientUnits="userSpaceOnUse"><stop stop-color="#A4FFFF"/><stop offset="1" stop-color="#ABB7E3" stop-opacity="0"/></linearGradient><linearGradient id="paint166_linear" x1="450.7" y1="400.6" x2="450.7" y2="423.1" gradientUnits="userSpaceOnUse"><stop stop-color="#A4FFFF"/><stop offset="1" stop-color="#ABB7E3" stop-opacity="0"/></linearGradient><linearGradient id="paint167_linear" x1="585" y1="404.5" x2="585" y2="420.1" gradientUnits="userSpaceOnUse"><stop stop-color="#A4FFFF"/><stop offset="1" stop-color="#ABB7E3" stop-opacity="0"/></linearGradient><linearGradient id="paint168_linear" x1="585" y1="404.5" x2="585" y2="420.1" gradientUnits="userSpaceOnUse"><stop stop-color="#A4FFFF"/><stop offset="1" stop-color="#ABB7E3" stop-opacity="0"/></linearGradient><linearGradient id="paint169_linear" x1="383.9" y1="408.5" x2="383.9" y2="411.1" gradientUnits="userSpaceOnUse"><stop stop-color="#A4FFFF"/><stop offset="1" stop-color="#ABB7E3" stop-opacity="0"/></linearGradient><linearGradient id="paint170_linear" x1="383.9" y1="408.5" x2="383.9" y2="411.1" gradientUnits="userSpaceOnUse"><stop stop-color="#A4FFFF"/><stop offset="1" stop-color="#ABB7E3" stop-opacity="0"/></linearGradient><linearGradient id="paint171_linear" x1="447.3" y1="420.7" x2="447.3" y2="423.4" gradientUnits="userSpaceOnUse"><stop stop-color="#A4FFFF"/><stop offset="1" stop-color="#ABB7E3" stop-opacity="0"/></linearGradient><linearGradient id="paint172_linear" x1="447.3" y1="420.7" x2="447.3" y2="423.4" gradientUnits="userSpaceOnUse"><stop stop-color="#A4FFFF"/><stop offset="1" stop-color="#ABB7E3" stop-opacity="0"/></linearGradient><linearGradient id="paint173_linear" x1="378.7" y1="420.9" x2="378.7" y2="423.6" gradientUnits="userSpaceOnUse"><stop stop-color="#A4FFFF"/><stop offset="1" stop-color="#ABB7E3" stop-opacity="0"/></linearGradient><linearGradient id="paint174_linear" x1="378.7" y1="420.9" x2="378.7" y2="423.6" gradientUnits="userSpaceOnUse"><stop stop-color="#A4FFFF"/><stop offset="1" stop-color="#ABB7E3" stop-opacity="0"/></linearGradient><linearGradient id="paint175_linear" x1="625.5" y1="427.7" x2="625.5" y2="432.8" gradientUnits="userSpaceOnUse"><stop stop-color="#A4FFFF"/><stop offset="1" stop-color="#ABB7E3" stop-opacity="0"/></linearGradient><linearGradient id="paint176_linear" x1="625.5" y1="427.7" x2="625.5" y2="432.8" gradientUnits="userSpaceOnUse"><stop stop-color="#A4FFFF"/><stop offset="1" stop-color="#ABB7E3" stop-opacity="0"/></linearGradient><linearGradient id="paint177_linear" x1="425.8" y1="433" x2="425.8" y2="435.5" gradientUnits="userSpaceOnUse"><stop stop-color="#A4FFFF"/><stop offset="1" stop-color="#ABB7E3" stop-opacity="0"/></linearGradient><linearGradient id="paint178_linear" x1="425.8" y1="433" x2="425.8" y2="435.5" gradientUnits="userSpaceOnUse"><stop stop-color="#A4FFFF"/><stop offset="1" stop-color="#ABB7E3" stop-opacity="0"/></linearGradient><linearGradient id="paint179_linear" x1="389.7" y1="460.6" x2="389.7" y2="467.1" gradientUnits="userSpaceOnUse"><stop stop-color="#A4FFFF"/><stop offset="1" stop-color="#ABB7E3" stop-opacity="0"/></linearGradient><linearGradient id="paint180_linear" x1="389.7" y1="460.6" x2="389.7" y2="467.1" gradientUnits="userSpaceOnUse"><stop stop-color="#A4FFFF"/><stop offset="1" stop-color="#ABB7E3" stop-opacity="0"/></linearGradient><linearGradient id="paint181_linear" x1="659.2" y1="472.9" x2="659.2" y2="479.4" gradientUnits="userSpaceOnUse"><stop stop-color="#A4FFFF"/><stop offset="1" stop-color="#ABB7E3" stop-opacity="0"/></linearGradient><linearGradient id="paint182_linear" x1="659.2" y1="472.9" x2="659.2" y2="479.4" gradientUnits="userSpaceOnUse"><stop stop-color="#A4FFFF"/><stop offset="1" stop-color="#ABB7E3" stop-opacity="0"/></linearGradient><linearGradient id="paint183_linear" x1="366.3" y1="481.6" x2="366.3" y2="484.2" gradientUnits="userSpaceOnUse"><stop stop-color="#A4FFFF"/><stop offset="1" stop-color="#ABB7E3" stop-opacity="0"/></linearGradient><linearGradient id="paint184_linear" x1="366.3" y1="481.6" x2="366.3" y2="484.2" gradientUnits="userSpaceOnUse"><stop stop-color="#A4FFFF"/><stop offset="1" stop-color="#ABB7E3" stop-opacity="0"/></linearGradient><linearGradient id="paint185_linear" x1="717.6" y1="488.3" x2="717.6" y2="500.4" gradientUnits="userSpaceOnUse"><stop stop-color="#A4FFFF"/><stop offset="1" stop-color="#ABB7E3" stop-opacity="0"/></linearGradient><linearGradient id="paint186_linear" x1="717.6" y1="488.3" x2="717.6" y2="500.4" gradientUnits="userSpaceOnUse"><stop stop-color="#A4FFFF"/><stop offset="1" stop-color="#ABB7E3" stop-opacity="0"/></linearGradient><linearGradient id="paint187_linear" x1="643.5" y1="509.1" x2="643.5" y2="511.7" gradientUnits="userSpaceOnUse"><stop stop-color="#A4FFFF"/><stop offset="1" stop-color="#ABB7E3" stop-opacity="0"/></linearGradient><linearGradient id="paint188_linear" x1="643.5" y1="509.1" x2="643.5" y2="511.7" gradientUnits="userSpaceOnUse"><stop stop-color="#A4FFFF"/><stop offset="1" stop-color="#ABB7E3" stop-opacity="0"/></linearGradient><linearGradient id="paint189_linear" x1="662.3" y1="509.4" x2="662.3" y2="535.8" gradientUnits="userSpaceOnUse"><stop stop-color="#A4FFFF"/><stop offset="1" stop-color="#ABB7E3" stop-opacity="0"/></linearGradient><linearGradient id="paint190_linear" x1="662.3" y1="509.4" x2="662.3" y2="535.8" gradientUnits="userSpaceOnUse"><stop stop-color="#A4FFFF"/><stop offset="1" stop-color="#ABB7E3" stop-opacity="0"/></linearGradient><linearGradient id="paint191_linear" x1="661.9" y1="567.3" x2="661.9" y2="573.4" gradientUnits="userSpaceOnUse"><stop stop-color="#A4FFFF"/><stop offset="1" stop-color="#ABB7E3" stop-opacity="0"/></linearGradient><linearGradient id="paint192_linear" x1="661.9" y1="567.3" x2="661.9" y2="573.4" gradientUnits="userSpaceOnUse"><stop stop-color="#A4FFFF"/><stop offset="1" stop-color="#ABB7E3" stop-opacity="0"/></linearGradient><clipPath id="clip0"><path fill="#fff" transform="matrix(-1 0 0 1 724 0)" d="M0 0h724v580H0z"/></clipPath></defs></svg>