<svg width="428" height="617" fill="none" xmlns="http://www.w3.org/2000/svg"><g opacity=".2"><path d="M90 181a4 4 0 11-4-7 4 4 0 014 7z" fill="url(#paint0_linear)"/><path d="M9 222l1 2 77-45-1-1-77 44z" fill="url(#paint1_linear)"/><path d="M87 394a4 4 0 11-4-7 4 4 0 014 7z" fill="url(#paint2_linear)"/><path d="M5 436l1 1 77-45-1-1-77 45z" fill="url(#paint3_linear)"/><path d="M143 181a4 4 0 11-4-7 4 4 0 014 7z" fill="url(#paint4_linear)"/><path d="M62 223l1 1 77-45-1-1-77 45z" fill="url(#paint5_linear)"/><path d="M58 112a4 4 0 11-4-7 4 4 0 014 7z" fill="url(#paint6_linear)"/><path d="M15 131l1 1 38-22-1-1-38 22z" fill="url(#paint7_linear)"/><path d="M161 234a4 4 0 11-4-7 4 4 0 014 7z" fill="url(#paint8_linear)"/><path d="M80 276v1l77-45v-1l-77 45z" fill="url(#paint9_linear)"/><path d="M90 433a4 4 0 11-4-7 4 4 0 014 7z" fill="url(#paint10_linear)"/><path d="M8 474l1 1 77-44-1-1-77 44z" fill="url(#paint11_linear)"/><path d="M62 157a4 4 0 11-4-7 4 4 0 014 7z" fill="url(#paint12_linear)"/><path d="M-19 199v1l77-45v-1l-77 45z" fill="url(#paint13_linear)"/><path d="M104 520a4 4 0 11-4-7 4 4 0 014 7z" fill="url(#paint14_linear)"/><path d="M22 561l1 2 77-45-1-1-77 44z" fill="url(#paint15_linear)"/><path d="M353 213a4 4 0 11-4-7 4 4 0 014 7z" fill="url(#paint16_linear)"/><path d="M83 364l1 1 266-154-1-1L83 364z" fill="url(#paint17_linear)"/><path d="M385 300a4 4 0 11-4-7 4 4 0 014 7z" fill="url(#paint18_linear)"/><path d="M-28 533l1 1 408-235v-1L-28 533z" fill="url(#paint19_linear)"/><path d="M116 153a4 4 0 11-4-7 4 4 0 014 7z" fill="url(#paint20_linear)"/><path d="M-155 304l1 1 266-154-1-1-266 154z" fill="url(#paint21_linear)"/><path d="M248 202a4 4 0 11-4-7 4 4 0 014 7z" fill="url(#paint22_linear)"/><path d="M-22 353v1l266-154v-1L-22 353z" fill="url(#paint23_linear)"/><path d="M309 357a4 4 0 11-4-7 4 4 0 014 7z" fill="url(#paint24_linear)"/><path d="M38 507l1 2 266-154-1-1L38 507z" fill="url(#paint25_linear)"/><path d="M-1 247a4 4 0 11-4-7 4 4 0 014 7z" fill="url(#paint26_linear)"/><path d="M167 357a4 4 0 11-4-7 4 4 0 014 7z" fill="url(#paint27_linear)"/><path d="M15 439l1 2 147-85v-2L15 439z" fill="url(#paint28_linear)"/></g><defs><linearGradient id="paint0_linear" x1="68.6" y1="188.8" x2="8" y2="223.8" gradientUnits="userSpaceOnUse"><stop stop-color="#A4FFFF"/><stop offset="1" stop-color="#A4FFFF" stop-opacity="0"/></linearGradient><linearGradient id="paint1_linear" x1="68.6" y1="188.8" x2="8" y2="223.8" gradientUnits="userSpaceOnUse"><stop stop-color="#A4FFFF"/><stop offset="1" stop-color="#A4FFFF" stop-opacity="0"/></linearGradient><linearGradient id="paint2_linear" x1="65.1" y1="401.8" x2="4.5" y2="436.8" gradientUnits="userSpaceOnUse"><stop stop-color="#A4FFFF"/><stop offset="1" stop-color="#A4FFFF" stop-opacity="0"/></linearGradient><linearGradient id="paint3_linear" x1="65.1" y1="401.8" x2="4.5" y2="436.8" gradientUnits="userSpaceOnUse"><stop stop-color="#A4FFFF"/><stop offset="1" stop-color="#A4FFFF" stop-opacity="0"/></linearGradient><linearGradient id="paint4_linear" x1="121.8" y1="189" x2="61.2" y2="224" gradientUnits="userSpaceOnUse"><stop stop-color="#A4FFFF"/><stop offset="1" stop-color="#A4FFFF" stop-opacity="0"/></linearGradient><linearGradient id="paint5_linear" x1="121.8" y1="189" x2="61.2" y2="224" gradientUnits="userSpaceOnUse"><stop stop-color="#A4FFFF"/><stop offset="1" stop-color="#A4FFFF" stop-opacity="0"/></linearGradient><linearGradient id="paint6_linear" x1="36.1" y1="119.4" x2="-24.5" y2="154.4" gradientUnits="userSpaceOnUse"><stop stop-color="#A4FFFF"/><stop offset="1" stop-color="#A4FFFF" stop-opacity="0"/></linearGradient><linearGradient id="paint7_linear" x1="44.9" y1="114.3" x2="14.6" y2="131.8" gradientUnits="userSpaceOnUse"><stop stop-color="#A4FFFF"/><stop offset="1" stop-color="#A4FFFF" stop-opacity="0"/></linearGradient><linearGradient id="paint8_linear" x1="139.3" y1="241.8" x2="78.7" y2="276.8" gradientUnits="userSpaceOnUse"><stop stop-color="#A4FFFF"/><stop offset="1" stop-color="#A4FFFF" stop-opacity="0"/></linearGradient><linearGradient id="paint9_linear" x1="139.3" y1="241.8" x2="78.7" y2="276.8" gradientUnits="userSpaceOnUse"><stop stop-color="#A4FFFF"/><stop offset="1" stop-color="#A4FFFF" stop-opacity="0"/></linearGradient><linearGradient id="paint10_linear" x1="68.2" y1="440.6" x2="7.5" y2="475.6" gradientUnits="userSpaceOnUse"><stop stop-color="#A4FFFF"/><stop offset="1" stop-color="#A4FFFF" stop-opacity="0"/></linearGradient><linearGradient id="paint11_linear" x1="68.2" y1="440.6" x2="7.5" y2="475.6" gradientUnits="userSpaceOnUse"><stop stop-color="#A4FFFF"/><stop offset="1" stop-color="#A4FFFF" stop-opacity="0"/></linearGradient><linearGradient id="paint12_linear" x1="40.5" y1="165" x2="-20.2" y2="200" gradientUnits="userSpaceOnUse"><stop stop-color="#A4FFFF"/><stop offset="1" stop-color="#A4FFFF" stop-opacity="0"/></linearGradient><linearGradient id="paint13_linear" x1="40.5" y1="165" x2="-20.2" y2="200" gradientUnits="userSpaceOnUse"><stop stop-color="#A4FFFF"/><stop offset="1" stop-color="#A4FFFF" stop-opacity="0"/></linearGradient><linearGradient id="paint14_linear" x1="82" y1="527.6" x2="21.4" y2="562.7" gradientUnits="userSpaceOnUse"><stop stop-color="#A4FFFF"/><stop offset="1" stop-color="#A4FFFF" stop-opacity="0"/></linearGradient><linearGradient id="paint15_linear" x1="82" y1="527.6" x2="21.4" y2="562.7" gradientUnits="userSpaceOnUse"><stop stop-color="#A4FFFF"/><stop offset="1" stop-color="#A4FFFF" stop-opacity="0"/></linearGradient><linearGradient id="paint16_linear" x1="317.1" y1="229.4" x2="209.1" y2="291.8" gradientUnits="userSpaceOnUse"><stop stop-color="#A4FFFF"/><stop offset="1" stop-color="#A4FFFF" stop-opacity="0"/></linearGradient><linearGradient id="paint17_linear" x1="290.1" y1="245" x2="91.4" y2="359.7" gradientUnits="userSpaceOnUse"><stop stop-color="#A4FFFF"/><stop offset="1" stop-color="#A4FFFF" stop-opacity="0"/></linearGradient><linearGradient id="paint18_linear" x1="348.7" y1="316.7" x2="240.7" y2="379" gradientUnits="userSpaceOnUse"><stop stop-color="#A4FFFF"/><stop offset="1" stop-color="#A4FFFF" stop-opacity="0"/></linearGradient><linearGradient id="paint19_linear" x1="290" y1="350.6" x2="-15" y2="526.6" gradientUnits="userSpaceOnUse"><stop stop-color="#A4FFFF"/><stop offset="1" stop-color="#A4FFFF" stop-opacity="0"/></linearGradient><linearGradient id="paint20_linear" x1="79.5" y1="169.4" x2="-28.5" y2="231.8" gradientUnits="userSpaceOnUse"><stop stop-color="#A4FFFF"/><stop offset="1" stop-color="#A4FFFF" stop-opacity="0"/></linearGradient><linearGradient id="paint21_linear" x1="52.5" y1="185" x2="-146.2" y2="299.7" gradientUnits="userSpaceOnUse"><stop stop-color="#A4FFFF"/><stop offset="1" stop-color="#A4FFFF" stop-opacity="0"/></linearGradient><linearGradient id="paint22_linear" x1="211.7" y1="218.4" x2="103.7" y2="280.7" gradientUnits="userSpaceOnUse"><stop stop-color="#A4FFFF"/><stop offset="1" stop-color="#A4FFFF" stop-opacity="0"/></linearGradient><linearGradient id="paint23_linear" x1="184.6" y1="234" x2="-14" y2="348.7" gradientUnits="userSpaceOnUse"><stop stop-color="#A4FFFF"/><stop offset="1" stop-color="#A4FFFF" stop-opacity="0"/></linearGradient><linearGradient id="paint24_linear" x1="272.4" y1="373" x2="164.4" y2="435.4" gradientUnits="userSpaceOnUse"><stop stop-color="#A4FFFF"/><stop offset="1" stop-color="#A4FFFF" stop-opacity="0"/></linearGradient><linearGradient id="paint25_linear" x1="245.3" y1="388.6" x2="46.7" y2="503.3" gradientUnits="userSpaceOnUse"><stop stop-color="#A4FFFF"/><stop offset="1" stop-color="#A4FFFF" stop-opacity="0"/></linearGradient><linearGradient id="paint26_linear" x1="-37.2" y1="263.6" x2="-145.3" y2="326" gradientUnits="userSpaceOnUse"><stop stop-color="#A4FFFF"/><stop offset="1" stop-color="#A4FFFF" stop-opacity="0"/></linearGradient><linearGradient id="paint27_linear" x1="130.7" y1="373.6" x2="22.8" y2="436" gradientUnits="userSpaceOnUse"><stop stop-color="#A4FFFF"/><stop offset="1" stop-color="#A4FFFF" stop-opacity="0"/></linearGradient><linearGradient id="paint28_linear" x1="130.2" y1="374" x2="20.3" y2="437.4" gradientUnits="userSpaceOnUse"><stop stop-color="#A4FFFF"/><stop offset="1" stop-color="#A4FFFF" stop-opacity="0"/></linearGradient></defs></svg>