<svg width="261" height="554" fill="none" xmlns="http://www.w3.org/2000/svg"><path d="M176 338a4 4 0 118 0 4 4 0 01-8 0z" fill="url(#paint0_linear)"/><path d="M181 247h-1v89h1v-89z" fill="url(#paint1_linear)"/><path d="M-7 229a4 4 0 119 0 4 4 0 01-9 0z" fill="url(#paint2_linear)"/><path d="M44 134a4 4 0 118 0 4 4 0 01-8 0z" fill="url(#paint3_linear)"/><path d="M48 43h-1v89h1V43z" fill="url(#paint4_linear)"/><path d="M84 154a4 4 0 118 0 4 4 0 01-8 0z" fill="url(#paint5_linear)"/><path d="M88 63h-1v89h1V63z" fill="url(#paint6_linear)"/><path d="M149 384a4 4 0 118 0 4 4 0 01-8 0z" fill="url(#paint7_linear)"/><path d="M154 293h-1v89h1v-89z" fill="url(#paint8_linear)"/><path d="M212 125a4 4 0 118 0 4 4 0 01-8 0z" fill="url(#paint9_linear)"/><path d="M216 34h-1v89h1V34z" fill="url(#paint10_linear)"/><path d="M101 121a4 4 0 118 0 4 4 0 01-8 0z" fill="url(#paint11_linear)"/><path d="M105 74h-1v45h1V74z" fill="url(#paint12_linear)"/><path d="M252 345a4 4 0 119 0 4 4 0 01-9 0z" fill="url(#paint13_linear)"/><path d="M257 298h-1v44h1v-44z" fill="url(#paint14_linear)"/><path d="M21 109a4 4 0 118 0 4 4 0 01-8 0z" fill="url(#paint15_linear)"/><path d="M25 62h-1v45h1V62z" fill="url(#paint16_linear)"/><path d="M151 47a4 4 0 118 0 4 4 0 01-8 0z" fill="url(#paint17_linear)"/><path d="M156 0h-2v45h2V0z" fill="url(#paint18_linear)"/><path d="M95 373a4 4 0 118 0 4 4 0 01-8 0z" fill="url(#paint19_linear)"/><path d="M100 282h-2v89h2v-89z" fill="url(#paint20_linear)"/><path d="M211 326a4 4 0 118 0 4 4 0 01-8 0z" fill="url(#paint21_linear)"/><path d="M216 234h-2v89h2v-89z" fill="url(#paint22_linear)"/><path d="M17 550a4 4 0 118 0 4 4 0 01-8 0z" fill="url(#paint23_linear)"/><path d="M21 240h-1v307h1V240z" fill="url(#paint24_linear)"/><path d="M188 374a4 4 0 118 0 4 4 0 01-8 0z" fill="url(#paint25_linear)"/><path d="M192 65h-1v307h1V65z" fill="url(#paint26_linear)"/><path d="M79 464a4 4 0 118 0 4 4 0 01-8 0z" fill="url(#paint27_linear)"/><path d="M84 155h-2v307h2V155z" fill="url(#paint28_linear)"/><path d="M164 226a4 4 0 118 0 4 4 0 01-8 0z" fill="url(#paint29_linear)"/><path d="M169 54h-1v170h1V54z" fill="url(#paint30_linear)"/><defs><linearGradient id="paint0_linear" x1="180.2" y1="315.5" x2="180.2" y2="245.4" gradientUnits="userSpaceOnUse"><stop stop-color="#A4FFFF"/><stop offset="1" stop-color="#A4FFFF" stop-opacity="0"/></linearGradient><linearGradient id="paint1_linear" x1="180.2" y1="315.5" x2="180.2" y2="245.4" gradientUnits="userSpaceOnUse"><stop stop-color="#A4FFFF"/><stop offset="1" stop-color="#A4FFFF" stop-opacity="0"/></linearGradient><linearGradient id="paint2_linear" x1="-2.5" y1="205.9" x2="-2.5" y2="135.9" gradientUnits="userSpaceOnUse"><stop stop-color="#A4FFFF"/><stop offset="1" stop-color="#A4FFFF" stop-opacity="0"/></linearGradient><linearGradient id="paint3_linear" x1="47.6" y1="111.2" x2="47.6" y2="41.2" gradientUnits="userSpaceOnUse"><stop stop-color="#A4FFFF"/><stop offset="1" stop-color="#A4FFFF" stop-opacity="0"/></linearGradient><linearGradient id="paint4_linear" x1="47.6" y1="111.2" x2="47.6" y2="41.2" gradientUnits="userSpaceOnUse"><stop stop-color="#A4FFFF"/><stop offset="1" stop-color="#A4FFFF" stop-opacity="0"/></linearGradient><linearGradient id="paint5_linear" x1="87.8" y1="131.7" x2="87.8" y2="61.7" gradientUnits="userSpaceOnUse"><stop stop-color="#A4FFFF"/><stop offset="1" stop-color="#A4FFFF" stop-opacity="0"/></linearGradient><linearGradient id="paint6_linear" x1="87.8" y1="131.7" x2="87.8" y2="61.7" gradientUnits="userSpaceOnUse"><stop stop-color="#A4FFFF"/><stop offset="1" stop-color="#A4FFFF" stop-opacity="0"/></linearGradient><linearGradient id="paint7_linear" x1="153.4" y1="361.4" x2="153.4" y2="291.4" gradientUnits="userSpaceOnUse"><stop stop-color="#A4FFFF"/><stop offset="1" stop-color="#A4FFFF" stop-opacity="0"/></linearGradient><linearGradient id="paint8_linear" x1="153.4" y1="361.4" x2="153.4" y2="291.4" gradientUnits="userSpaceOnUse"><stop stop-color="#A4FFFF"/><stop offset="1" stop-color="#A4FFFF" stop-opacity="0"/></linearGradient><linearGradient id="paint9_linear" x1="215.8" y1="102.3" x2="215.8" y2="32.3" gradientUnits="userSpaceOnUse"><stop stop-color="#A4FFFF"/><stop offset="1" stop-color="#A4FFFF" stop-opacity="0"/></linearGradient><linearGradient id="paint10_linear" x1="215.8" y1="102.3" x2="215.8" y2="32.3" gradientUnits="userSpaceOnUse"><stop stop-color="#A4FFFF"/><stop offset="1" stop-color="#A4FFFF" stop-opacity="0"/></linearGradient><linearGradient id="paint11_linear" x1="104.6" y1="98.3" x2="104.6" y2="28.3" gradientUnits="userSpaceOnUse"><stop stop-color="#A4FFFF"/><stop offset="1" stop-color="#A4FFFF" stop-opacity="0"/></linearGradient><linearGradient id="paint12_linear" x1="104.6" y1="108.5" x2="104.6" y2="73.5" gradientUnits="userSpaceOnUse"><stop stop-color="#A4FFFF"/><stop offset="1" stop-color="#A4FFFF" stop-opacity="0"/></linearGradient><linearGradient id="paint13_linear" x1="256.5" y1="322" x2="256.5" y2="252" gradientUnits="userSpaceOnUse"><stop stop-color="#A4FFFF"/><stop offset="1" stop-color="#A4FFFF" stop-opacity="0"/></linearGradient><linearGradient id="paint14_linear" x1="256.5" y1="332.2" x2="256.5" y2="297.1" gradientUnits="userSpaceOnUse"><stop stop-color="#A4FFFF"/><stop offset="1" stop-color="#A4FFFF" stop-opacity="0"/></linearGradient><linearGradient id="paint15_linear" x1="24.8" y1="86.3" x2="24.8" y2="16.2" gradientUnits="userSpaceOnUse"><stop stop-color="#A4FFFF"/><stop offset="1" stop-color="#A4FFFF" stop-opacity="0"/></linearGradient><linearGradient id="paint16_linear" x1="24.8" y1="96.4" x2="24.8" y2="61.4" gradientUnits="userSpaceOnUse"><stop stop-color="#A4FFFF"/><stop offset="1" stop-color="#A4FFFF" stop-opacity="0"/></linearGradient><linearGradient id="paint17_linear" x1="155" y1="24.6" x2="155" y2="-45.4" gradientUnits="userSpaceOnUse"><stop stop-color="#A4FFFF"/><stop offset="1" stop-color="#A4FFFF" stop-opacity="0"/></linearGradient><linearGradient id="paint18_linear" x1="155" y1="34.8" x2="155" y2="-.2" gradientUnits="userSpaceOnUse"><stop stop-color="#A4FFFF"/><stop offset="1" stop-color="#A4FFFF" stop-opacity="0"/></linearGradient><linearGradient id="paint19_linear" x1="99" y1="350.2" x2="99" y2="280.2" gradientUnits="userSpaceOnUse"><stop stop-color="#A4FFFF"/><stop offset="1" stop-color="#A4FFFF" stop-opacity="0"/></linearGradient><linearGradient id="paint20_linear" x1="99" y1="350.2" x2="99" y2="280.2" gradientUnits="userSpaceOnUse"><stop stop-color="#A4FFFF"/><stop offset="1" stop-color="#A4FFFF" stop-opacity="0"/></linearGradient><linearGradient id="paint21_linear" x1="214.9" y1="303" x2="214.9" y2="232.9" gradientUnits="userSpaceOnUse"><stop stop-color="#A4FFFF"/><stop offset="1" stop-color="#A4FFFF" stop-opacity="0"/></linearGradient><linearGradient id="paint22_linear" x1="214.9" y1="303" x2="214.9" y2="233" gradientUnits="userSpaceOnUse"><stop stop-color="#A4FFFF"/><stop offset="1" stop-color="#A4FFFF" stop-opacity="0"/></linearGradient><linearGradient id="paint23_linear" x1="20.7" y1="510.3" x2="20.7" y2="385.6" gradientUnits="userSpaceOnUse"><stop stop-color="#A4FFFF"/><stop offset="1" stop-color="#A4FFFF" stop-opacity="0"/></linearGradient><linearGradient id="paint24_linear" x1="20.7" y1="479.1" x2="20.7" y2="249.7" gradientUnits="userSpaceOnUse"><stop stop-color="#A4FFFF"/><stop offset="1" stop-color="#A4FFFF" stop-opacity="0"/></linearGradient><linearGradient id="paint25_linear" x1="191.5" y1="334.5" x2="191.5" y2="209.8" gradientUnits="userSpaceOnUse"><stop stop-color="#A4FFFF"/><stop offset="1" stop-color="#A4FFFF" stop-opacity="0"/></linearGradient><linearGradient id="paint26_linear" x1="191.6" y1="303.3" x2="191.6" y2="73.9" gradientUnits="userSpaceOnUse"><stop stop-color="#A4FFFF"/><stop offset="1" stop-color="#A4FFFF" stop-opacity="0"/></linearGradient><linearGradient id="paint27_linear" x1="83" y1="424.5" x2="83" y2="299.8" gradientUnits="userSpaceOnUse"><stop stop-color="#A4FFFF"/><stop offset="1" stop-color="#A4FFFF" stop-opacity="0"/></linearGradient><linearGradient id="paint28_linear" x1="83" y1="393.3" x2="83" y2="163.9" gradientUnits="userSpaceOnUse"><stop stop-color="#A4FFFF"/><stop offset="1" stop-color="#A4FFFF" stop-opacity="0"/></linearGradient><linearGradient id="paint29_linear" x1="168.3" y1="186.4" x2="168.3" y2="61.6" gradientUnits="userSpaceOnUse"><stop stop-color="#A4FFFF"/><stop offset="1" stop-color="#A4FFFF" stop-opacity="0"/></linearGradient><linearGradient id="paint30_linear" x1="168.3" y1="185.7" x2="168.3" y2="58.8" gradientUnits="userSpaceOnUse"><stop stop-color="#A4FFFF"/><stop offset="1" stop-color="#A4FFFF" stop-opacity="0"/></linearGradient></defs></svg>