<svg width="325" height="565" fill="none" xmlns="http://www.w3.org/2000/svg"><path d="M193 381a4 4 0 118 0 4 4 0 01-8 0z" fill="url(#paint0_linear)"/><path d="M197 316h-1v62h1v-62z" fill="url(#paint1_linear)"/><path d="M89 291a4 4 0 118 0 4 4 0 01-8 0z" fill="url(#paint2_linear)"/><path d="M94 128h-2v160h2V128z" fill="url(#paint3_linear)"/><path d="M43 152a4 4 0 118 0 4 4 0 01-8 0z" fill="url(#paint4_linear)"/><path d="M48 60h-2v89h2V60z" fill="url(#paint5_linear)"/><path d="M168 222a4 4 0 118 0 4 4 0 01-8 0z" fill="url(#paint6_linear)"/><path d="M172 131h-1v89h1v-89z" fill="url(#paint7_linear)"/><path d="M295 229a4 4 0 118 0 4 4 0 01-8 0z" fill="url(#paint8_linear)"/><path d="M300 138h-1v89h1v-89z" fill="url(#paint9_linear)"/><path d="M156 296a4 4 0 118 0 4 4 0 01-8 0z" fill="url(#paint10_linear)"/><path d="M161 127h-2v167h2V127z" fill="url(#paint11_linear)"/><path d="M179 266a4 4 0 118 0 4 4 0 01-8 0z" fill="url(#paint12_linear)"/><path d="M184 130h-1v133h1V130z" fill="url(#paint13_linear)"/><path d="M122 443a4 4 0 118 0 4 4 0 01-8 0z" fill="url(#paint14_linear)"/><path d="M126 133h-1v307h1V133z" fill="url(#paint15_linear)"/><path d="M239 309a4 4 0 118 0 4 4 0 01-8 0z" fill="url(#paint16_linear)"/><path d="M244 0h-1v307h1V0z" fill="url(#paint17_linear)"/><path d="M300 327a4 4 0 119 0 4 4 0 01-9 0z" fill="url(#paint18_linear)"/><path d="M305 17h-1v307h1V17z" fill="url(#paint19_linear)"/><path d="M54 510a4 4 0 118 0 4 4 0 01-8 0z" fill="url(#paint20_linear)"/><path d="M58 201h-1v307h1V201z" fill="url(#paint21_linear)"/><path d="M311 389a4 4 0 118 0 4 4 0 01-8 0z" fill="url(#paint22_linear)"/><path d="M316 79h-1v307h1V79z" fill="url(#paint23_linear)"/><path d="M1 428a4 4 0 118 0 4 4 0 01-8 0z" fill="url(#paint24_linear)"/><path d="M6 256H4v170h2V256z" fill="url(#paint25_linear)"/><path d="M70 243a4 4 0 118 0 4 4 0 01-8 0z" fill="url(#paint26_linear)"/><path d="M75 118h-1v123h1V118z" fill="url(#paint27_linear)"/><path d="M290 460a4 4 0 118 0 4 4 0 01-8 0z" fill="url(#paint28_linear)"/><path d="M295 288h-2v170h2V288z" fill="url(#paint29_linear)"/><defs><linearGradient id="paint0_linear" x1="196.8" y1="358.1" x2="196.8" y2="288.1" gradientUnits="userSpaceOnUse"><stop stop-color="#A4FFFF"/><stop offset="1" stop-color="#A4FFFF" stop-opacity="0"/></linearGradient><linearGradient id="paint1_linear" x1="196.8" y1="364.2" x2="196.8" y2="315.4" gradientUnits="userSpaceOnUse"><stop stop-color="#A4FFFF"/><stop offset="1" stop-color="#A4FFFF" stop-opacity="0"/></linearGradient><linearGradient id="paint2_linear" x1="92.9" y1="267.9" x2="92.9" y2="197.9" gradientUnits="userSpaceOnUse"><stop stop-color="#A4FFFF"/><stop offset="1" stop-color="#A4FFFF" stop-opacity="0"/></linearGradient><linearGradient id="paint3_linear" x1="92.9" y1="251.6" x2="92.9" y2="125.2" gradientUnits="userSpaceOnUse"><stop stop-color="#A4FFFF"/><stop offset="1" stop-color="#A4FFFF" stop-opacity="0"/></linearGradient><linearGradient id="paint4_linear" x1="47" y1="129.1" x2="47" y2="59.1" gradientUnits="userSpaceOnUse"><stop stop-color="#A4FFFF"/><stop offset="1" stop-color="#A4FFFF" stop-opacity="0"/></linearGradient><linearGradient id="paint5_linear" x1="47" y1="129.1" x2="47" y2="59.1" gradientUnits="userSpaceOnUse"><stop stop-color="#A4FFFF"/><stop offset="1" stop-color="#A4FFFF" stop-opacity="0"/></linearGradient><linearGradient id="paint6_linear" x1="171.7" y1="199.2" x2="171.7" y2="129.2" gradientUnits="userSpaceOnUse"><stop stop-color="#A4FFFF"/><stop offset="1" stop-color="#A4FFFF" stop-opacity="0"/></linearGradient><linearGradient id="paint7_linear" x1="171.7" y1="199.2" x2="171.7" y2="129.2" gradientUnits="userSpaceOnUse"><stop stop-color="#A4FFFF"/><stop offset="1" stop-color="#A4FFFF" stop-opacity="0"/></linearGradient><linearGradient id="paint8_linear" x1="299.2" y1="206.2" x2="299.2" y2="136.2" gradientUnits="userSpaceOnUse"><stop stop-color="#A4FFFF"/><stop offset="1" stop-color="#A4FFFF" stop-opacity="0"/></linearGradient><linearGradient id="paint9_linear" x1="299.2" y1="206.2" x2="299.2" y2="136.2" gradientUnits="userSpaceOnUse"><stop stop-color="#A4FFFF"/><stop offset="1" stop-color="#A4FFFF" stop-opacity="0"/></linearGradient><linearGradient id="paint10_linear" x1="159.8" y1="256.8" x2="159.8" y2="132.1" gradientUnits="userSpaceOnUse"><stop stop-color="#A4FFFF"/><stop offset="1" stop-color="#A4FFFF" stop-opacity="0"/></linearGradient><linearGradient id="paint11_linear" x1="159.8" y1="256.8" x2="159.8" y2="132.1" gradientUnits="userSpaceOnUse"><stop stop-color="#A4FFFF"/><stop offset="1" stop-color="#A4FFFF" stop-opacity="0"/></linearGradient><linearGradient id="paint12_linear" x1="183.3" y1="226.2" x2="183.3" y2="101.5" gradientUnits="userSpaceOnUse"><stop stop-color="#A4FFFF"/><stop offset="1" stop-color="#A4FFFF" stop-opacity="0"/></linearGradient><linearGradient id="paint13_linear" x1="183.3" y1="233.7" x2="183.3" y2="134.1" gradientUnits="userSpaceOnUse"><stop stop-color="#A4FFFF"/><stop offset="1" stop-color="#A4FFFF" stop-opacity="0"/></linearGradient><linearGradient id="paint14_linear" x1="125.8" y1="403.2" x2="125.8" y2="278.5" gradientUnits="userSpaceOnUse"><stop stop-color="#A4FFFF"/><stop offset="1" stop-color="#A4FFFF" stop-opacity="0"/></linearGradient><linearGradient id="paint15_linear" x1="125.8" y1="372" x2="125.8" y2="142.6" gradientUnits="userSpaceOnUse"><stop stop-color="#A4FFFF"/><stop offset="1" stop-color="#A4FFFF" stop-opacity="0"/></linearGradient><linearGradient id="paint16_linear" x1="243.3" y1="269.8" x2="243.3" y2="145.1" gradientUnits="userSpaceOnUse"><stop stop-color="#A4FFFF"/><stop offset="1" stop-color="#A4FFFF" stop-opacity="0"/></linearGradient><linearGradient id="paint17_linear" x1="243.3" y1="238.6" x2="243.3" y2="9.3" gradientUnits="userSpaceOnUse"><stop stop-color="#A4FFFF"/><stop offset="1" stop-color="#A4FFFF" stop-opacity="0"/></linearGradient><linearGradient id="paint18_linear" x1="304.5" y1="287" x2="304.5" y2="162.3" gradientUnits="userSpaceOnUse"><stop stop-color="#A4FFFF"/><stop offset="1" stop-color="#A4FFFF" stop-opacity="0"/></linearGradient><linearGradient id="paint19_linear" x1="304.5" y1="255.8" x2="304.5" y2="26.4" gradientUnits="userSpaceOnUse"><stop stop-color="#A4FFFF"/><stop offset="1" stop-color="#A4FFFF" stop-opacity="0"/></linearGradient><linearGradient id="paint20_linear" x1="57.7" y1="470.8" x2="57.7" y2="346.1" gradientUnits="userSpaceOnUse"><stop stop-color="#A4FFFF"/><stop offset="1" stop-color="#A4FFFF" stop-opacity="0"/></linearGradient><linearGradient id="paint21_linear" x1="57.7" y1="439.6" x2="57.7" y2="210.2" gradientUnits="userSpaceOnUse"><stop stop-color="#A4FFFF"/><stop offset="1" stop-color="#A4FFFF" stop-opacity="0"/></linearGradient><linearGradient id="paint22_linear" x1="315.5" y1="349.1" x2="315.5" y2="224.5" gradientUnits="userSpaceOnUse"><stop stop-color="#A4FFFF"/><stop offset="1" stop-color="#A4FFFF" stop-opacity="0"/></linearGradient><linearGradient id="paint23_linear" x1="315.5" y1="317.9" x2="315.5" y2="88.5" gradientUnits="userSpaceOnUse"><stop stop-color="#A4FFFF"/><stop offset="1" stop-color="#A4FFFF" stop-opacity="0"/></linearGradient><linearGradient id="paint24_linear" x1="4.9" y1="388.7" x2="4.9" y2="264" gradientUnits="userSpaceOnUse"><stop stop-color="#A4FFFF"/><stop offset="1" stop-color="#A4FFFF" stop-opacity="0"/></linearGradient><linearGradient id="paint25_linear" x1="4.9" y1="388.1" x2="4.9" y2="261.1" gradientUnits="userSpaceOnUse"><stop stop-color="#A4FFFF"/><stop offset="1" stop-color="#A4FFFF" stop-opacity="0"/></linearGradient><linearGradient id="paint26_linear" x1="74.4" y1="203.6" x2="74.4" y2="78.9" gradientUnits="userSpaceOnUse"><stop stop-color="#A4FFFF"/><stop offset="1" stop-color="#A4FFFF" stop-opacity="0"/></linearGradient><linearGradient id="paint27_linear" x1="74.4" y1="213.4" x2="74.4" y2="121.5" gradientUnits="userSpaceOnUse"><stop stop-color="#A4FFFF"/><stop offset="1" stop-color="#A4FFFF" stop-opacity="0"/></linearGradient><linearGradient id="paint28_linear" x1="294" y1="420.7" x2="294" y2="296.1" gradientUnits="userSpaceOnUse"><stop stop-color="#A4FFFF"/><stop offset="1" stop-color="#A4FFFF" stop-opacity="0"/></linearGradient><linearGradient id="paint29_linear" x1="294" y1="420" x2="294" y2="293.1" gradientUnits="userSpaceOnUse"><stop stop-color="#A4FFFF"/><stop offset="1" stop-color="#A4FFFF" stop-opacity="0"/></linearGradient></defs></svg>