<svg width="40" height="40" viewBox="0 0 40 40" fill="none" xmlns="http://www.w3.org/2000/svg">
<path opacity="0.1" fill-rule="evenodd" clip-rule="evenodd" d="M20 40C31.0457 40 40 31.0457 40 20C40 8.9543 31.0457 0 20 0C8.9543 0 0 8.9543 0 20C0 31.0457 8.9543 40 20 40Z" fill="#F6F6F6"/>
<path d="M26.3929 19.3023H20.6268C20.6268 19.902 20.6268 21.1013 20.6231 21.701H23.9644C23.8364 22.3006 23.3824 23.1402 22.741 23.5629C22.7404 23.5623 22.7398 23.5665 22.7385 23.5659C21.8857 24.129 20.7603 24.2567 19.9247 24.0888C18.6149 23.8286 17.5783 22.8787 17.1574 21.6722C17.1599 21.6704 17.1617 21.6536 17.1635 21.6524C16.9001 20.904 16.9001 19.902 17.1635 19.3023H17.1629C17.5023 18.2001 18.5702 17.1945 19.8818 16.9193C20.9368 16.6956 22.1271 16.9378 23.0026 17.757C23.119 17.6431 24.6138 16.1835 24.7259 16.0647C21.735 13.3561 16.9461 14.3089 15.1541 17.8068H15.1535C15.1535 17.8068 15.1541 17.8068 15.1504 17.8134C14.2639 19.5314 14.3007 21.5559 15.1565 23.1917C15.1541 23.1935 15.1523 23.1947 15.1504 23.1965C15.926 24.7017 17.3375 25.856 19.0382 26.2956C20.8449 26.7693 23.1441 26.4455 24.6843 25.0525C24.6849 25.0531 24.6855 25.0537 24.6861 25.0543C25.991 23.8789 26.8034 21.8767 26.3929 19.3023Z" fill="white"/>
</svg>
