<svg width="24" height="24" viewBox="0 0 24 24" fill="none" xmlns="http://www.w3.org/2000/svg">
<path opacity="0.3" fill-rule="evenodd" clip-rule="evenodd" d="M7.25619 18.9292L5.97889 20.4681C3.47693 18.3916 2 15.3153 2 12C2 8.68921 3.47282 5.61675 5.96885 3.54016L7.24797 5.07765C5.20393 6.77819 4 9.28973 4 12C4 14.714 5.2073 17.2287 7.25619 18.9292ZM16.7438 18.9292L18.0211 20.4681C20.5231 18.3916 22 15.3153 22 12C22 8.68921 20.5272 5.61675 18.0311 3.54016L16.752 5.07765C18.7961 6.77819 20 9.28973 20 12C20 14.714 18.7927 17.2287 16.7438 18.9292ZM14.1785 15.8599L15.4509 17.4029C17.0529 16.082 18 14.1173 18 12C18 9.88957 17.0591 7.93072 15.4661 6.60961L14.1894 8.14908C15.329 9.09417 16 10.4912 16 12C16 13.5137 15.3245 14.9149 14.1785 15.8599ZM8.5491 17.4029L9.8215 15.8599C8.6755 14.9149 8 13.5137 8 12C8 10.4912 8.67104 9.09417 9.81062 8.14908L8.53389 6.60961C6.94091 7.93072 6 9.88957 6 12C6 14.1173 6.94714 16.082 8.5491 17.4029Z" fill="#99EFD0"/>
<path fill-rule="evenodd" clip-rule="evenodd" d="M12 14C13.1046 14 14 13.1046 14 12C14 10.8954 13.1046 10 12 10C10.8954 10 10 10.8954 10 12C10 13.1046 10.8954 14 12 14Z" fill="#99EFD0"/>
</svg>
