<svg width="46" height="36" viewBox="0 0 46 36" fill="none" xmlns="http://www.w3.org/2000/svg">
<path opacity="0.3" fill-rule="evenodd" clip-rule="evenodd" d="M37.8334 21V3C31.5649 3 26.4834 8.08157 26.4834 14.35V18.2573L14.8088 8.99997C11.8538 11.3431 11.8538 15.1421 14.8088 17.4853L24.5499 25.2095L29.8586 21H37.8334Z" fill="#99EFD0"/>
<path fill-rule="evenodd" clip-rule="evenodd" d="M6.89166 18C4.13024 18 1.89166 20.2386 1.89166 23V26.5C1.89166 29.2614 4.13024 31.5 6.89166 31.5H38.5084C41.2698 31.5 43.5084 29.2614 43.5084 26.5V23C43.5084 20.2386 41.2698 18 38.5084 18H6.89166ZM39.725 24.75C39.725 25.9926 38.4546 27 36.8875 27C35.3204 27 34.05 25.9926 34.05 24.75C34.05 23.5074 35.3204 22.5 36.8875 22.5C38.4546 22.5 39.725 23.5074 39.725 24.75Z" fill="#99EFD0"/>
</svg>
