<svg width="24" height="24" viewBox="0 0 24 24" fill="none" xmlns="http://www.w3.org/2000/svg">
<path opacity="0.3" fill-rule="evenodd" clip-rule="evenodd" d="M14 11.4722C14.8262 12.2117 15.8584 12.7255 17 12.9171V20.5C17 21.3284 16.3284 22 15.5 22C14.6716 22 14 21.3284 14 20.5V11.4722Z" fill="#99EFD0"/>
<path opacity="0.3" fill-rule="evenodd" clip-rule="evenodd" d="M7 12.9171C8.14157 12.7255 9.17384 12.2117 10 11.4722V20.5C10 21.3284 9.32843 22 8.5 22C7.67157 22 7 21.3284 7 20.5V12.9171Z" fill="#99EFD0"/>
<path fill-rule="evenodd" clip-rule="evenodd" d="M18 12C20.7614 12 23 9.76142 23 7C23 4.23858 20.7614 2 18 2C15.2386 2 13 4.23858 13 7C13 9.76142 15.2386 12 18 12ZM14 7.25C14 6.83579 14.3358 6.5 14.75 6.5H15.25C15.6642 6.5 16 6.83579 16 7.25C16 7.66421 15.6642 8 15.25 8H14.75C14.3358 8 14 7.66421 14 7.25ZM21 5C20.4477 5 20 5.44772 20 6V8C20 8.55228 20.4477 9 21 9C21.5523 9 22 8.55228 22 8V6C22 5.44772 21.5523 5 21 5Z" fill="#99EFD0"/>
<path fill-rule="evenodd" clip-rule="evenodd" d="M6 12C8.76142 12 11 9.76142 11 7C11 4.23858 8.76142 2 6 2C3.23858 2 1 4.23858 1 7C1 9.76142 3.23858 12 6 12ZM8 7.25C8 6.83579 8.33579 6.5 8.75 6.5H9.25C9.66421 6.5 10 6.83579 10 7.25C10 7.66421 9.66421 8 9.25 8H8.75C8.33579 8 8 7.66421 8 7.25ZM3 5C2.44772 5 2 5.44772 2 6V8C2 8.55228 2.44772 9 3 9C3.55228 9 4 8.55228 4 8V6C4 5.44772 3.55228 5 3 5Z" fill="#99EFD0"/>
</svg>
