<svg width="24" height="24" viewBox="0 0 24 24" fill="none" xmlns="http://www.w3.org/2000/svg">
<path opacity="0.3" fill-rule="evenodd" clip-rule="evenodd" d="M4.22182 14.1213C3.44077 14.9024 3.44077 16.1687 4.22182 16.9497L7.05025 19.7782C7.8313 20.5592 9.09763 20.5592 9.87868 19.7782L12.7071 16.9497C13.4882 16.1687 13.4882 14.9024 12.7071 14.1213L12 13.4142L9.87868 15.5355C9.48815 15.926 8.85499 15.926 8.46446 15.5355C8.07394 15.145 8.07394 14.5118 8.46446 14.1213L10.5858 12L9.87868 11.2929C9.09763 10.5118 7.8313 10.5118 7.05025 11.2929L4.22182 14.1213Z" fill="#99EFD0"/>
<path fill-rule="evenodd" clip-rule="evenodd" d="M11.2929 7.05026C10.5118 7.83131 10.5118 9.09764 11.2929 9.87869L12 10.5858L14.1213 8.46448C14.5118 8.07395 15.145 8.07395 15.5355 8.46448C15.9261 8.855 15.9261 9.48817 15.5355 9.87869L13.4142 12L14.1213 12.7071C14.9024 13.4882 16.1687 13.4882 16.9497 12.7071L19.7782 9.87869C20.5592 9.09764 20.5592 7.83131 19.7782 7.05026L16.9497 4.22184C16.1687 3.44079 14.9024 3.44079 14.1213 4.22184L11.2929 7.05026Z" fill="#99EFD0"/>
</svg>
