<svg width="40" height="40" viewBox="0 0 40 40" fill="none" xmlns="http://www.w3.org/2000/svg">
<path opacity="0.1" fill-rule="evenodd" clip-rule="evenodd" d="M20 40C31.0457 40 40 31.0457 40 20C40 8.9543 31.0457 0 20 0C8.9543 0 0 8.9543 0 20C0 31.0457 8.9543 40 20 40Z" fill="#F6F6F6"/>
<path d="M17.403 26C22.6859 26 25.5755 21.3827 25.5755 17.3791C25.5755 17.2477 25.5755 17.117 25.5671 16.987C26.1292 16.5587 26.6143 16.0271 27 15.4186C26.4764 15.6638 25.9199 15.8247 25.3508 15.8956C25.95 15.5168 26.3987 14.9217 26.6136 14.2195C26.0494 14.5724 25.4327 14.8213 24.7894 14.9549C23.7016 13.7351 21.8823 13.676 20.7252 14.8235C19.9797 15.5634 19.6626 16.6665 19.8943 17.7188C17.585 17.5962 15.4332 16.4457 13.9744 14.5532C13.2121 15.9377 13.602 17.7084 14.8641 18.5975C14.407 18.5834 13.9597 18.4535 13.56 18.2187V18.2571C13.5607 19.6992 14.5246 20.9412 15.8644 21.2269C15.4416 21.3488 14.9978 21.3665 14.568 21.2786C14.9439 22.5132 16.0226 23.3587 17.2511 23.3831C16.234 24.2263 14.9775 24.6842 13.6839 24.6827C13.4557 24.6819 13.2275 24.6679 13 24.6391C14.3139 25.5282 15.842 26 17.403 25.9978" fill="white"/>
</svg>
