<svg width="40" height="40" viewBox="0 0 40 40" fill="none" xmlns="http://www.w3.org/2000/svg">
<path opacity="0.1" fill-rule="evenodd" clip-rule="evenodd" d="M20 40C31.0457 40 40 31.0457 40 20C40 8.9543 31.0457 0 20 0C8.9543 0 0 8.9543 0 20C0 31.0457 8.9543 40 20 40Z" fill="#F6F6F6"/>
<path d="M21.457 27V20.7H23.643L24 17.9H21.457V16.5364C21.457 15.8154 21.4781 15.1 22.6295 15.1H23.7958V13.098C23.7958 13.0679 22.794 13 21.7805 13C19.664 13 18.3387 14.1599 18.3387 16.29V17.9H16V20.7H18.3387V27H21.457Z" fill="white"/>
</svg>
