<svg width="46" height="36" viewBox="0 0 46 36" fill="none" xmlns="http://www.w3.org/2000/svg">
<path opacity="0.3" fill-rule="evenodd" clip-rule="evenodd" d="M14.143 28.3938L11.7267 30.7023C6.99383 27.5875 4.19997 22.9731 4.19997 18C4.19997 13.0339 6.98606 8.42518 11.7077 5.3103L14.1274 7.61653C10.2608 10.1673 7.98332 13.9346 7.98332 18C7.98332 22.0711 10.2671 25.843 14.143 28.3938ZM32.0904 28.3938L34.5067 30.7023C39.2396 27.5875 42.0334 22.9731 42.0334 18C42.0334 13.0339 39.2473 8.42518 34.5257 5.3103L32.106 7.61653C35.9726 10.1673 38.2501 13.9346 38.2501 18C38.2501 22.0711 35.9663 25.843 32.0904 28.3938ZM27.2377 23.7899L29.6447 26.1045C32.6751 24.123 34.4667 21.1761 34.4667 18C34.4667 14.8344 32.6869 11.8961 29.6735 9.91448L27.2583 12.2237C29.414 13.6413 30.6834 15.7369 30.6834 18C30.6834 20.2707 29.4056 22.3724 27.2377 23.7899ZM16.5887 26.1045L18.9957 23.7899C16.8278 22.3724 15.55 20.2707 15.55 18C15.55 15.7369 16.8194 13.6413 18.9751 12.2237L16.56 9.91448C13.5466 11.8961 11.7667 14.8344 11.7667 18C11.7667 21.1761 13.5583 24.123 16.5887 26.1045Z" fill="#99EFD0"/>
<path fill-rule="evenodd" clip-rule="evenodd" d="M23.1167 21C25.2062 21 26.9 19.6569 26.9 18C26.9 16.3431 25.2062 15 23.1167 15C21.0272 15 19.3334 16.3431 19.3334 18C19.3334 19.6569 21.0272 21 23.1167 21Z" fill="#99EFD0"/>
</svg>
